%TF.GenerationSoftware,KiCad,Pcbnew,(7.0.0)*%
%TF.CreationDate,2024-08-27T08:05:47+05:30*%
%TF.ProjectId,Temperature Thing With Thermocouple 3V3,54656d70-6572-4617-9475-726520546869,v2.0.1*%
%TF.SameCoordinates,Original*%
%TF.FileFunction,Copper,L3,Inr*%
%TF.FilePolarity,Positive*%
%FSLAX46Y46*%
G04 Gerber Fmt 4.6, Leading zero omitted, Abs format (unit mm)*
G04 Created by KiCad (PCBNEW (7.0.0)) date 2024-08-27 08:05:47*
%MOMM*%
%LPD*%
G01*
G04 APERTURE LIST*
%TA.AperFunction,ComponentPad*%
%ADD10R,4.000000X4.000000*%
%TD*%
%TA.AperFunction,ComponentPad*%
%ADD11R,1.700000X1.700000*%
%TD*%
%TA.AperFunction,ComponentPad*%
%ADD12O,1.700000X1.700000*%
%TD*%
%TA.AperFunction,ComponentPad*%
%ADD13O,1.850000X1.050000*%
%TD*%
%TA.AperFunction,ViaPad*%
%ADD14C,0.400000*%
%TD*%
%TA.AperFunction,ViaPad*%
%ADD15C,0.600000*%
%TD*%
%TA.AperFunction,Conductor*%
%ADD16C,0.150000*%
%TD*%
G04 APERTURE END LIST*
D10*
%TO.N,Net-(J7-Pin_1)*%
%TO.C,J7*%
X166499999Y-115999999D03*
%TD*%
D11*
%TO.N,MAX_SDO*%
%TO.C,J18*%
X119999999Y-103674999D03*
D12*
%TO.N,+3V3*%
X122539999Y-103674999D03*
%TO.N,MAX_SCK*%
X119999999Y-106214999D03*
%TO.N,MAX_SDI*%
X122539999Y-106214999D03*
%TO.N,RESET*%
X119999999Y-108754999D03*
%TO.N,GND*%
X122539999Y-108754999D03*
%TD*%
D10*
%TO.N,Net-(J10-Pin_1)*%
%TO.C,J10*%
X121499999Y-115999999D03*
%TD*%
%TO.N,Net-(J15-Pin_1)*%
%TO.C,J15*%
X141499999Y-115999999D03*
%TD*%
D13*
%TO.N,GND*%
%TO.C,J13*%
X155124999Y-99799999D03*
X158574999Y-99799999D03*
X155174999Y-92199999D03*
X158624999Y-92199999D03*
%TD*%
D11*
%TO.N,BATT+*%
%TO.C,J16*%
X157679999Y-105399999D03*
%TD*%
D10*
%TO.N,Net-(J11-Pin_1)*%
%TO.C,J11*%
X131499999Y-115999999D03*
%TD*%
%TO.N,Net-(J2-Pin_1)*%
%TO.C,J2*%
X126499999Y-115999999D03*
%TD*%
%TO.N,Net-(J8-Pin_1)*%
%TO.C,J8*%
X156499999Y-115999999D03*
%TD*%
%TO.N,Net-(J1-Pin_1)*%
%TO.C,J1*%
X116499999Y-115999999D03*
%TD*%
D11*
%TO.N,+3V3*%
%TO.C,J21*%
X120499999Y-87199999D03*
D12*
%TO.N,TX*%
X120499999Y-89739999D03*
%TO.N,RX*%
X120499999Y-92279999D03*
%TO.N,GND*%
X120499999Y-94819999D03*
%TD*%
D10*
%TO.N,Net-(J4-Pin_1)*%
%TO.C,J4*%
X106499999Y-115999999D03*
%TD*%
%TO.N,Net-(J6-Pin_1)*%
%TO.C,J6*%
X146499999Y-115999999D03*
%TD*%
%TO.N,Net-(J12-Pin_1)*%
%TO.C,J12*%
X101499999Y-115999999D03*
%TD*%
%TO.N,Net-(J3-Pin_1)*%
%TO.C,J3*%
X136499999Y-115999999D03*
%TD*%
%TO.N,Net-(J14-Pin_1)*%
%TO.C,J14*%
X171499999Y-115999999D03*
%TD*%
%TO.N,Net-(J17-Pin_1)*%
%TO.C,J17*%
X161499999Y-115999999D03*
%TD*%
%TO.N,Net-(J5-Pin_1)*%
%TO.C,J5*%
X176499999Y-115999999D03*
%TD*%
%TO.N,Net-(J9-Pin_1)*%
%TO.C,J9*%
X111499999Y-115999999D03*
%TD*%
%TO.N,Net-(J19-Pin_1)*%
%TO.C,J19*%
X151499999Y-115999999D03*
%TD*%
D11*
%TO.N,GND*%
%TO.C,J20*%
X157629999Y-109049999D03*
%TD*%
D14*
%TO.N,+3V3*%
X140025000Y-96200000D03*
X153425000Y-105150000D03*
X144575000Y-106400000D03*
X144675000Y-91150000D03*
X139425000Y-102350000D03*
X129725000Y-95150000D03*
X149475000Y-87350000D03*
X152075000Y-94349502D03*
X134175000Y-100750000D03*
X145775000Y-102750000D03*
X129375000Y-101350000D03*
D15*
X145050000Y-97925000D03*
D14*
X133575000Y-95150000D03*
X136825000Y-100750000D03*
X153425000Y-106700000D03*
X153425000Y-103650000D03*
X131675000Y-85550000D03*
X148075000Y-107650000D03*
X135175000Y-85550000D03*
X146425000Y-82050000D03*
X129975000Y-85550000D03*
X129725000Y-94050000D03*
%TO.N,GND*%
X149100000Y-119600000D03*
X175900000Y-119600000D03*
X158300000Y-120200000D03*
X122800000Y-112300000D03*
X125500000Y-82300000D03*
X156500000Y-120800000D03*
X122200000Y-111100000D03*
X157900000Y-81000000D03*
X118500000Y-120800000D03*
X131300000Y-122000000D03*
X144900000Y-85000000D03*
X131000000Y-93100000D03*
X154600000Y-106800000D03*
X182200000Y-114400000D03*
X168900000Y-119600000D03*
X95400000Y-119600000D03*
X121400000Y-80700000D03*
X155100000Y-111400000D03*
X158900000Y-86300000D03*
X121500000Y-122000000D03*
X157600000Y-95900000D03*
X182600000Y-114100000D03*
X142900000Y-81000000D03*
X119800000Y-111700000D03*
X126700000Y-92500000D03*
X157700000Y-86300000D03*
X118600000Y-111700000D03*
X170100000Y-121400000D03*
X152100000Y-120200000D03*
X181300000Y-119700000D03*
X124400000Y-81100000D03*
X159100000Y-82200000D03*
X131600000Y-92500000D03*
X125900000Y-122000000D03*
X150900000Y-122000000D03*
X126100000Y-87100000D03*
X151500000Y-120800000D03*
X177100000Y-119600000D03*
X157700000Y-120200000D03*
X150300000Y-122000000D03*
X99600000Y-119000000D03*
X116700000Y-119600000D03*
X146100000Y-89700000D03*
X176500000Y-120800000D03*
X155700000Y-111400000D03*
X178900000Y-120200000D03*
X158800000Y-96500000D03*
X98100000Y-115000000D03*
X134700000Y-88500000D03*
X171900000Y-119600000D03*
X131200000Y-111100000D03*
X121600000Y-111700000D03*
X128300000Y-121400000D03*
X97800000Y-120200000D03*
X147300000Y-122000000D03*
X123800000Y-86200000D03*
X153100000Y-111400000D03*
X158800000Y-98300000D03*
X127100000Y-120800000D03*
X138200000Y-90800000D03*
X132000000Y-86400000D03*
X117900000Y-122000000D03*
X146100000Y-90300000D03*
X179200000Y-116200000D03*
X99000000Y-119600000D03*
X120800000Y-80700000D03*
X120300000Y-119600000D03*
X119000000Y-84900000D03*
X137700000Y-121400000D03*
X134600000Y-85100000D03*
X135300000Y-87900000D03*
X123800000Y-86800000D03*
X167100000Y-120800000D03*
X95400000Y-119000000D03*
X127700000Y-84000000D03*
X109500000Y-119600000D03*
X119700000Y-121400000D03*
X130100000Y-119600000D03*
X99000000Y-121400000D03*
X126700000Y-91900000D03*
X121500000Y-121400000D03*
X154500000Y-112000000D03*
X140100000Y-121400000D03*
X123700000Y-83500000D03*
X123100000Y-83500000D03*
X119000000Y-82100000D03*
X94700000Y-115100000D03*
X158900000Y-119600000D03*
X146700000Y-90900000D03*
X94700000Y-118700000D03*
X150700000Y-111400000D03*
X158900000Y-86900000D03*
X181100000Y-114400000D03*
X134600000Y-93100000D03*
X179900000Y-115600000D03*
X145500000Y-86000000D03*
X141300000Y-120800000D03*
X132500000Y-119400000D03*
X138300000Y-121400000D03*
X119800000Y-110500000D03*
X122000000Y-101100000D03*
X118000000Y-111700000D03*
X134000000Y-86300000D03*
X99600000Y-122000000D03*
X180500000Y-115000000D03*
X150300000Y-119600000D03*
X127700000Y-120800000D03*
X122800000Y-111100000D03*
X158900000Y-122000000D03*
X119700000Y-120800000D03*
X108900000Y-122000000D03*
X130700000Y-119600000D03*
X180700000Y-120200000D03*
X107700000Y-120200000D03*
X135900000Y-121400000D03*
X168900000Y-121400000D03*
X120300000Y-120200000D03*
X122600000Y-97500000D03*
X158900000Y-120800000D03*
X171300000Y-121400000D03*
X108900000Y-121400000D03*
X138900000Y-121400000D03*
X182900000Y-115900000D03*
X183300000Y-118200000D03*
X181200000Y-113200000D03*
X123200000Y-85600000D03*
X96300000Y-115000000D03*
X124400000Y-85600000D03*
X158800000Y-95300000D03*
X171900000Y-121400000D03*
X111900000Y-119600000D03*
X160100000Y-111500000D03*
X125500000Y-91900000D03*
X130400000Y-92500000D03*
X125500000Y-81700000D03*
X138900000Y-120200000D03*
X98800000Y-115400000D03*
X160100000Y-120200000D03*
X98800000Y-113700000D03*
X140100000Y-119600000D03*
X136500000Y-121400000D03*
X126700000Y-106700000D03*
X120400000Y-111100000D03*
X117300000Y-122000000D03*
X159500000Y-111100000D03*
X171900000Y-122000000D03*
X178900000Y-120800000D03*
X126100000Y-82300000D03*
X177900000Y-113000000D03*
X169500000Y-119600000D03*
X177100000Y-120800000D03*
X179900000Y-113000000D03*
X122600000Y-86200000D03*
X156500000Y-88700000D03*
X154600000Y-109200000D03*
X111300000Y-119600000D03*
X128900000Y-120800000D03*
X130000000Y-110500000D03*
X137700000Y-122000000D03*
X96900000Y-113100000D03*
X134600000Y-86300000D03*
X149700000Y-121400000D03*
X120200000Y-98100000D03*
X116100000Y-120200000D03*
X181900000Y-120200000D03*
X153900000Y-81000000D03*
X102600000Y-119300000D03*
X116100000Y-122000000D03*
X138800000Y-90200000D03*
X137700000Y-119600000D03*
X158200000Y-98300000D03*
X147200000Y-103500000D03*
X147900000Y-81000000D03*
X181800000Y-113100000D03*
X122000000Y-98700000D03*
X138300000Y-122000000D03*
X106500000Y-121400000D03*
X111900000Y-120800000D03*
X123800000Y-84300000D03*
X157600000Y-96500000D03*
X179900000Y-114400000D03*
X131900000Y-120800000D03*
X117300000Y-120200000D03*
X167100000Y-122000000D03*
X147300000Y-120800000D03*
X144900000Y-82000000D03*
X121400000Y-98700000D03*
X133275000Y-100750000D03*
X146700000Y-90300000D03*
X122600000Y-100500000D03*
X96000000Y-121400000D03*
X140700000Y-121400000D03*
X156500000Y-85700000D03*
X179500000Y-120800000D03*
X100200000Y-121400000D03*
X137900000Y-81700000D03*
X124000000Y-110500000D03*
X165900000Y-121400000D03*
X96900000Y-114400000D03*
X96600000Y-119600000D03*
X144100000Y-81000000D03*
X146700000Y-108000000D03*
X147200000Y-106500000D03*
X131600000Y-93100000D03*
X136500000Y-119600000D03*
X145500000Y-82600000D03*
X154600000Y-103800000D03*
X161300000Y-121400000D03*
X123100000Y-81700000D03*
X183300000Y-117600000D03*
X151900000Y-111400000D03*
X158300000Y-87500000D03*
X137900000Y-82900000D03*
X158300000Y-119600000D03*
X147900000Y-94200000D03*
X158300000Y-86900000D03*
X110700000Y-121400000D03*
X111900000Y-121400000D03*
X131000000Y-93700000D03*
X130100000Y-120800000D03*
X145600000Y-108000000D03*
X127000000Y-110500000D03*
X122800000Y-110500000D03*
X122000000Y-99900000D03*
X149700000Y-119600000D03*
X154600000Y-105600000D03*
X136600000Y-108600000D03*
X159300000Y-82800000D03*
X168300000Y-121400000D03*
X118800000Y-82600000D03*
X136500000Y-120800000D03*
X110100000Y-120200000D03*
X127700000Y-122000000D03*
X167700000Y-121400000D03*
X122000000Y-96900000D03*
X160100000Y-122000000D03*
X161300000Y-120200000D03*
X177100000Y-121400000D03*
X139500000Y-119600000D03*
X160100000Y-119600000D03*
X122600000Y-86800000D03*
X132900000Y-92500000D03*
X125500000Y-83500000D03*
X126700000Y-109100000D03*
X126400000Y-110500000D03*
X119000000Y-100500000D03*
X124400000Y-86200000D03*
X100800000Y-120200000D03*
X168900000Y-120800000D03*
X95400000Y-120200000D03*
X145500000Y-81000000D03*
X139500000Y-121400000D03*
X98800000Y-114800000D03*
X108300000Y-119600000D03*
X157100000Y-119600000D03*
X154600000Y-106200000D03*
X118800000Y-83700000D03*
X138900000Y-122000000D03*
X119600000Y-84900000D03*
X158300000Y-85700000D03*
X157600000Y-93500000D03*
X167700000Y-120200000D03*
X147900000Y-120800000D03*
X157700000Y-86900000D03*
X156500000Y-88100000D03*
X157100000Y-120800000D03*
X147700000Y-111400000D03*
X119700000Y-81200000D03*
X138300000Y-120200000D03*
X169500000Y-121400000D03*
X157600000Y-97100000D03*
X120800000Y-99900000D03*
X135300000Y-88500000D03*
X124600000Y-111100000D03*
X127700000Y-85300000D03*
X178300000Y-120800000D03*
X150900000Y-121400000D03*
X117400000Y-112300000D03*
X157600000Y-97700000D03*
X100200000Y-120800000D03*
X122100000Y-120800000D03*
X144900000Y-83800000D03*
X144900000Y-89100000D03*
X179500000Y-119100000D03*
X122600000Y-98700000D03*
X165900000Y-120800000D03*
X175900000Y-121400000D03*
X126700000Y-88300000D03*
X125800000Y-111100000D03*
X126100000Y-81700000D03*
X100200000Y-119600000D03*
X128800000Y-110500000D03*
X157600000Y-98300000D03*
X168300000Y-119600000D03*
X140700000Y-120800000D03*
X128025000Y-100600000D03*
X126400000Y-111100000D03*
X106500000Y-119600000D03*
X125500000Y-93100000D03*
X138200000Y-89600000D03*
X137300000Y-82300000D03*
X130700000Y-120800000D03*
X126500000Y-120800000D03*
X131300000Y-119600000D03*
X175900000Y-120800000D03*
X147300000Y-81000000D03*
X137300000Y-82900000D03*
X133500000Y-92500000D03*
X154600000Y-104400000D03*
X169500000Y-122000000D03*
X145500000Y-83200000D03*
X130100000Y-121400000D03*
X147900000Y-93600000D03*
X124000000Y-111100000D03*
X120800000Y-97500000D03*
X121400000Y-101100000D03*
X137100000Y-85600000D03*
X151500000Y-119600000D03*
X119100000Y-120800000D03*
X138900000Y-120800000D03*
X110100000Y-122000000D03*
X151500000Y-121400000D03*
X135200000Y-93100000D03*
X149700000Y-120200000D03*
X158900000Y-120200000D03*
X146700000Y-120800000D03*
X179300000Y-114400000D03*
X181300000Y-121400000D03*
X128300000Y-119600000D03*
X136400000Y-90200000D03*
X119200000Y-112300000D03*
X116100000Y-120800000D03*
X125500000Y-91300000D03*
X157600000Y-95300000D03*
X122000000Y-97500000D03*
X120200000Y-85100000D03*
X125500000Y-90700000D03*
X172500000Y-119600000D03*
X122500000Y-81100000D03*
X105300000Y-119600000D03*
X146100000Y-120200000D03*
X108300000Y-122000000D03*
X129400000Y-109900000D03*
X105900000Y-122000000D03*
X127000000Y-111100000D03*
X154500000Y-111400000D03*
X125500000Y-81100000D03*
X138300000Y-119600000D03*
X97500000Y-113800000D03*
X137100000Y-120200000D03*
X120300000Y-122000000D03*
X136000000Y-107900000D03*
X139400000Y-89600000D03*
X99600000Y-119600000D03*
X96000000Y-122000000D03*
X157700000Y-88100000D03*
X156300000Y-112000000D03*
X102000000Y-120800000D03*
X95400000Y-120800000D03*
X150300000Y-81000000D03*
X181100000Y-115000000D03*
X119600000Y-99900000D03*
X157700000Y-87500000D03*
X158300000Y-122000000D03*
X126700000Y-90700000D03*
X95700000Y-113800000D03*
X139400000Y-90800000D03*
X140000000Y-90800000D03*
X145500000Y-84400000D03*
X128300000Y-120200000D03*
X96600000Y-122000000D03*
X181100000Y-113800000D03*
X144900000Y-90300000D03*
X136400000Y-89600000D03*
X151300000Y-111400000D03*
X128200000Y-111100000D03*
X119000000Y-96900000D03*
X159600000Y-112300000D03*
X121400000Y-99900000D03*
X121600000Y-111100000D03*
X158300000Y-85100000D03*
X122100000Y-121400000D03*
X97800000Y-119600000D03*
X131600000Y-84000000D03*
X129500000Y-119600000D03*
X157100000Y-88700000D03*
X131900000Y-120200000D03*
X118500000Y-122000000D03*
X175300000Y-119600000D03*
X144900000Y-89700000D03*
X117900000Y-119600000D03*
X181900000Y-119600000D03*
X97200000Y-120800000D03*
X164900000Y-119300000D03*
X140100000Y-120800000D03*
X161900000Y-121400000D03*
X122100000Y-122000000D03*
X159500000Y-119600000D03*
X137100000Y-119600000D03*
X126100000Y-92500000D03*
X179500000Y-119600000D03*
X156500000Y-86300000D03*
X125800000Y-109900000D03*
X148900000Y-111400000D03*
X119000000Y-97500000D03*
X118600000Y-111100000D03*
X119200000Y-111100000D03*
X119200000Y-110500000D03*
X100200000Y-120200000D03*
X182500000Y-120200000D03*
X124400000Y-82300000D03*
X155100000Y-119300000D03*
X141300000Y-121400000D03*
X165900000Y-119600000D03*
X127700000Y-121400000D03*
X148300000Y-111400000D03*
X100800000Y-119600000D03*
X123200000Y-86200000D03*
X126700000Y-106100000D03*
X122600000Y-98100000D03*
X178500000Y-113000000D03*
X131693023Y-95068023D03*
X167700000Y-120800000D03*
X125200000Y-109900000D03*
X180600000Y-113000000D03*
X157100000Y-85200000D03*
X135900000Y-120800000D03*
X119600000Y-98700000D03*
X149200000Y-97700000D03*
X108900000Y-120800000D03*
X151500000Y-122000000D03*
X131300000Y-120800000D03*
X120800000Y-99300000D03*
X183300000Y-120000000D03*
X157100000Y-88100000D03*
X171300000Y-122000000D03*
X120900000Y-120200000D03*
X179300000Y-113800000D03*
X154600000Y-107400000D03*
X166500000Y-122000000D03*
X155700000Y-81000000D03*
X141900000Y-119600000D03*
X155100000Y-81000000D03*
X120400000Y-111700000D03*
X148600000Y-96500000D03*
X113100000Y-119300000D03*
X127600000Y-87100000D03*
X107700000Y-119600000D03*
X126400000Y-109900000D03*
X119700000Y-119600000D03*
X125500000Y-85300000D03*
X107700000Y-120800000D03*
X158900000Y-85100000D03*
X152100000Y-121400000D03*
X126700000Y-107300000D03*
X97500000Y-114400000D03*
X95400000Y-121400000D03*
X137200000Y-108600000D03*
X159500000Y-111700000D03*
X137100000Y-121400000D03*
X100800000Y-121400000D03*
X183300000Y-118800000D03*
X125500000Y-85900000D03*
X141300000Y-122000000D03*
X116700000Y-122000000D03*
X120400000Y-110500000D03*
X170700000Y-121400000D03*
X119800000Y-111100000D03*
X177700000Y-122000000D03*
X146700000Y-81000000D03*
X110700000Y-119600000D03*
X109500000Y-120800000D03*
X100200000Y-122000000D03*
X99400000Y-113100000D03*
X149100000Y-120800000D03*
X147900000Y-92400000D03*
X150300000Y-120200000D03*
X124400000Y-86800000D03*
X178300000Y-121400000D03*
X171300000Y-120800000D03*
X132900000Y-93100000D03*
X126100000Y-91300000D03*
X122600000Y-96900000D03*
X162500000Y-119300000D03*
X157700000Y-122000000D03*
X118500000Y-120200000D03*
X97200000Y-120200000D03*
X122600000Y-84900000D03*
X120900000Y-121400000D03*
X156800000Y-80800000D03*
X147900000Y-119600000D03*
X125200000Y-111100000D03*
X126100000Y-83500000D03*
X94700000Y-115700000D03*
X176500000Y-119600000D03*
X165900000Y-120200000D03*
X131900000Y-119600000D03*
X130700000Y-121400000D03*
X119100000Y-121400000D03*
X146700000Y-119600000D03*
X150900000Y-120800000D03*
X127700000Y-120200000D03*
X96200000Y-113200000D03*
X150100000Y-111400000D03*
X101400000Y-122000000D03*
X97800000Y-120800000D03*
X119100000Y-119600000D03*
X130600000Y-111100000D03*
X125900000Y-119600000D03*
X128900000Y-122000000D03*
X108300000Y-120200000D03*
X140100000Y-122000000D03*
X149100000Y-122000000D03*
X131800000Y-110500000D03*
X158900000Y-121400000D03*
X123200000Y-86800000D03*
X178300000Y-122000000D03*
X148500000Y-120800000D03*
X128800000Y-109900000D03*
X110700000Y-122000000D03*
X130700000Y-120200000D03*
X120200000Y-101100000D03*
X179300000Y-115600000D03*
X137600000Y-89600000D03*
X144900000Y-88500000D03*
X119700000Y-122000000D03*
X119000000Y-84300000D03*
X134000000Y-85700000D03*
X121500000Y-120800000D03*
X130600000Y-86300000D03*
X123400000Y-111100000D03*
X161300000Y-119600000D03*
X125900000Y-121400000D03*
X125500000Y-92500000D03*
X157700000Y-121400000D03*
X158200000Y-95300000D03*
X119200000Y-111700000D03*
X117300000Y-120800000D03*
X180700000Y-122000000D03*
X182500000Y-119600000D03*
X169500000Y-120200000D03*
X122200000Y-112300000D03*
X105900000Y-121400000D03*
X116700000Y-120200000D03*
X121400000Y-100500000D03*
X120900000Y-122000000D03*
X141900000Y-122000000D03*
X135400000Y-108600000D03*
X147900000Y-122000000D03*
X124400000Y-87400000D03*
X156500000Y-86900000D03*
X123800000Y-87400000D03*
X156500000Y-85200000D03*
X126100000Y-91900000D03*
X122000000Y-99300000D03*
X99000000Y-120800000D03*
X96000000Y-120200000D03*
X148500000Y-93000000D03*
X158200000Y-97100000D03*
X171300000Y-120200000D03*
X123800000Y-84900000D03*
X123100000Y-81100000D03*
X158800000Y-94700000D03*
X144900000Y-83200000D03*
X183300000Y-116400000D03*
X121400000Y-99300000D03*
X140000000Y-90200000D03*
X144900000Y-119300000D03*
X124600000Y-110500000D03*
X130100000Y-84000000D03*
X181700000Y-113800000D03*
X102000000Y-120200000D03*
X129500000Y-122000000D03*
X101400000Y-120800000D03*
X182900000Y-115300000D03*
X178300000Y-120200000D03*
X129500000Y-120800000D03*
X120200000Y-99900000D03*
X138800000Y-89600000D03*
X125500000Y-86500000D03*
X132600000Y-86400000D03*
X157700000Y-88700000D03*
X126100000Y-87700000D03*
X140700000Y-120200000D03*
X127700000Y-85900000D03*
X139500000Y-122000000D03*
X125800000Y-110500000D03*
X119000000Y-99900000D03*
X146100000Y-121400000D03*
X180100000Y-120800000D03*
X152100000Y-120800000D03*
X166500000Y-120800000D03*
X117300000Y-119600000D03*
X120800000Y-100500000D03*
X95700000Y-114400000D03*
X155900000Y-121400000D03*
X158300000Y-88700000D03*
X94700000Y-118100000D03*
X123800000Y-85600000D03*
X144900000Y-84400000D03*
X152500000Y-111400000D03*
X137300000Y-83500000D03*
X121500000Y-120200000D03*
X129400000Y-111100000D03*
X123400000Y-111700000D03*
X168300000Y-120200000D03*
X101400000Y-119600000D03*
X137700000Y-120200000D03*
X146100000Y-91500000D03*
X137900000Y-83500000D03*
X122600000Y-101100000D03*
X137700000Y-85800000D03*
X106500000Y-120200000D03*
X102000000Y-121400000D03*
X119600000Y-96900000D03*
X109500000Y-121400000D03*
X128900000Y-121400000D03*
X168900000Y-120200000D03*
X122600000Y-99300000D03*
X94700000Y-120500000D03*
X177700000Y-121400000D03*
X127100000Y-121400000D03*
X123700000Y-82300000D03*
X147900000Y-93000000D03*
X170100000Y-120800000D03*
X182500000Y-120800000D03*
X135900000Y-87900000D03*
X128200000Y-109900000D03*
X119000000Y-98700000D03*
X152100000Y-81000000D03*
X122700000Y-119400000D03*
X125500000Y-84700000D03*
X107100000Y-120800000D03*
X137900000Y-81100000D03*
X120300000Y-121400000D03*
X100800000Y-122000000D03*
X135900000Y-122000000D03*
X144900000Y-86000000D03*
X160700000Y-122000000D03*
X149200000Y-97100000D03*
X123200000Y-84300000D03*
X119000000Y-99300000D03*
X180500000Y-114400000D03*
X140100000Y-120200000D03*
X101400000Y-121400000D03*
X180100000Y-120200000D03*
X98800000Y-116000000D03*
X127600000Y-110500000D03*
X96900000Y-115000000D03*
X158300000Y-120800000D03*
X180700000Y-121400000D03*
X147300000Y-119600000D03*
X140700000Y-119600000D03*
X155700000Y-112000000D03*
X127000000Y-109900000D03*
X139500000Y-120800000D03*
X159200000Y-84000000D03*
X100000000Y-113100000D03*
X122000000Y-80700000D03*
X146700000Y-91500000D03*
X158300000Y-88100000D03*
X145600000Y-106300000D03*
X157700000Y-85100000D03*
X126100000Y-82900000D03*
X180100000Y-121400000D03*
X167700000Y-119600000D03*
X126500000Y-119600000D03*
X177700000Y-120200000D03*
X126700000Y-105500000D03*
X167100000Y-121400000D03*
X158800000Y-94100000D03*
X97500000Y-115000000D03*
X182200000Y-113700000D03*
X124400000Y-81700000D03*
X153300000Y-81000000D03*
X126500000Y-120200000D03*
X157700000Y-120800000D03*
X98800000Y-114200000D03*
X94700000Y-119900000D03*
X158900000Y-111100000D03*
X182300000Y-115600000D03*
X163100000Y-119300000D03*
X119600000Y-100500000D03*
X158300000Y-121400000D03*
X138900000Y-119600000D03*
X158200000Y-94100000D03*
X111300000Y-122000000D03*
X170100000Y-120200000D03*
X122800000Y-111700000D03*
X166500000Y-119600000D03*
X111300000Y-120200000D03*
X126100000Y-90700000D03*
X98400000Y-120200000D03*
X121600000Y-112300000D03*
X145500000Y-91500000D03*
X145500000Y-89700000D03*
X148500000Y-119600000D03*
X125900000Y-120200000D03*
X137000000Y-90800000D03*
X122000000Y-85000000D03*
X119100000Y-122000000D03*
X151500000Y-120200000D03*
X123700000Y-81700000D03*
X100800000Y-120800000D03*
X156500000Y-119600000D03*
X152700000Y-119300000D03*
X179900000Y-115000000D03*
X147900000Y-120200000D03*
X179500000Y-122000000D03*
X118600000Y-112300000D03*
X149700000Y-81000000D03*
X179300000Y-115000000D03*
X183000000Y-120600000D03*
X161900000Y-120800000D03*
X147900000Y-121400000D03*
X107700000Y-122000000D03*
X123200000Y-84900000D03*
X98400000Y-120800000D03*
X130000000Y-111100000D03*
X181900000Y-120800000D03*
X146700000Y-122000000D03*
X145500000Y-82000000D03*
X146700000Y-121400000D03*
X178900000Y-122000000D03*
X179200000Y-113000000D03*
X94700000Y-116900000D03*
X157100000Y-121400000D03*
X105900000Y-119600000D03*
X121000000Y-112300000D03*
X149100000Y-120200000D03*
X122000000Y-100500000D03*
X158300000Y-111100000D03*
X98400000Y-119600000D03*
X137100000Y-86300000D03*
X94700000Y-117500000D03*
X158800000Y-93500000D03*
X137100000Y-120800000D03*
X106500000Y-120800000D03*
X156500000Y-120200000D03*
X182300000Y-113200000D03*
X98100000Y-115600000D03*
X121000000Y-110500000D03*
X128200000Y-110500000D03*
X176500000Y-120200000D03*
X155900000Y-88700000D03*
X183300000Y-117000000D03*
X177700000Y-120800000D03*
X165900000Y-122000000D03*
X178900000Y-121400000D03*
X139400000Y-90200000D03*
X128300000Y-122000000D03*
X111300000Y-121400000D03*
X155300000Y-88700000D03*
X126700000Y-87100000D03*
X148500000Y-94200000D03*
X177700000Y-119600000D03*
X182600000Y-121500000D03*
X129500000Y-120200000D03*
X141900000Y-121400000D03*
X125500000Y-88900000D03*
X117900000Y-120200000D03*
X127700000Y-119600000D03*
X119700000Y-120200000D03*
X106500000Y-122000000D03*
X120900000Y-119600000D03*
X120200000Y-99300000D03*
X169500000Y-120800000D03*
X126700000Y-107900000D03*
X124400000Y-84900000D03*
X146700000Y-120200000D03*
X97200000Y-119600000D03*
X167700000Y-122000000D03*
X118000000Y-112300000D03*
X157700000Y-119600000D03*
X124400000Y-83500000D03*
X137000000Y-89600000D03*
X116100000Y-119600000D03*
X127100000Y-119600000D03*
X137300000Y-81700000D03*
X129500000Y-121400000D03*
X154600000Y-108000000D03*
X137600000Y-90800000D03*
X146100000Y-81000000D03*
X119600000Y-97500000D03*
X109500000Y-120200000D03*
X141300000Y-120200000D03*
X149100000Y-121400000D03*
X126100000Y-81100000D03*
X140000000Y-89600000D03*
X122600000Y-87400000D03*
X107100000Y-122000000D03*
X125100000Y-119400000D03*
X97600000Y-113100000D03*
X118500000Y-121400000D03*
X168300000Y-122000000D03*
X97200000Y-122000000D03*
X119300000Y-81600000D03*
X96900000Y-113800000D03*
X136600000Y-107900000D03*
X157100000Y-122000000D03*
X182300000Y-115000000D03*
X180500000Y-113800000D03*
X95700000Y-115000000D03*
X152700000Y-81000000D03*
X157100000Y-85700000D03*
X122200000Y-111700000D03*
X157100000Y-120200000D03*
X138200000Y-90200000D03*
X170700000Y-119600000D03*
X170700000Y-122000000D03*
X161900000Y-120200000D03*
X160700000Y-112000000D03*
X121600000Y-110500000D03*
X126500000Y-121400000D03*
X117900000Y-120800000D03*
X181700000Y-114400000D03*
X99000000Y-120200000D03*
X176500000Y-121400000D03*
X120800000Y-101100000D03*
X123200000Y-87400000D03*
X146100000Y-120800000D03*
X102000000Y-122000000D03*
X148500000Y-92400000D03*
X139500000Y-120200000D03*
X181700000Y-115000000D03*
X96600000Y-120200000D03*
X179500000Y-121400000D03*
X137900000Y-82300000D03*
X119000000Y-101100000D03*
X160700000Y-119600000D03*
X125900000Y-120800000D03*
X137700000Y-120800000D03*
X180100000Y-119600000D03*
X105900000Y-120200000D03*
X143500000Y-81000000D03*
X121400000Y-97500000D03*
X157100000Y-86900000D03*
X121000000Y-111700000D03*
X98400000Y-122000000D03*
X145500000Y-89100000D03*
X167100000Y-119600000D03*
X179900000Y-113800000D03*
X158400000Y-81300000D03*
X135900000Y-119600000D03*
X158900000Y-111700000D03*
X131300000Y-120200000D03*
X148500000Y-122000000D03*
X149700000Y-120800000D03*
X112500000Y-119300000D03*
X140700000Y-122000000D03*
X134000000Y-85100000D03*
X132500000Y-109900000D03*
X150900000Y-120200000D03*
X144900000Y-87900000D03*
X127100000Y-122000000D03*
X157100000Y-87500000D03*
X170700000Y-120200000D03*
X150900000Y-119600000D03*
X119800000Y-112300000D03*
X120900000Y-120800000D03*
X98100000Y-113800000D03*
X160700000Y-120800000D03*
X110100000Y-119600000D03*
X156200000Y-80800000D03*
X122200000Y-110500000D03*
X146100000Y-122000000D03*
X120300000Y-120800000D03*
X158900000Y-84500000D03*
X170700000Y-120800000D03*
X160700000Y-120200000D03*
X116700000Y-121400000D03*
X158900000Y-87500000D03*
X138300000Y-120800000D03*
X99600000Y-121400000D03*
X181300000Y-120800000D03*
X97800000Y-122000000D03*
X175900000Y-122000000D03*
X147300000Y-121400000D03*
X98100000Y-114400000D03*
X150300000Y-120800000D03*
X146100000Y-119600000D03*
X122600000Y-85600000D03*
X171900000Y-120200000D03*
X148500000Y-121400000D03*
X171900000Y-120800000D03*
X151500000Y-81000000D03*
X158900000Y-88100000D03*
X130000000Y-86300000D03*
X123700000Y-82900000D03*
X131200000Y-86300000D03*
X98800000Y-119000000D03*
X108300000Y-121400000D03*
X108900000Y-119600000D03*
X127100000Y-120200000D03*
X110700000Y-120800000D03*
X122600000Y-99900000D03*
X152100000Y-119600000D03*
X136000000Y-108600000D03*
X129400000Y-110500000D03*
X125200000Y-110500000D03*
X131900000Y-121400000D03*
X158900000Y-85700000D03*
X131300000Y-121400000D03*
X119600000Y-101100000D03*
X98800000Y-113100000D03*
X157400000Y-80800000D03*
X176500000Y-122000000D03*
X155900000Y-120200000D03*
X182800000Y-114700000D03*
X155100000Y-112000000D03*
X182600000Y-119000000D03*
X126700000Y-108500000D03*
X183300000Y-114900000D03*
X146100000Y-90900000D03*
X126100000Y-88900000D03*
X148600000Y-97700000D03*
X130400000Y-93100000D03*
X160700000Y-121400000D03*
X158200000Y-93500000D03*
X130100000Y-122000000D03*
X95100000Y-114400000D03*
X136400000Y-90800000D03*
X149500000Y-111400000D03*
X125500000Y-88300000D03*
X96300000Y-114400000D03*
X171300000Y-119600000D03*
X145500000Y-83800000D03*
X109500000Y-122000000D03*
X128900000Y-119600000D03*
X145500000Y-90900000D03*
X97800000Y-121400000D03*
X120200000Y-97500000D03*
X144900000Y-81000000D03*
X159500000Y-121400000D03*
X119000000Y-98100000D03*
X103200000Y-119300000D03*
X120200000Y-100500000D03*
X132500000Y-110500000D03*
X111300000Y-120800000D03*
X170100000Y-122000000D03*
X99600000Y-120200000D03*
X111900000Y-122000000D03*
X166500000Y-121400000D03*
X121500000Y-119600000D03*
X118800000Y-83100000D03*
X102000000Y-119600000D03*
X161900000Y-122000000D03*
X127600000Y-111100000D03*
X136500000Y-120200000D03*
X157600000Y-94100000D03*
X154600000Y-105000000D03*
X180700000Y-120800000D03*
X177100000Y-120200000D03*
X158800000Y-97700000D03*
X138800000Y-90800000D03*
X159500000Y-120200000D03*
X149100000Y-81000000D03*
X141300000Y-119600000D03*
X96600000Y-121400000D03*
X158200000Y-96500000D03*
X125500000Y-82900000D03*
X159500000Y-122000000D03*
X178900000Y-119600000D03*
X107100000Y-121400000D03*
X130100000Y-120200000D03*
X143100000Y-119300000D03*
X161200000Y-112300000D03*
X150900000Y-81000000D03*
X122000000Y-98100000D03*
X110100000Y-120800000D03*
X99000000Y-122000000D03*
X149700000Y-122000000D03*
X147300000Y-108000000D03*
X125500000Y-84100000D03*
X120800000Y-98100000D03*
X101400000Y-120200000D03*
X137000000Y-90200000D03*
X98400000Y-121400000D03*
X161300000Y-122000000D03*
X126500000Y-122000000D03*
X135800000Y-93100000D03*
X110100000Y-121400000D03*
X141900000Y-120800000D03*
X158300000Y-86300000D03*
X168900000Y-122000000D03*
X128900000Y-120200000D03*
X157600000Y-94700000D03*
X128800000Y-111100000D03*
X135400000Y-107900000D03*
X94700000Y-119300000D03*
X155900000Y-122000000D03*
X111900000Y-120200000D03*
X183300000Y-119400000D03*
X137600000Y-90200000D03*
X96300000Y-113800000D03*
X158800000Y-97100000D03*
X177100000Y-122000000D03*
X158900000Y-88700000D03*
X127600000Y-109900000D03*
X95700000Y-115600000D03*
X157700000Y-85700000D03*
X128300000Y-120800000D03*
X130700000Y-122000000D03*
X148500000Y-120200000D03*
X138200000Y-107900000D03*
X156500000Y-121400000D03*
X156500000Y-87500000D03*
X125500000Y-87700000D03*
X167100000Y-120200000D03*
X126100000Y-88300000D03*
X168300000Y-120800000D03*
X153700000Y-111400000D03*
X146600000Y-106300000D03*
X105900000Y-120800000D03*
X131800000Y-111100000D03*
X181300000Y-122000000D03*
X96000000Y-120800000D03*
X158200000Y-97700000D03*
X135900000Y-120200000D03*
X123400000Y-110500000D03*
X155900000Y-119600000D03*
X99600000Y-120800000D03*
X141900000Y-120200000D03*
X147200000Y-104100000D03*
X119600000Y-98100000D03*
X148500000Y-81000000D03*
X180100000Y-122000000D03*
X107700000Y-121400000D03*
X96000000Y-119600000D03*
X157100000Y-86300000D03*
X107100000Y-120200000D03*
X158200000Y-95900000D03*
X121400000Y-96900000D03*
X120200000Y-80900000D03*
X161900000Y-119600000D03*
X118500000Y-119600000D03*
X137300000Y-81100000D03*
X150300000Y-121400000D03*
X110700000Y-120200000D03*
X148600000Y-97100000D03*
X116700000Y-120800000D03*
X180700000Y-119700000D03*
X142500000Y-119300000D03*
X178900000Y-119000000D03*
X136500000Y-122000000D03*
X124400000Y-82900000D03*
X158200000Y-94700000D03*
X123700000Y-81100000D03*
X182200000Y-121900000D03*
X126700000Y-87700000D03*
X120400000Y-112300000D03*
X98200000Y-113100000D03*
X160200000Y-112300000D03*
X179500000Y-120200000D03*
X117300000Y-121400000D03*
X181900000Y-121400000D03*
X145500000Y-90300000D03*
X175900000Y-120200000D03*
X94700000Y-116300000D03*
X160100000Y-121400000D03*
X159200000Y-83400000D03*
X137100000Y-122000000D03*
X130400000Y-93700000D03*
X154600000Y-108600000D03*
X107100000Y-119600000D03*
X152100000Y-122000000D03*
X170100000Y-119600000D03*
X126700000Y-91300000D03*
X158800000Y-81700000D03*
X120200000Y-98700000D03*
X161300000Y-120800000D03*
X108900000Y-120200000D03*
X148500000Y-93600000D03*
X122100000Y-119600000D03*
X130400000Y-94300000D03*
X96600000Y-120800000D03*
X131000000Y-92500000D03*
X144900000Y-82600000D03*
X119100000Y-120200000D03*
X149200000Y-96500000D03*
X117900000Y-121400000D03*
X125500000Y-87100000D03*
X158800000Y-95900000D03*
X108300000Y-120800000D03*
X123100000Y-82300000D03*
X147300000Y-120200000D03*
X95700000Y-113200000D03*
X116100000Y-121400000D03*
X121400000Y-98100000D03*
X131900000Y-122000000D03*
X97200000Y-121400000D03*
X127700000Y-84700000D03*
X178300000Y-119600000D03*
X121000000Y-111100000D03*
X179000000Y-118400000D03*
X122100000Y-120200000D03*
X156500000Y-122000000D03*
X127600000Y-87700000D03*
X124400000Y-84300000D03*
X95100000Y-113800000D03*
X154500000Y-81000000D03*
X166500000Y-120200000D03*
X155900000Y-120800000D03*
X153275000Y-107550000D03*
X120800000Y-98700000D03*
X159500000Y-120800000D03*
X181300000Y-120200000D03*
X119600000Y-99300000D03*
X160100000Y-120800000D03*
%TO.N,RESET*%
X146175000Y-84400000D03*
X132425000Y-91350000D03*
%TO.N,TX*%
X145325000Y-86700000D03*
X128900000Y-87125000D03*
%TO.N,RX*%
X145425000Y-87350000D03*
X134574500Y-87600000D03*
%TO.N,Net-(J1-Pin_1)*%
X143925497Y-102750000D03*
%TO.N,Net-(J2-Pin_1)*%
X144525000Y-102750000D03*
%TO.N,Net-(J3-Pin_1)*%
X145150000Y-102800000D03*
%TO.N,Net-(J4-Pin_1)*%
X143200000Y-102775000D03*
%TO.N,Net-(J14-Pin_1)*%
X140425000Y-110100000D03*
%TO.N,Net-(J17-Pin_1)*%
X140425000Y-110800000D03*
%TO.N,MAX_SDO*%
X147925000Y-105700000D03*
X141075000Y-94150000D03*
%TO.N,MAX_SCK*%
X147925000Y-106400000D03*
X135280500Y-95128083D03*
%TO.N,MAX_SDI*%
X134029500Y-97350000D03*
X147925000Y-105100000D03*
%TO.N,LED*%
X137975000Y-88050000D03*
X135525000Y-92500000D03*
%TO.N,T+MUX*%
X140425000Y-108800000D03*
%TO.N,T-MUX*%
X137275000Y-107850000D03*
%TO.N,SD_CS*%
X135475000Y-94450000D03*
%TO.N,SD_CD*%
X129775000Y-92850000D03*
%TO.N,MUX_C*%
X143425000Y-100900497D03*
X132275000Y-103000000D03*
X135025000Y-103050000D03*
%TO.N,MUX_B*%
X135675000Y-103050000D03*
X143425000Y-101500000D03*
X130825000Y-109450000D03*
%TO.N,MUX_A*%
X143425000Y-102100000D03*
X136325000Y-103050000D03*
X130825000Y-110049503D03*
%TO.N,MAX_DRDY*%
X129225000Y-90150000D03*
X144625000Y-107700000D03*
%TO.N,MAX_CS*%
X148075000Y-107000000D03*
X132725000Y-102050000D03*
%TO.N,MAX_FAULT*%
X130925000Y-91825000D03*
X147975000Y-104400000D03*
D15*
%TO.N,Net-(#FLG02-pwr)*%
X157275000Y-102000000D03*
D14*
%TO.N,Net-(J19-Pin_1)*%
X140475000Y-111450000D03*
%TD*%
D16*
%TO.N,RESET*%
X121300000Y-107455000D02*
X121300000Y-102400000D01*
X120000000Y-108755000D02*
X121300000Y-107455000D01*
X121868248Y-101831752D02*
X124068248Y-101831752D01*
X121300000Y-102400000D02*
X121868248Y-101831752D01*
X132425000Y-93475000D02*
X132425000Y-91350000D01*
X124068248Y-101831752D02*
X132425000Y-93475000D01*
%TO.N,Net-(J1-Pin_1)*%
X128705026Y-113300000D02*
X129130026Y-112875000D01*
X129130026Y-112875000D02*
X134660052Y-112875000D01*
X119200000Y-113300000D02*
X128705026Y-113300000D01*
X134660052Y-112875000D02*
X143925497Y-103609555D01*
X143925497Y-103609555D02*
X143925497Y-102750000D01*
X116500000Y-116000000D02*
X119200000Y-113300000D01*
%TO.N,Net-(J2-Pin_1)*%
X134805027Y-113225000D02*
X144525000Y-103505027D01*
X126500000Y-116000000D02*
X129275000Y-113225000D01*
X144525000Y-103505027D02*
X144525000Y-102750000D01*
X129275000Y-113225000D02*
X134805027Y-113225000D01*
%TO.N,Net-(J3-Pin_1)*%
X136500000Y-112025000D02*
X145150000Y-103375000D01*
X136500000Y-116000000D02*
X136500000Y-112025000D01*
X145150000Y-103375000D02*
X145150000Y-102800000D01*
%TO.N,Net-(J4-Pin_1)*%
X134515078Y-112525000D02*
X128985051Y-112525000D01*
X143200000Y-103840078D02*
X134515078Y-112525000D01*
X109550000Y-112950000D02*
X106500000Y-116000000D01*
X128985051Y-112525000D02*
X128560052Y-112950000D01*
X143200000Y-102775000D02*
X143200000Y-103840078D01*
X128560052Y-112950000D02*
X109550000Y-112950000D01*
%TO.N,Net-(J14-Pin_1)*%
X156210000Y-110100000D02*
X140425000Y-110100000D01*
X169225000Y-113725000D02*
X159835000Y-113725000D01*
X171500000Y-116000000D02*
X169225000Y-113725000D01*
X159835000Y-113725000D02*
X156210000Y-110100000D01*
%TO.N,Net-(J17-Pin_1)*%
X156300000Y-110800000D02*
X140425000Y-110800000D01*
X161500000Y-116000000D02*
X156300000Y-110800000D01*
%TO.N,MUX_C*%
X142875000Y-101250000D02*
X143224503Y-100900497D01*
X135025000Y-103050000D02*
X135025000Y-103028248D01*
X143224503Y-100900497D02*
X143425000Y-100900497D01*
X135025000Y-103028248D02*
X136803248Y-101250000D01*
X136803248Y-101250000D02*
X142875000Y-101250000D01*
%TO.N,MUX_B*%
X135675000Y-103050000D02*
X135675000Y-103028248D01*
X137103248Y-101600000D02*
X143325000Y-101600000D01*
X135675000Y-103028248D02*
X137103248Y-101600000D01*
X143325000Y-101600000D02*
X143425000Y-101500000D01*
%TO.N,MUX_A*%
X136325000Y-103050000D02*
X139396752Y-103050000D01*
X140346752Y-102100000D02*
X143425000Y-102100000D01*
X139396752Y-103050000D02*
X140346752Y-102100000D01*
%TO.N,Net-(J19-Pin_1)*%
X151500000Y-116000000D02*
X146950000Y-111450000D01*
X146950000Y-111450000D02*
X140475000Y-111450000D01*
%TD*%
%TA.AperFunction,Conductor*%
%TO.N,GND*%
G36*
X157003243Y-80000669D02*
G01*
X157133379Y-80007490D01*
X157313908Y-80017628D01*
X157326309Y-80018955D01*
X157474990Y-80042504D01*
X157476245Y-80042709D01*
X157635324Y-80069738D01*
X157646606Y-80072202D01*
X157795635Y-80112134D01*
X157797761Y-80112725D01*
X157949174Y-80156347D01*
X157959260Y-80159729D01*
X158104710Y-80215562D01*
X158107599Y-80216714D01*
X158251768Y-80276430D01*
X158260594Y-80280500D01*
X158400064Y-80351565D01*
X158403748Y-80353521D01*
X158493848Y-80403316D01*
X158539548Y-80428574D01*
X158547061Y-80433081D01*
X158678754Y-80518604D01*
X158682947Y-80521452D01*
X158809147Y-80610996D01*
X158815428Y-80615759D01*
X158937567Y-80714665D01*
X158942158Y-80718571D01*
X159057424Y-80821579D01*
X159062478Y-80826358D01*
X159173640Y-80937520D01*
X159178419Y-80942574D01*
X159281427Y-81057840D01*
X159285333Y-81062431D01*
X159384239Y-81184570D01*
X159389002Y-81190851D01*
X159478546Y-81317051D01*
X159481409Y-81321266D01*
X159566907Y-81452921D01*
X159571430Y-81460460D01*
X159646477Y-81596250D01*
X159648433Y-81599934D01*
X159719498Y-81739404D01*
X159723575Y-81748247D01*
X159783259Y-81892337D01*
X159784462Y-81895353D01*
X159840265Y-82040727D01*
X159843655Y-82050836D01*
X159887258Y-82202185D01*
X159887879Y-82204419D01*
X159927791Y-82353370D01*
X159930264Y-82364694D01*
X159957282Y-82523715D01*
X159957507Y-82525087D01*
X159981040Y-82673666D01*
X159982372Y-82686111D01*
X159992498Y-82866421D01*
X159992523Y-82866884D01*
X159999330Y-82996757D01*
X159999500Y-83003245D01*
X159999500Y-108999500D01*
X159999500Y-109000000D01*
X159999500Y-109157250D01*
X159999837Y-109160460D01*
X159999838Y-109160471D01*
X160032033Y-109466789D01*
X160032035Y-109466803D01*
X160032374Y-109470026D01*
X160033049Y-109473205D01*
X160033051Y-109473213D01*
X160097087Y-109774480D01*
X160097090Y-109774493D01*
X160097762Y-109777652D01*
X160098762Y-109780731D01*
X160098763Y-109780733D01*
X160120382Y-109847269D01*
X160194947Y-110076759D01*
X160322866Y-110364068D01*
X160324484Y-110366872D01*
X160324491Y-110366884D01*
X160478489Y-110633617D01*
X160478495Y-110633627D01*
X160480115Y-110636432D01*
X160482026Y-110639062D01*
X160663065Y-110888242D01*
X160663073Y-110888251D01*
X160664973Y-110890867D01*
X160875414Y-111124586D01*
X161109133Y-111335027D01*
X161111750Y-111336928D01*
X161111757Y-111336934D01*
X161235236Y-111426646D01*
X161363568Y-111519885D01*
X161366377Y-111521506D01*
X161366382Y-111521510D01*
X161633115Y-111675508D01*
X161633120Y-111675510D01*
X161635932Y-111677134D01*
X161923241Y-111805053D01*
X162222348Y-111902238D01*
X162529974Y-111967626D01*
X162842750Y-112000500D01*
X162845992Y-112000500D01*
X162999901Y-112000500D01*
X180996792Y-112000501D01*
X181003205Y-112000669D01*
X181133406Y-112007493D01*
X181313908Y-112017630D01*
X181326309Y-112018957D01*
X181475069Y-112042518D01*
X181476128Y-112042692D01*
X181635331Y-112069741D01*
X181646602Y-112072203D01*
X181795600Y-112112127D01*
X181797817Y-112112744D01*
X181834014Y-112123172D01*
X181949168Y-112156347D01*
X181959259Y-112159731D01*
X182104738Y-112215575D01*
X182107576Y-112216707D01*
X182251755Y-112276428D01*
X182260586Y-112280499D01*
X182395765Y-112349376D01*
X182400063Y-112351566D01*
X182403743Y-112353519D01*
X182539532Y-112428568D01*
X182539540Y-112428572D01*
X182547084Y-112433099D01*
X182678789Y-112518628D01*
X182682886Y-112521410D01*
X182809170Y-112611013D01*
X182815407Y-112615744D01*
X182876202Y-112664975D01*
X182937573Y-112714673D01*
X182942164Y-112718579D01*
X183057414Y-112821572D01*
X183062468Y-112826351D01*
X183173647Y-112937530D01*
X183178426Y-112942584D01*
X183281419Y-113057834D01*
X183285325Y-113062425D01*
X183323149Y-113109133D01*
X183384237Y-113184570D01*
X183384244Y-113184578D01*
X183388993Y-113190839D01*
X183478574Y-113317092D01*
X183481385Y-113321232D01*
X183541097Y-113413181D01*
X183566894Y-113452905D01*
X183571426Y-113460458D01*
X183646475Y-113596249D01*
X183648432Y-113599935D01*
X183719497Y-113739407D01*
X183723573Y-113748249D01*
X183783256Y-113892334D01*
X183784459Y-113895350D01*
X183840264Y-114040730D01*
X183843654Y-114050840D01*
X183887254Y-114202181D01*
X183887875Y-114204413D01*
X183927789Y-114353369D01*
X183930262Y-114364694D01*
X183957281Y-114523720D01*
X183957506Y-114525092D01*
X183981038Y-114673666D01*
X183982370Y-114686111D01*
X183992479Y-114866100D01*
X183992504Y-114866563D01*
X183999330Y-114996794D01*
X183999500Y-115003284D01*
X183999500Y-119996734D01*
X183999330Y-120003223D01*
X183992523Y-120133113D01*
X183992498Y-120133577D01*
X183982372Y-120313887D01*
X183981040Y-120326332D01*
X183957507Y-120474911D01*
X183957282Y-120476283D01*
X183930264Y-120635304D01*
X183927791Y-120646628D01*
X183887879Y-120795579D01*
X183887258Y-120797813D01*
X183843655Y-120949162D01*
X183840265Y-120959271D01*
X183784462Y-121104645D01*
X183783259Y-121107661D01*
X183723575Y-121251751D01*
X183719498Y-121260594D01*
X183648433Y-121400064D01*
X183646477Y-121403748D01*
X183571430Y-121539538D01*
X183566897Y-121547094D01*
X183481412Y-121678728D01*
X183478546Y-121682947D01*
X183389002Y-121809147D01*
X183384239Y-121815428D01*
X183285333Y-121937567D01*
X183281427Y-121942158D01*
X183178419Y-122057424D01*
X183173640Y-122062478D01*
X183062478Y-122173640D01*
X183057424Y-122178419D01*
X182942158Y-122281427D01*
X182937567Y-122285333D01*
X182815428Y-122384239D01*
X182809147Y-122389002D01*
X182682947Y-122478546D01*
X182678728Y-122481412D01*
X182547094Y-122566897D01*
X182539538Y-122571430D01*
X182403748Y-122646477D01*
X182400064Y-122648433D01*
X182260594Y-122719498D01*
X182251751Y-122723575D01*
X182107661Y-122783259D01*
X182104645Y-122784462D01*
X181959271Y-122840265D01*
X181949162Y-122843655D01*
X181797813Y-122887258D01*
X181795579Y-122887879D01*
X181646628Y-122927791D01*
X181635304Y-122930264D01*
X181476283Y-122957282D01*
X181474911Y-122957507D01*
X181326332Y-122981040D01*
X181313887Y-122982372D01*
X181133577Y-122992498D01*
X181133114Y-122992523D01*
X181003243Y-122999330D01*
X180996753Y-122999500D01*
X97003247Y-122999500D01*
X96996757Y-122999330D01*
X96866884Y-122992523D01*
X96866421Y-122992498D01*
X96686111Y-122982372D01*
X96673666Y-122981040D01*
X96525087Y-122957507D01*
X96523715Y-122957282D01*
X96364694Y-122930264D01*
X96353370Y-122927791D01*
X96204419Y-122887879D01*
X96202185Y-122887258D01*
X96050836Y-122843655D01*
X96040727Y-122840265D01*
X95895353Y-122784462D01*
X95892337Y-122783259D01*
X95748247Y-122723575D01*
X95739404Y-122719498D01*
X95599934Y-122648433D01*
X95596250Y-122646477D01*
X95460460Y-122571430D01*
X95452921Y-122566907D01*
X95321266Y-122481409D01*
X95317051Y-122478546D01*
X95190851Y-122389002D01*
X95184570Y-122384239D01*
X95062431Y-122285333D01*
X95057840Y-122281427D01*
X94942574Y-122178419D01*
X94937520Y-122173640D01*
X94826358Y-122062478D01*
X94821579Y-122057424D01*
X94749966Y-121977289D01*
X94718567Y-121942154D01*
X94714665Y-121937567D01*
X94615759Y-121815428D01*
X94610996Y-121809147D01*
X94521452Y-121682947D01*
X94518604Y-121678754D01*
X94433081Y-121547061D01*
X94428568Y-121539538D01*
X94353521Y-121403748D01*
X94351565Y-121400064D01*
X94280500Y-121260594D01*
X94276430Y-121251768D01*
X94216714Y-121107599D01*
X94215562Y-121104710D01*
X94175368Y-121000000D01*
X102744723Y-121000000D01*
X102745195Y-121005395D01*
X102763320Y-121212578D01*
X102763321Y-121212585D01*
X102763793Y-121217977D01*
X102765192Y-121223199D01*
X102765194Y-121223209D01*
X102802938Y-121364068D01*
X102820425Y-121429330D01*
X102822709Y-121434229D01*
X102822712Y-121434236D01*
X102910611Y-121622736D01*
X102910614Y-121622742D01*
X102912898Y-121627639D01*
X102915997Y-121632066D01*
X102915999Y-121632068D01*
X103035296Y-121802442D01*
X103035299Y-121802446D01*
X103038402Y-121806877D01*
X103193123Y-121961598D01*
X103372361Y-122087102D01*
X103377261Y-122089387D01*
X103377263Y-122089388D01*
X103452745Y-122124586D01*
X103570670Y-122179575D01*
X103728522Y-122221871D01*
X103776790Y-122234805D01*
X103776791Y-122234805D01*
X103782023Y-122236207D01*
X104000000Y-122255277D01*
X104217977Y-122236207D01*
X104429330Y-122179575D01*
X104627639Y-122087102D01*
X104806877Y-121961598D01*
X104961598Y-121806877D01*
X105087102Y-121627639D01*
X105179575Y-121429330D01*
X105236207Y-121217977D01*
X105255277Y-121000000D01*
X112744723Y-121000000D01*
X112745195Y-121005395D01*
X112763320Y-121212578D01*
X112763321Y-121212585D01*
X112763793Y-121217977D01*
X112765192Y-121223199D01*
X112765194Y-121223209D01*
X112802938Y-121364068D01*
X112820425Y-121429330D01*
X112822709Y-121434229D01*
X112822712Y-121434236D01*
X112910611Y-121622736D01*
X112910614Y-121622742D01*
X112912898Y-121627639D01*
X112915997Y-121632066D01*
X112915999Y-121632068D01*
X113035296Y-121802442D01*
X113035299Y-121802446D01*
X113038402Y-121806877D01*
X113193123Y-121961598D01*
X113372361Y-122087102D01*
X113377261Y-122089387D01*
X113377263Y-122089388D01*
X113452745Y-122124586D01*
X113570670Y-122179575D01*
X113728522Y-122221871D01*
X113776790Y-122234805D01*
X113776791Y-122234805D01*
X113782023Y-122236207D01*
X114000000Y-122255277D01*
X114217977Y-122236207D01*
X114429330Y-122179575D01*
X114627639Y-122087102D01*
X114806877Y-121961598D01*
X114961598Y-121806877D01*
X115087102Y-121627639D01*
X115179575Y-121429330D01*
X115236207Y-121217977D01*
X115255277Y-121000000D01*
X122744723Y-121000000D01*
X122745195Y-121005395D01*
X122763320Y-121212578D01*
X122763321Y-121212585D01*
X122763793Y-121217977D01*
X122765192Y-121223199D01*
X122765194Y-121223209D01*
X122802938Y-121364068D01*
X122820425Y-121429330D01*
X122822709Y-121434229D01*
X122822712Y-121434236D01*
X122910611Y-121622736D01*
X122910614Y-121622742D01*
X122912898Y-121627639D01*
X122915997Y-121632066D01*
X122915999Y-121632068D01*
X123035296Y-121802442D01*
X123035299Y-121802446D01*
X123038402Y-121806877D01*
X123193123Y-121961598D01*
X123372361Y-122087102D01*
X123377261Y-122089387D01*
X123377263Y-122089388D01*
X123452745Y-122124586D01*
X123570670Y-122179575D01*
X123728522Y-122221871D01*
X123776790Y-122234805D01*
X123776791Y-122234805D01*
X123782023Y-122236207D01*
X124000000Y-122255277D01*
X124217977Y-122236207D01*
X124429330Y-122179575D01*
X124627639Y-122087102D01*
X124806877Y-121961598D01*
X124961598Y-121806877D01*
X125087102Y-121627639D01*
X125179575Y-121429330D01*
X125236207Y-121217977D01*
X125255277Y-121000000D01*
X132744723Y-121000000D01*
X132745195Y-121005395D01*
X132763320Y-121212578D01*
X132763321Y-121212585D01*
X132763793Y-121217977D01*
X132765192Y-121223199D01*
X132765194Y-121223209D01*
X132802938Y-121364068D01*
X132820425Y-121429330D01*
X132822709Y-121434229D01*
X132822712Y-121434236D01*
X132910611Y-121622736D01*
X132910614Y-121622742D01*
X132912898Y-121627639D01*
X132915997Y-121632066D01*
X132915999Y-121632068D01*
X133035296Y-121802442D01*
X133035299Y-121802446D01*
X133038402Y-121806877D01*
X133193123Y-121961598D01*
X133372361Y-122087102D01*
X133377261Y-122089387D01*
X133377263Y-122089388D01*
X133452745Y-122124586D01*
X133570670Y-122179575D01*
X133728522Y-122221871D01*
X133776790Y-122234805D01*
X133776791Y-122234805D01*
X133782023Y-122236207D01*
X134000000Y-122255277D01*
X134217977Y-122236207D01*
X134429330Y-122179575D01*
X134627639Y-122087102D01*
X134806877Y-121961598D01*
X134961598Y-121806877D01*
X135087102Y-121627639D01*
X135179575Y-121429330D01*
X135236207Y-121217977D01*
X135255277Y-121000000D01*
X142744723Y-121000000D01*
X142745195Y-121005395D01*
X142763320Y-121212578D01*
X142763321Y-121212585D01*
X142763793Y-121217977D01*
X142765192Y-121223199D01*
X142765194Y-121223209D01*
X142802938Y-121364068D01*
X142820425Y-121429330D01*
X142822709Y-121434229D01*
X142822712Y-121434236D01*
X142910611Y-121622736D01*
X142910614Y-121622742D01*
X142912898Y-121627639D01*
X142915997Y-121632066D01*
X142915999Y-121632068D01*
X143035296Y-121802442D01*
X143035299Y-121802446D01*
X143038402Y-121806877D01*
X143193123Y-121961598D01*
X143372361Y-122087102D01*
X143377261Y-122089387D01*
X143377263Y-122089388D01*
X143452745Y-122124586D01*
X143570670Y-122179575D01*
X143728522Y-122221871D01*
X143776790Y-122234805D01*
X143776791Y-122234805D01*
X143782023Y-122236207D01*
X144000000Y-122255277D01*
X144217977Y-122236207D01*
X144429330Y-122179575D01*
X144627639Y-122087102D01*
X144806877Y-121961598D01*
X144961598Y-121806877D01*
X145087102Y-121627639D01*
X145179575Y-121429330D01*
X145236207Y-121217977D01*
X145255277Y-121000000D01*
X152744723Y-121000000D01*
X152745195Y-121005395D01*
X152763320Y-121212578D01*
X152763321Y-121212585D01*
X152763793Y-121217977D01*
X152765192Y-121223199D01*
X152765194Y-121223209D01*
X152802938Y-121364068D01*
X152820425Y-121429330D01*
X152822709Y-121434229D01*
X152822712Y-121434236D01*
X152910611Y-121622736D01*
X152910614Y-121622742D01*
X152912898Y-121627639D01*
X152915997Y-121632066D01*
X152915999Y-121632068D01*
X153035296Y-121802442D01*
X153035299Y-121802446D01*
X153038402Y-121806877D01*
X153193123Y-121961598D01*
X153372361Y-122087102D01*
X153377261Y-122089387D01*
X153377263Y-122089388D01*
X153452745Y-122124586D01*
X153570670Y-122179575D01*
X153728522Y-122221871D01*
X153776790Y-122234805D01*
X153776791Y-122234805D01*
X153782023Y-122236207D01*
X154000000Y-122255277D01*
X154217977Y-122236207D01*
X154429330Y-122179575D01*
X154627639Y-122087102D01*
X154806877Y-121961598D01*
X154961598Y-121806877D01*
X155087102Y-121627639D01*
X155179575Y-121429330D01*
X155236207Y-121217977D01*
X155255277Y-121000000D01*
X162744723Y-121000000D01*
X162745195Y-121005395D01*
X162763320Y-121212578D01*
X162763321Y-121212585D01*
X162763793Y-121217977D01*
X162765192Y-121223199D01*
X162765194Y-121223209D01*
X162802938Y-121364068D01*
X162820425Y-121429330D01*
X162822709Y-121434229D01*
X162822712Y-121434236D01*
X162910611Y-121622736D01*
X162910614Y-121622742D01*
X162912898Y-121627639D01*
X162915997Y-121632066D01*
X162915999Y-121632068D01*
X163035296Y-121802442D01*
X163035299Y-121802446D01*
X163038402Y-121806877D01*
X163193123Y-121961598D01*
X163372361Y-122087102D01*
X163377261Y-122089387D01*
X163377263Y-122089388D01*
X163452745Y-122124586D01*
X163570670Y-122179575D01*
X163728522Y-122221871D01*
X163776790Y-122234805D01*
X163776791Y-122234805D01*
X163782023Y-122236207D01*
X164000000Y-122255277D01*
X164217977Y-122236207D01*
X164429330Y-122179575D01*
X164627639Y-122087102D01*
X164806877Y-121961598D01*
X164961598Y-121806877D01*
X165087102Y-121627639D01*
X165179575Y-121429330D01*
X165236207Y-121217977D01*
X165255277Y-121000000D01*
X172744723Y-121000000D01*
X172745195Y-121005395D01*
X172763320Y-121212578D01*
X172763321Y-121212585D01*
X172763793Y-121217977D01*
X172765192Y-121223199D01*
X172765194Y-121223209D01*
X172802938Y-121364068D01*
X172820425Y-121429330D01*
X172822709Y-121434229D01*
X172822712Y-121434236D01*
X172910611Y-121622736D01*
X172910614Y-121622742D01*
X172912898Y-121627639D01*
X172915997Y-121632066D01*
X172915999Y-121632068D01*
X173035296Y-121802442D01*
X173035299Y-121802446D01*
X173038402Y-121806877D01*
X173193123Y-121961598D01*
X173372361Y-122087102D01*
X173377261Y-122089387D01*
X173377263Y-122089388D01*
X173452745Y-122124586D01*
X173570670Y-122179575D01*
X173728522Y-122221871D01*
X173776790Y-122234805D01*
X173776791Y-122234805D01*
X173782023Y-122236207D01*
X174000000Y-122255277D01*
X174217977Y-122236207D01*
X174429330Y-122179575D01*
X174627639Y-122087102D01*
X174806877Y-121961598D01*
X174961598Y-121806877D01*
X175087102Y-121627639D01*
X175179575Y-121429330D01*
X175236207Y-121217977D01*
X175255277Y-121000000D01*
X175236207Y-120782023D01*
X175179575Y-120570670D01*
X175087102Y-120372362D01*
X174961598Y-120193123D01*
X174806877Y-120038402D01*
X174802446Y-120035299D01*
X174802442Y-120035296D01*
X174632068Y-119915999D01*
X174632066Y-119915997D01*
X174627639Y-119912898D01*
X174622742Y-119910614D01*
X174622736Y-119910611D01*
X174434236Y-119822712D01*
X174434229Y-119822709D01*
X174429330Y-119820425D01*
X174424103Y-119819024D01*
X174424102Y-119819024D01*
X174223209Y-119765194D01*
X174223199Y-119765192D01*
X174217977Y-119763793D01*
X174212585Y-119763321D01*
X174212578Y-119763320D01*
X174005395Y-119745195D01*
X174000000Y-119744723D01*
X173994605Y-119745195D01*
X173787421Y-119763320D01*
X173787412Y-119763321D01*
X173782023Y-119763793D01*
X173776802Y-119765191D01*
X173776790Y-119765194D01*
X173575897Y-119819024D01*
X173575892Y-119819025D01*
X173570670Y-119820425D01*
X173565774Y-119822707D01*
X173565763Y-119822712D01*
X173377272Y-119910608D01*
X173377268Y-119910610D01*
X173372362Y-119912898D01*
X173367929Y-119916001D01*
X173367922Y-119916006D01*
X173197558Y-120035296D01*
X173197553Y-120035299D01*
X173193123Y-120038402D01*
X173189299Y-120042225D01*
X173189293Y-120042231D01*
X173042231Y-120189293D01*
X173042225Y-120189299D01*
X173038402Y-120193123D01*
X173035299Y-120197553D01*
X173035296Y-120197558D01*
X172916006Y-120367922D01*
X172916001Y-120367929D01*
X172912898Y-120372362D01*
X172910610Y-120377268D01*
X172910608Y-120377272D01*
X172822712Y-120565763D01*
X172822707Y-120565774D01*
X172820425Y-120570670D01*
X172819025Y-120575892D01*
X172819024Y-120575897D01*
X172765194Y-120776790D01*
X172765191Y-120776802D01*
X172763793Y-120782023D01*
X172763321Y-120787412D01*
X172763320Y-120787421D01*
X172748286Y-120959271D01*
X172744723Y-121000000D01*
X165255277Y-121000000D01*
X165236207Y-120782023D01*
X165179575Y-120570670D01*
X165087102Y-120372362D01*
X164961598Y-120193123D01*
X164806877Y-120038402D01*
X164802446Y-120035299D01*
X164802442Y-120035296D01*
X164632068Y-119915999D01*
X164632066Y-119915997D01*
X164627639Y-119912898D01*
X164622742Y-119910614D01*
X164622736Y-119910611D01*
X164434236Y-119822712D01*
X164434229Y-119822709D01*
X164429330Y-119820425D01*
X164424103Y-119819024D01*
X164424102Y-119819024D01*
X164223209Y-119765194D01*
X164223199Y-119765192D01*
X164217977Y-119763793D01*
X164212585Y-119763321D01*
X164212578Y-119763320D01*
X164005395Y-119745195D01*
X164000000Y-119744723D01*
X163994605Y-119745195D01*
X163787421Y-119763320D01*
X163787412Y-119763321D01*
X163782023Y-119763793D01*
X163776802Y-119765191D01*
X163776790Y-119765194D01*
X163575897Y-119819024D01*
X163575892Y-119819025D01*
X163570670Y-119820425D01*
X163565774Y-119822707D01*
X163565763Y-119822712D01*
X163377272Y-119910608D01*
X163377268Y-119910610D01*
X163372362Y-119912898D01*
X163367929Y-119916001D01*
X163367922Y-119916006D01*
X163197558Y-120035296D01*
X163197553Y-120035299D01*
X163193123Y-120038402D01*
X163189299Y-120042225D01*
X163189293Y-120042231D01*
X163042231Y-120189293D01*
X163042225Y-120189299D01*
X163038402Y-120193123D01*
X163035299Y-120197553D01*
X163035296Y-120197558D01*
X162916006Y-120367922D01*
X162916001Y-120367929D01*
X162912898Y-120372362D01*
X162910610Y-120377268D01*
X162910608Y-120377272D01*
X162822712Y-120565763D01*
X162822707Y-120565774D01*
X162820425Y-120570670D01*
X162819025Y-120575892D01*
X162819024Y-120575897D01*
X162765194Y-120776790D01*
X162765191Y-120776802D01*
X162763793Y-120782023D01*
X162763321Y-120787412D01*
X162763320Y-120787421D01*
X162748286Y-120959271D01*
X162744723Y-121000000D01*
X155255277Y-121000000D01*
X155236207Y-120782023D01*
X155179575Y-120570670D01*
X155087102Y-120372362D01*
X154961598Y-120193123D01*
X154806877Y-120038402D01*
X154802446Y-120035299D01*
X154802442Y-120035296D01*
X154632068Y-119915999D01*
X154632066Y-119915997D01*
X154627639Y-119912898D01*
X154622742Y-119910614D01*
X154622736Y-119910611D01*
X154434236Y-119822712D01*
X154434229Y-119822709D01*
X154429330Y-119820425D01*
X154424103Y-119819024D01*
X154424102Y-119819024D01*
X154223209Y-119765194D01*
X154223199Y-119765192D01*
X154217977Y-119763793D01*
X154212585Y-119763321D01*
X154212578Y-119763320D01*
X154005395Y-119745195D01*
X154000000Y-119744723D01*
X153994605Y-119745195D01*
X153787421Y-119763320D01*
X153787412Y-119763321D01*
X153782023Y-119763793D01*
X153776802Y-119765191D01*
X153776790Y-119765194D01*
X153575897Y-119819024D01*
X153575892Y-119819025D01*
X153570670Y-119820425D01*
X153565774Y-119822707D01*
X153565763Y-119822712D01*
X153377272Y-119910608D01*
X153377268Y-119910610D01*
X153372362Y-119912898D01*
X153367929Y-119916001D01*
X153367922Y-119916006D01*
X153197558Y-120035296D01*
X153197553Y-120035299D01*
X153193123Y-120038402D01*
X153189299Y-120042225D01*
X153189293Y-120042231D01*
X153042231Y-120189293D01*
X153042225Y-120189299D01*
X153038402Y-120193123D01*
X153035299Y-120197553D01*
X153035296Y-120197558D01*
X152916006Y-120367922D01*
X152916001Y-120367929D01*
X152912898Y-120372362D01*
X152910610Y-120377268D01*
X152910608Y-120377272D01*
X152822712Y-120565763D01*
X152822707Y-120565774D01*
X152820425Y-120570670D01*
X152819025Y-120575892D01*
X152819024Y-120575897D01*
X152765194Y-120776790D01*
X152765191Y-120776802D01*
X152763793Y-120782023D01*
X152763321Y-120787412D01*
X152763320Y-120787421D01*
X152748286Y-120959271D01*
X152744723Y-121000000D01*
X145255277Y-121000000D01*
X145236207Y-120782023D01*
X145179575Y-120570670D01*
X145087102Y-120372362D01*
X144961598Y-120193123D01*
X144806877Y-120038402D01*
X144802446Y-120035299D01*
X144802442Y-120035296D01*
X144632068Y-119915999D01*
X144632066Y-119915997D01*
X144627639Y-119912898D01*
X144622742Y-119910614D01*
X144622736Y-119910611D01*
X144434236Y-119822712D01*
X144434229Y-119822709D01*
X144429330Y-119820425D01*
X144424103Y-119819024D01*
X144424102Y-119819024D01*
X144223209Y-119765194D01*
X144223199Y-119765192D01*
X144217977Y-119763793D01*
X144212585Y-119763321D01*
X144212578Y-119763320D01*
X144005395Y-119745195D01*
X144000000Y-119744723D01*
X143994605Y-119745195D01*
X143787421Y-119763320D01*
X143787412Y-119763321D01*
X143782023Y-119763793D01*
X143776802Y-119765191D01*
X143776790Y-119765194D01*
X143575897Y-119819024D01*
X143575892Y-119819025D01*
X143570670Y-119820425D01*
X143565774Y-119822707D01*
X143565763Y-119822712D01*
X143377272Y-119910608D01*
X143377268Y-119910610D01*
X143372362Y-119912898D01*
X143367929Y-119916001D01*
X143367922Y-119916006D01*
X143197558Y-120035296D01*
X143197553Y-120035299D01*
X143193123Y-120038402D01*
X143189299Y-120042225D01*
X143189293Y-120042231D01*
X143042231Y-120189293D01*
X143042225Y-120189299D01*
X143038402Y-120193123D01*
X143035299Y-120197553D01*
X143035296Y-120197558D01*
X142916006Y-120367922D01*
X142916001Y-120367929D01*
X142912898Y-120372362D01*
X142910610Y-120377268D01*
X142910608Y-120377272D01*
X142822712Y-120565763D01*
X142822707Y-120565774D01*
X142820425Y-120570670D01*
X142819025Y-120575892D01*
X142819024Y-120575897D01*
X142765194Y-120776790D01*
X142765191Y-120776802D01*
X142763793Y-120782023D01*
X142763321Y-120787412D01*
X142763320Y-120787421D01*
X142748286Y-120959271D01*
X142744723Y-121000000D01*
X135255277Y-121000000D01*
X135236207Y-120782023D01*
X135179575Y-120570670D01*
X135087102Y-120372362D01*
X134961598Y-120193123D01*
X134806877Y-120038402D01*
X134802446Y-120035299D01*
X134802442Y-120035296D01*
X134632068Y-119915999D01*
X134632066Y-119915997D01*
X134627639Y-119912898D01*
X134622742Y-119910614D01*
X134622736Y-119910611D01*
X134434236Y-119822712D01*
X134434229Y-119822709D01*
X134429330Y-119820425D01*
X134424103Y-119819024D01*
X134424102Y-119819024D01*
X134223209Y-119765194D01*
X134223199Y-119765192D01*
X134217977Y-119763793D01*
X134212585Y-119763321D01*
X134212578Y-119763320D01*
X134005395Y-119745195D01*
X134000000Y-119744723D01*
X133994605Y-119745195D01*
X133787421Y-119763320D01*
X133787412Y-119763321D01*
X133782023Y-119763793D01*
X133776802Y-119765191D01*
X133776790Y-119765194D01*
X133575897Y-119819024D01*
X133575892Y-119819025D01*
X133570670Y-119820425D01*
X133565774Y-119822707D01*
X133565763Y-119822712D01*
X133377272Y-119910608D01*
X133377268Y-119910610D01*
X133372362Y-119912898D01*
X133367929Y-119916001D01*
X133367922Y-119916006D01*
X133197558Y-120035296D01*
X133197553Y-120035299D01*
X133193123Y-120038402D01*
X133189299Y-120042225D01*
X133189293Y-120042231D01*
X133042231Y-120189293D01*
X133042225Y-120189299D01*
X133038402Y-120193123D01*
X133035299Y-120197553D01*
X133035296Y-120197558D01*
X132916006Y-120367922D01*
X132916001Y-120367929D01*
X132912898Y-120372362D01*
X132910610Y-120377268D01*
X132910608Y-120377272D01*
X132822712Y-120565763D01*
X132822707Y-120565774D01*
X132820425Y-120570670D01*
X132819025Y-120575892D01*
X132819024Y-120575897D01*
X132765194Y-120776790D01*
X132765191Y-120776802D01*
X132763793Y-120782023D01*
X132763321Y-120787412D01*
X132763320Y-120787421D01*
X132748286Y-120959271D01*
X132744723Y-121000000D01*
X125255277Y-121000000D01*
X125236207Y-120782023D01*
X125179575Y-120570670D01*
X125087102Y-120372362D01*
X124961598Y-120193123D01*
X124806877Y-120038402D01*
X124802446Y-120035299D01*
X124802442Y-120035296D01*
X124632068Y-119915999D01*
X124632066Y-119915997D01*
X124627639Y-119912898D01*
X124622742Y-119910614D01*
X124622736Y-119910611D01*
X124434236Y-119822712D01*
X124434229Y-119822709D01*
X124429330Y-119820425D01*
X124424103Y-119819024D01*
X124424102Y-119819024D01*
X124223209Y-119765194D01*
X124223199Y-119765192D01*
X124217977Y-119763793D01*
X124212585Y-119763321D01*
X124212578Y-119763320D01*
X124005395Y-119745195D01*
X124000000Y-119744723D01*
X123994605Y-119745195D01*
X123787421Y-119763320D01*
X123787412Y-119763321D01*
X123782023Y-119763793D01*
X123776802Y-119765191D01*
X123776790Y-119765194D01*
X123575897Y-119819024D01*
X123575892Y-119819025D01*
X123570670Y-119820425D01*
X123565774Y-119822707D01*
X123565763Y-119822712D01*
X123377272Y-119910608D01*
X123377268Y-119910610D01*
X123372362Y-119912898D01*
X123367929Y-119916001D01*
X123367922Y-119916006D01*
X123197558Y-120035296D01*
X123197553Y-120035299D01*
X123193123Y-120038402D01*
X123189299Y-120042225D01*
X123189293Y-120042231D01*
X123042231Y-120189293D01*
X123042225Y-120189299D01*
X123038402Y-120193123D01*
X123035299Y-120197553D01*
X123035296Y-120197558D01*
X122916006Y-120367922D01*
X122916001Y-120367929D01*
X122912898Y-120372362D01*
X122910610Y-120377268D01*
X122910608Y-120377272D01*
X122822712Y-120565763D01*
X122822707Y-120565774D01*
X122820425Y-120570670D01*
X122819025Y-120575892D01*
X122819024Y-120575897D01*
X122765194Y-120776790D01*
X122765191Y-120776802D01*
X122763793Y-120782023D01*
X122763321Y-120787412D01*
X122763320Y-120787421D01*
X122748286Y-120959271D01*
X122744723Y-121000000D01*
X115255277Y-121000000D01*
X115236207Y-120782023D01*
X115179575Y-120570670D01*
X115087102Y-120372362D01*
X114961598Y-120193123D01*
X114806877Y-120038402D01*
X114802446Y-120035299D01*
X114802442Y-120035296D01*
X114632068Y-119915999D01*
X114632066Y-119915997D01*
X114627639Y-119912898D01*
X114622742Y-119910614D01*
X114622736Y-119910611D01*
X114434236Y-119822712D01*
X114434229Y-119822709D01*
X114429330Y-119820425D01*
X114424103Y-119819024D01*
X114424102Y-119819024D01*
X114223209Y-119765194D01*
X114223199Y-119765192D01*
X114217977Y-119763793D01*
X114212585Y-119763321D01*
X114212578Y-119763320D01*
X114005395Y-119745195D01*
X114000000Y-119744723D01*
X113994605Y-119745195D01*
X113787421Y-119763320D01*
X113787412Y-119763321D01*
X113782023Y-119763793D01*
X113776802Y-119765191D01*
X113776790Y-119765194D01*
X113575897Y-119819024D01*
X113575892Y-119819025D01*
X113570670Y-119820425D01*
X113565774Y-119822707D01*
X113565763Y-119822712D01*
X113377272Y-119910608D01*
X113377268Y-119910610D01*
X113372362Y-119912898D01*
X113367929Y-119916001D01*
X113367922Y-119916006D01*
X113197558Y-120035296D01*
X113197553Y-120035299D01*
X113193123Y-120038402D01*
X113189299Y-120042225D01*
X113189293Y-120042231D01*
X113042231Y-120189293D01*
X113042225Y-120189299D01*
X113038402Y-120193123D01*
X113035299Y-120197553D01*
X113035296Y-120197558D01*
X112916006Y-120367922D01*
X112916001Y-120367929D01*
X112912898Y-120372362D01*
X112910610Y-120377268D01*
X112910608Y-120377272D01*
X112822712Y-120565763D01*
X112822707Y-120565774D01*
X112820425Y-120570670D01*
X112819025Y-120575892D01*
X112819024Y-120575897D01*
X112765194Y-120776790D01*
X112765191Y-120776802D01*
X112763793Y-120782023D01*
X112763321Y-120787412D01*
X112763320Y-120787421D01*
X112748286Y-120959271D01*
X112744723Y-121000000D01*
X105255277Y-121000000D01*
X105236207Y-120782023D01*
X105179575Y-120570670D01*
X105087102Y-120372362D01*
X104961598Y-120193123D01*
X104806877Y-120038402D01*
X104802446Y-120035299D01*
X104802442Y-120035296D01*
X104632068Y-119915999D01*
X104632066Y-119915997D01*
X104627639Y-119912898D01*
X104622742Y-119910614D01*
X104622736Y-119910611D01*
X104434236Y-119822712D01*
X104434229Y-119822709D01*
X104429330Y-119820425D01*
X104424103Y-119819024D01*
X104424102Y-119819024D01*
X104223209Y-119765194D01*
X104223199Y-119765192D01*
X104217977Y-119763793D01*
X104212585Y-119763321D01*
X104212578Y-119763320D01*
X104005395Y-119745195D01*
X104000000Y-119744723D01*
X103994605Y-119745195D01*
X103787421Y-119763320D01*
X103787412Y-119763321D01*
X103782023Y-119763793D01*
X103776802Y-119765191D01*
X103776790Y-119765194D01*
X103575897Y-119819024D01*
X103575892Y-119819025D01*
X103570670Y-119820425D01*
X103565774Y-119822707D01*
X103565763Y-119822712D01*
X103377272Y-119910608D01*
X103377268Y-119910610D01*
X103372362Y-119912898D01*
X103367929Y-119916001D01*
X103367922Y-119916006D01*
X103197558Y-120035296D01*
X103197553Y-120035299D01*
X103193123Y-120038402D01*
X103189299Y-120042225D01*
X103189293Y-120042231D01*
X103042231Y-120189293D01*
X103042225Y-120189299D01*
X103038402Y-120193123D01*
X103035299Y-120197553D01*
X103035296Y-120197558D01*
X102916006Y-120367922D01*
X102916001Y-120367929D01*
X102912898Y-120372362D01*
X102910610Y-120377268D01*
X102910608Y-120377272D01*
X102822712Y-120565763D01*
X102822707Y-120565774D01*
X102820425Y-120570670D01*
X102819025Y-120575892D01*
X102819024Y-120575897D01*
X102765194Y-120776790D01*
X102765191Y-120776802D01*
X102763793Y-120782023D01*
X102763321Y-120787412D01*
X102763320Y-120787421D01*
X102748286Y-120959271D01*
X102744723Y-121000000D01*
X94175368Y-121000000D01*
X94159729Y-120959260D01*
X94156347Y-120949174D01*
X94112725Y-120797761D01*
X94112134Y-120795635D01*
X94072202Y-120646606D01*
X94069738Y-120635324D01*
X94042709Y-120476245D01*
X94042491Y-120474911D01*
X94018955Y-120326309D01*
X94017628Y-120313908D01*
X94007485Y-120133285D01*
X94007476Y-120133113D01*
X94000669Y-120003223D01*
X94000500Y-119996755D01*
X94000500Y-117500000D01*
X95494357Y-117500000D01*
X95494781Y-117505117D01*
X95514467Y-117742701D01*
X95514468Y-117742709D01*
X95514892Y-117747821D01*
X95516149Y-117752788D01*
X95516151Y-117752795D01*
X95574678Y-117983910D01*
X95575937Y-117988881D01*
X95577997Y-117993577D01*
X95673766Y-118211910D01*
X95673769Y-118211916D01*
X95675827Y-118216607D01*
X95678627Y-118220893D01*
X95678631Y-118220900D01*
X95806675Y-118416885D01*
X95811836Y-118424785D01*
X95815310Y-118428559D01*
X95815311Y-118428560D01*
X95976784Y-118603967D01*
X95976787Y-118603970D01*
X95980256Y-118607738D01*
X96176491Y-118760474D01*
X96395190Y-118878828D01*
X96630386Y-118959571D01*
X96875665Y-119000500D01*
X97119201Y-119000500D01*
X97124335Y-119000500D01*
X97369614Y-118959571D01*
X97604810Y-118878828D01*
X97823509Y-118760474D01*
X98019744Y-118607738D01*
X98188164Y-118424785D01*
X98324173Y-118216607D01*
X98410523Y-118019748D01*
X99299500Y-118019748D01*
X99311133Y-118078231D01*
X99355448Y-118144552D01*
X99421769Y-118188867D01*
X99480252Y-118200500D01*
X103513652Y-118200500D01*
X103519748Y-118200500D01*
X103578231Y-118188867D01*
X103644552Y-118144552D01*
X103688867Y-118078231D01*
X103700500Y-118019748D01*
X104299500Y-118019748D01*
X104311133Y-118078231D01*
X104355448Y-118144552D01*
X104421769Y-118188867D01*
X104480252Y-118200500D01*
X108513652Y-118200500D01*
X108519748Y-118200500D01*
X108578231Y-118188867D01*
X108644552Y-118144552D01*
X108688867Y-118078231D01*
X108700500Y-118019748D01*
X109299500Y-118019748D01*
X109311133Y-118078231D01*
X109355448Y-118144552D01*
X109421769Y-118188867D01*
X109480252Y-118200500D01*
X113513652Y-118200500D01*
X113519748Y-118200500D01*
X113578231Y-118188867D01*
X113644552Y-118144552D01*
X113688867Y-118078231D01*
X113700500Y-118019748D01*
X113700500Y-113980252D01*
X113688867Y-113921769D01*
X113644552Y-113855448D01*
X113622070Y-113840426D01*
X113588384Y-113817917D01*
X113588383Y-113817916D01*
X113578231Y-113811133D01*
X113566253Y-113808750D01*
X113566252Y-113808750D01*
X113525728Y-113800689D01*
X113525723Y-113800688D01*
X113519748Y-113799500D01*
X109480252Y-113799500D01*
X109474277Y-113800688D01*
X109474271Y-113800689D01*
X109433746Y-113808750D01*
X109433743Y-113808751D01*
X109421769Y-113811133D01*
X109411618Y-113817915D01*
X109407274Y-113819715D01*
X109340423Y-113827626D01*
X109316679Y-113816679D01*
X109327626Y-113840423D01*
X109319715Y-113907274D01*
X109317915Y-113911618D01*
X109311133Y-113921769D01*
X109308751Y-113933743D01*
X109308750Y-113933746D01*
X109300689Y-113974271D01*
X109300688Y-113974277D01*
X109299500Y-113980252D01*
X109299500Y-118019748D01*
X108700500Y-118019748D01*
X108700500Y-114240478D01*
X108709939Y-114193025D01*
X108736819Y-114152797D01*
X108915345Y-113974271D01*
X109117474Y-113772141D01*
X109176205Y-113739250D01*
X109241828Y-113741828D01*
X109239250Y-113676205D01*
X109272141Y-113617474D01*
X109627797Y-113261818D01*
X109668025Y-113234939D01*
X109715478Y-113225500D01*
X118585522Y-113225500D01*
X118641817Y-113239015D01*
X118685840Y-113276615D01*
X118707995Y-113330102D01*
X118703453Y-113387818D01*
X118673203Y-113437181D01*
X118347203Y-113763181D01*
X118306975Y-113790061D01*
X118259522Y-113799500D01*
X114480252Y-113799500D01*
X114474277Y-113800688D01*
X114474271Y-113800689D01*
X114433747Y-113808750D01*
X114433745Y-113808750D01*
X114421769Y-113811133D01*
X114411618Y-113817915D01*
X114411615Y-113817917D01*
X114365601Y-113848663D01*
X114365598Y-113848665D01*
X114355448Y-113855448D01*
X114348665Y-113865598D01*
X114348663Y-113865601D01*
X114317917Y-113911615D01*
X114317915Y-113911618D01*
X114311133Y-113921769D01*
X114308750Y-113933745D01*
X114308750Y-113933747D01*
X114300689Y-113974271D01*
X114300688Y-113974277D01*
X114299500Y-113980252D01*
X114299500Y-118019748D01*
X114311133Y-118078231D01*
X114355448Y-118144552D01*
X114421769Y-118188867D01*
X114480252Y-118200500D01*
X118513652Y-118200500D01*
X118519748Y-118200500D01*
X118578231Y-118188867D01*
X118644552Y-118144552D01*
X118688867Y-118078231D01*
X118700500Y-118019748D01*
X118700500Y-114240478D01*
X118709939Y-114193025D01*
X118736819Y-114152797D01*
X118915345Y-113974271D01*
X119117474Y-113772141D01*
X119176205Y-113739250D01*
X119243470Y-113741893D01*
X119299442Y-113779291D01*
X119327626Y-113840423D01*
X119319715Y-113907274D01*
X119317915Y-113911618D01*
X119311133Y-113921769D01*
X119308751Y-113933743D01*
X119308750Y-113933746D01*
X119300689Y-113974271D01*
X119300688Y-113974277D01*
X119299500Y-113980252D01*
X119299500Y-118019748D01*
X119311133Y-118078231D01*
X119355448Y-118144552D01*
X119421769Y-118188867D01*
X119480252Y-118200500D01*
X123513652Y-118200500D01*
X123519748Y-118200500D01*
X123578231Y-118188867D01*
X123644552Y-118144552D01*
X123688867Y-118078231D01*
X123700500Y-118019748D01*
X123700500Y-113980252D01*
X123688867Y-113921769D01*
X123644552Y-113855448D01*
X123622070Y-113840426D01*
X123588384Y-113817917D01*
X123588383Y-113817916D01*
X123578231Y-113811133D01*
X123574390Y-113810369D01*
X123526208Y-113772386D01*
X123502908Y-113709229D01*
X123516041Y-113643205D01*
X123561736Y-113593773D01*
X123626526Y-113575500D01*
X124373474Y-113575500D01*
X124438264Y-113593773D01*
X124483959Y-113643205D01*
X124497092Y-113709229D01*
X124473792Y-113772386D01*
X124425609Y-113810369D01*
X124421769Y-113811133D01*
X124411618Y-113817915D01*
X124411615Y-113817917D01*
X124365601Y-113848663D01*
X124365598Y-113848665D01*
X124355448Y-113855448D01*
X124348665Y-113865598D01*
X124348663Y-113865601D01*
X124317917Y-113911615D01*
X124317915Y-113911618D01*
X124311133Y-113921769D01*
X124308750Y-113933745D01*
X124308750Y-113933747D01*
X124300689Y-113974271D01*
X124300688Y-113974277D01*
X124299500Y-113980252D01*
X124299500Y-118019748D01*
X124311133Y-118078231D01*
X124355448Y-118144552D01*
X124421769Y-118188867D01*
X124480252Y-118200500D01*
X128513652Y-118200500D01*
X128519748Y-118200500D01*
X128578231Y-118188867D01*
X128644552Y-118144552D01*
X128688867Y-118078231D01*
X128700500Y-118019748D01*
X129299500Y-118019748D01*
X129311133Y-118078231D01*
X129355448Y-118144552D01*
X129421769Y-118188867D01*
X129480252Y-118200500D01*
X133513652Y-118200500D01*
X133519748Y-118200500D01*
X133578231Y-118188867D01*
X133644552Y-118144552D01*
X133688867Y-118078231D01*
X133700500Y-118019748D01*
X133700500Y-113980252D01*
X133688867Y-113921769D01*
X133644552Y-113855448D01*
X133622070Y-113840426D01*
X133588384Y-113817917D01*
X133588383Y-113817916D01*
X133578231Y-113811133D01*
X133566253Y-113808750D01*
X133566252Y-113808750D01*
X133525728Y-113800689D01*
X133525723Y-113800688D01*
X133519748Y-113799500D01*
X129480252Y-113799500D01*
X129474277Y-113800688D01*
X129474271Y-113800689D01*
X129433746Y-113808750D01*
X129433743Y-113808751D01*
X129421769Y-113811133D01*
X129411618Y-113817915D01*
X129407274Y-113819715D01*
X129340423Y-113827626D01*
X129316679Y-113816679D01*
X129327626Y-113840423D01*
X129319715Y-113907274D01*
X129317915Y-113911618D01*
X129311133Y-113921769D01*
X129308751Y-113933743D01*
X129308750Y-113933746D01*
X129300689Y-113974271D01*
X129300688Y-113974277D01*
X129299500Y-113980252D01*
X129299500Y-118019748D01*
X128700500Y-118019748D01*
X128700500Y-114240478D01*
X128709939Y-114193025D01*
X128736819Y-114152797D01*
X128915345Y-113974271D01*
X129117474Y-113772141D01*
X129176205Y-113739250D01*
X129241827Y-113741828D01*
X129239250Y-113676205D01*
X129272140Y-113617475D01*
X129352800Y-113536815D01*
X129393026Y-113509939D01*
X129440478Y-113500500D01*
X134765683Y-113500500D01*
X134789874Y-113502882D01*
X134805027Y-113505897D01*
X134832159Y-113500500D01*
X134832160Y-113500500D01*
X134912522Y-113484515D01*
X134964925Y-113449500D01*
X134980649Y-113438994D01*
X134980650Y-113438992D01*
X135003651Y-113423624D01*
X135012238Y-113410772D01*
X135027651Y-113391991D01*
X136012818Y-112406824D01*
X136062182Y-112376574D01*
X136119898Y-112372032D01*
X136173385Y-112394187D01*
X136210985Y-112438210D01*
X136224500Y-112494505D01*
X136224500Y-113675500D01*
X136207887Y-113737500D01*
X136162500Y-113782887D01*
X136100500Y-113799500D01*
X134480252Y-113799500D01*
X134474277Y-113800688D01*
X134474271Y-113800689D01*
X134433747Y-113808750D01*
X134433745Y-113808750D01*
X134421769Y-113811133D01*
X134411618Y-113817915D01*
X134411615Y-113817917D01*
X134365601Y-113848663D01*
X134365598Y-113848665D01*
X134355448Y-113855448D01*
X134348665Y-113865598D01*
X134348663Y-113865601D01*
X134317917Y-113911615D01*
X134317915Y-113911618D01*
X134311133Y-113921769D01*
X134308750Y-113933745D01*
X134308750Y-113933747D01*
X134300689Y-113974271D01*
X134300688Y-113974277D01*
X134299500Y-113980252D01*
X134299500Y-118019748D01*
X134311133Y-118078231D01*
X134355448Y-118144552D01*
X134421769Y-118188867D01*
X134480252Y-118200500D01*
X138513652Y-118200500D01*
X138519748Y-118200500D01*
X138578231Y-118188867D01*
X138644552Y-118144552D01*
X138688867Y-118078231D01*
X138700500Y-118019748D01*
X139299500Y-118019748D01*
X139311133Y-118078231D01*
X139355448Y-118144552D01*
X139421769Y-118188867D01*
X139480252Y-118200500D01*
X143513652Y-118200500D01*
X143519748Y-118200500D01*
X143578231Y-118188867D01*
X143644552Y-118144552D01*
X143688867Y-118078231D01*
X143700500Y-118019748D01*
X144299500Y-118019748D01*
X144311133Y-118078231D01*
X144355448Y-118144552D01*
X144421769Y-118188867D01*
X144480252Y-118200500D01*
X148513652Y-118200500D01*
X148519748Y-118200500D01*
X148578231Y-118188867D01*
X148644552Y-118144552D01*
X148688867Y-118078231D01*
X148700500Y-118019748D01*
X148700500Y-113980252D01*
X148688867Y-113921769D01*
X148682082Y-113911614D01*
X148680285Y-113907276D01*
X148672373Y-113840426D01*
X148683320Y-113816678D01*
X148659575Y-113827626D01*
X148592724Y-113819715D01*
X148588384Y-113817917D01*
X148578231Y-113811133D01*
X148566253Y-113808750D01*
X148566250Y-113808749D01*
X148525728Y-113800689D01*
X148525723Y-113800688D01*
X148519748Y-113799500D01*
X144480252Y-113799500D01*
X144474277Y-113800688D01*
X144474271Y-113800689D01*
X144433747Y-113808750D01*
X144433745Y-113808750D01*
X144421769Y-113811133D01*
X144411618Y-113817915D01*
X144411615Y-113817917D01*
X144365601Y-113848663D01*
X144365598Y-113848665D01*
X144355448Y-113855448D01*
X144348665Y-113865598D01*
X144348663Y-113865601D01*
X144317917Y-113911615D01*
X144317915Y-113911618D01*
X144311133Y-113921769D01*
X144308750Y-113933745D01*
X144308750Y-113933747D01*
X144300689Y-113974271D01*
X144300688Y-113974277D01*
X144299500Y-113980252D01*
X144299500Y-118019748D01*
X143700500Y-118019748D01*
X143700500Y-113980252D01*
X143688867Y-113921769D01*
X143644552Y-113855448D01*
X143622070Y-113840426D01*
X143588384Y-113817917D01*
X143588383Y-113817916D01*
X143578231Y-113811133D01*
X143566253Y-113808750D01*
X143566252Y-113808750D01*
X143525728Y-113800689D01*
X143525723Y-113800688D01*
X143519748Y-113799500D01*
X139480252Y-113799500D01*
X139474277Y-113800688D01*
X139474271Y-113800689D01*
X139433747Y-113808750D01*
X139433745Y-113808750D01*
X139421769Y-113811133D01*
X139411618Y-113817915D01*
X139411615Y-113817917D01*
X139365601Y-113848663D01*
X139365598Y-113848665D01*
X139355448Y-113855448D01*
X139348665Y-113865598D01*
X139348663Y-113865601D01*
X139317917Y-113911615D01*
X139317915Y-113911618D01*
X139311133Y-113921769D01*
X139308750Y-113933745D01*
X139308750Y-113933747D01*
X139300689Y-113974271D01*
X139300688Y-113974277D01*
X139299500Y-113980252D01*
X139299500Y-118019748D01*
X138700500Y-118019748D01*
X138700500Y-113980252D01*
X138688867Y-113921769D01*
X138644552Y-113855448D01*
X138622070Y-113840426D01*
X138588384Y-113817917D01*
X138588383Y-113817916D01*
X138578231Y-113811133D01*
X138566253Y-113808750D01*
X138566252Y-113808750D01*
X138525728Y-113800689D01*
X138525723Y-113800688D01*
X138519748Y-113799500D01*
X138513652Y-113799500D01*
X136899500Y-113799500D01*
X136837500Y-113782887D01*
X136792113Y-113737500D01*
X136775500Y-113675500D01*
X136775500Y-112190478D01*
X136784939Y-112143025D01*
X136811819Y-112102797D01*
X137581759Y-111332857D01*
X138114616Y-110800000D01*
X140019508Y-110800000D01*
X140021035Y-110809641D01*
X140037826Y-110915662D01*
X140037827Y-110915667D01*
X140039354Y-110925304D01*
X140096950Y-111038342D01*
X140103851Y-111045243D01*
X140125048Y-111066440D01*
X140155296Y-111115795D01*
X140159843Y-111173503D01*
X140144551Y-111210435D01*
X140146950Y-111211658D01*
X140126713Y-111251376D01*
X140089354Y-111324696D01*
X140087828Y-111334330D01*
X140087826Y-111334337D01*
X140073207Y-111426646D01*
X140069508Y-111450000D01*
X140071035Y-111459641D01*
X140087826Y-111565662D01*
X140087827Y-111565667D01*
X140089354Y-111575304D01*
X140146950Y-111688342D01*
X140236658Y-111778050D01*
X140349696Y-111835646D01*
X140475000Y-111855492D01*
X140600304Y-111835646D01*
X140713342Y-111778050D01*
X140729572Y-111761819D01*
X140769801Y-111734939D01*
X140817254Y-111725500D01*
X146784522Y-111725500D01*
X146831975Y-111734939D01*
X146872203Y-111761819D01*
X148727856Y-113617472D01*
X148760749Y-113676205D01*
X148758170Y-113741828D01*
X148823793Y-113739250D01*
X148882527Y-113772143D01*
X149263181Y-114152797D01*
X149290061Y-114193025D01*
X149299500Y-114240478D01*
X149299500Y-118019748D01*
X149311133Y-118078231D01*
X149355448Y-118144552D01*
X149421769Y-118188867D01*
X149480252Y-118200500D01*
X153513652Y-118200500D01*
X153519748Y-118200500D01*
X153578231Y-118188867D01*
X153644552Y-118144552D01*
X153688867Y-118078231D01*
X153700500Y-118019748D01*
X154299500Y-118019748D01*
X154311133Y-118078231D01*
X154355448Y-118144552D01*
X154421769Y-118188867D01*
X154480252Y-118200500D01*
X158513652Y-118200500D01*
X158519748Y-118200500D01*
X158578231Y-118188867D01*
X158644552Y-118144552D01*
X158688867Y-118078231D01*
X158700500Y-118019748D01*
X158700500Y-113980252D01*
X158688867Y-113921769D01*
X158682082Y-113911614D01*
X158680285Y-113907276D01*
X158672373Y-113840426D01*
X158683320Y-113816678D01*
X158659575Y-113827626D01*
X158592724Y-113819715D01*
X158588384Y-113817917D01*
X158578231Y-113811133D01*
X158566253Y-113808750D01*
X158566250Y-113808749D01*
X158525728Y-113800689D01*
X158525723Y-113800688D01*
X158519748Y-113799500D01*
X154480252Y-113799500D01*
X154474277Y-113800688D01*
X154474271Y-113800689D01*
X154433747Y-113808750D01*
X154433745Y-113808750D01*
X154421769Y-113811133D01*
X154411618Y-113817915D01*
X154411615Y-113817917D01*
X154365601Y-113848663D01*
X154365598Y-113848665D01*
X154355448Y-113855448D01*
X154348665Y-113865598D01*
X154348663Y-113865601D01*
X154317917Y-113911615D01*
X154317915Y-113911618D01*
X154311133Y-113921769D01*
X154308750Y-113933745D01*
X154308750Y-113933747D01*
X154300689Y-113974271D01*
X154300688Y-113974277D01*
X154299500Y-113980252D01*
X154299500Y-118019748D01*
X153700500Y-118019748D01*
X153700500Y-113980252D01*
X153688867Y-113921769D01*
X153644552Y-113855448D01*
X153622070Y-113840426D01*
X153588384Y-113817917D01*
X153588383Y-113817916D01*
X153578231Y-113811133D01*
X153566253Y-113808750D01*
X153566252Y-113808750D01*
X153525728Y-113800689D01*
X153525723Y-113800688D01*
X153519748Y-113799500D01*
X153513652Y-113799500D01*
X149740478Y-113799500D01*
X149693025Y-113790061D01*
X149652797Y-113763181D01*
X147176797Y-111287181D01*
X147146547Y-111237818D01*
X147142005Y-111180102D01*
X147164160Y-111126615D01*
X147208183Y-111089015D01*
X147264478Y-111075500D01*
X156134522Y-111075500D01*
X156181975Y-111084939D01*
X156222203Y-111111819D01*
X158727856Y-113617472D01*
X158760749Y-113676205D01*
X158758170Y-113741828D01*
X158823793Y-113739250D01*
X158882527Y-113772143D01*
X159263181Y-114152797D01*
X159290061Y-114193025D01*
X159299500Y-114240478D01*
X159299500Y-118019748D01*
X159311133Y-118078231D01*
X159355448Y-118144552D01*
X159421769Y-118188867D01*
X159480252Y-118200500D01*
X163513652Y-118200500D01*
X163519748Y-118200500D01*
X163578231Y-118188867D01*
X163644552Y-118144552D01*
X163688867Y-118078231D01*
X163700500Y-118019748D01*
X163700500Y-114124500D01*
X163717113Y-114062500D01*
X163762500Y-114017113D01*
X163824500Y-114000500D01*
X164175500Y-114000500D01*
X164237500Y-114017113D01*
X164282887Y-114062500D01*
X164299500Y-114124500D01*
X164299500Y-118019748D01*
X164311133Y-118078231D01*
X164355448Y-118144552D01*
X164421769Y-118188867D01*
X164480252Y-118200500D01*
X168513652Y-118200500D01*
X168519748Y-118200500D01*
X168578231Y-118188867D01*
X168644552Y-118144552D01*
X168688867Y-118078231D01*
X168700500Y-118019748D01*
X168700500Y-114124500D01*
X168717113Y-114062500D01*
X168762500Y-114017113D01*
X168824500Y-114000500D01*
X169059522Y-114000500D01*
X169106975Y-114009939D01*
X169147203Y-114036819D01*
X169263181Y-114152797D01*
X169290061Y-114193025D01*
X169299500Y-114240478D01*
X169299500Y-118019748D01*
X169311133Y-118078231D01*
X169355448Y-118144552D01*
X169421769Y-118188867D01*
X169480252Y-118200500D01*
X173513652Y-118200500D01*
X173519748Y-118200500D01*
X173578231Y-118188867D01*
X173644552Y-118144552D01*
X173688867Y-118078231D01*
X173700500Y-118019748D01*
X174299500Y-118019748D01*
X174311133Y-118078231D01*
X174355448Y-118144552D01*
X174421769Y-118188867D01*
X174480252Y-118200500D01*
X178513652Y-118200500D01*
X178519748Y-118200500D01*
X178578231Y-118188867D01*
X178644552Y-118144552D01*
X178688867Y-118078231D01*
X178700500Y-118019748D01*
X178700500Y-117500000D01*
X179494357Y-117500000D01*
X179494781Y-117505117D01*
X179514467Y-117742701D01*
X179514468Y-117742709D01*
X179514892Y-117747821D01*
X179516149Y-117752788D01*
X179516151Y-117752795D01*
X179574678Y-117983910D01*
X179575937Y-117988881D01*
X179577997Y-117993577D01*
X179673766Y-118211910D01*
X179673769Y-118211916D01*
X179675827Y-118216607D01*
X179678627Y-118220893D01*
X179678631Y-118220900D01*
X179806675Y-118416885D01*
X179811836Y-118424785D01*
X179815310Y-118428559D01*
X179815311Y-118428560D01*
X179976784Y-118603967D01*
X179976787Y-118603970D01*
X179980256Y-118607738D01*
X180176491Y-118760474D01*
X180395190Y-118878828D01*
X180630386Y-118959571D01*
X180875665Y-119000500D01*
X181119201Y-119000500D01*
X181124335Y-119000500D01*
X181369614Y-118959571D01*
X181604810Y-118878828D01*
X181823509Y-118760474D01*
X182019744Y-118607738D01*
X182188164Y-118424785D01*
X182324173Y-118216607D01*
X182424063Y-117988881D01*
X182485108Y-117747821D01*
X182505643Y-117500000D01*
X182485108Y-117252179D01*
X182424063Y-117011119D01*
X182324173Y-116783393D01*
X182188164Y-116575215D01*
X182019744Y-116392262D01*
X181823509Y-116239526D01*
X181818997Y-116237084D01*
X181609316Y-116123610D01*
X181609310Y-116123607D01*
X181604810Y-116121172D01*
X181599969Y-116119510D01*
X181599962Y-116119507D01*
X181374465Y-116042094D01*
X181374461Y-116042093D01*
X181369614Y-116040429D01*
X181360768Y-116038952D01*
X181129398Y-116000344D01*
X181129387Y-116000343D01*
X181124335Y-115999500D01*
X180875665Y-115999500D01*
X180870613Y-116000343D01*
X180870601Y-116000344D01*
X180635443Y-116039585D01*
X180635441Y-116039585D01*
X180630386Y-116040429D01*
X180625541Y-116042092D01*
X180625534Y-116042094D01*
X180400037Y-116119507D01*
X180400026Y-116119511D01*
X180395190Y-116121172D01*
X180390693Y-116123605D01*
X180390683Y-116123610D01*
X180181002Y-116237084D01*
X180180995Y-116237088D01*
X180176491Y-116239526D01*
X180172448Y-116242672D01*
X180172440Y-116242678D01*
X179984304Y-116389111D01*
X179980256Y-116392262D01*
X179976793Y-116396023D01*
X179976784Y-116396032D01*
X179815311Y-116571439D01*
X179815305Y-116571446D01*
X179811836Y-116575215D01*
X179809031Y-116579506D01*
X179809028Y-116579512D01*
X179678631Y-116779099D01*
X179678624Y-116779111D01*
X179675827Y-116783393D01*
X179673772Y-116788077D01*
X179673766Y-116788089D01*
X179577997Y-117006422D01*
X179575937Y-117011119D01*
X179574679Y-117016084D01*
X179574678Y-117016089D01*
X179516151Y-117247204D01*
X179516149Y-117247213D01*
X179514892Y-117252179D01*
X179514468Y-117257288D01*
X179514467Y-117257298D01*
X179494781Y-117494883D01*
X179494357Y-117500000D01*
X178700500Y-117500000D01*
X178700500Y-113980252D01*
X178688867Y-113921769D01*
X178644552Y-113855448D01*
X178622070Y-113840426D01*
X178588384Y-113817917D01*
X178588383Y-113817916D01*
X178578231Y-113811133D01*
X178566253Y-113808750D01*
X178566252Y-113808750D01*
X178525728Y-113800689D01*
X178525723Y-113800688D01*
X178519748Y-113799500D01*
X174480252Y-113799500D01*
X174474277Y-113800688D01*
X174474271Y-113800689D01*
X174433747Y-113808750D01*
X174433745Y-113808750D01*
X174421769Y-113811133D01*
X174411618Y-113817915D01*
X174411615Y-113817917D01*
X174365601Y-113848663D01*
X174365598Y-113848665D01*
X174355448Y-113855448D01*
X174348665Y-113865598D01*
X174348663Y-113865601D01*
X174317917Y-113911615D01*
X174317915Y-113911618D01*
X174311133Y-113921769D01*
X174308750Y-113933745D01*
X174308750Y-113933747D01*
X174300689Y-113974271D01*
X174300688Y-113974277D01*
X174299500Y-113980252D01*
X174299500Y-118019748D01*
X173700500Y-118019748D01*
X173700500Y-113980252D01*
X173688867Y-113921769D01*
X173644552Y-113855448D01*
X173622070Y-113840426D01*
X173588384Y-113817917D01*
X173588383Y-113817916D01*
X173578231Y-113811133D01*
X173566253Y-113808750D01*
X173566252Y-113808750D01*
X173525728Y-113800689D01*
X173525723Y-113800688D01*
X173519748Y-113799500D01*
X173513652Y-113799500D01*
X169740478Y-113799500D01*
X169693025Y-113790061D01*
X169652797Y-113763181D01*
X169447627Y-113558011D01*
X169432210Y-113539226D01*
X169423624Y-113526376D01*
X169400623Y-113511007D01*
X169400622Y-113511006D01*
X169360975Y-113484515D01*
X169332495Y-113465485D01*
X169320517Y-113463102D01*
X169320516Y-113463102D01*
X169252133Y-113449500D01*
X169252132Y-113449500D01*
X169225000Y-113444103D01*
X169213020Y-113446486D01*
X169209848Y-113447117D01*
X169185656Y-113449500D01*
X160000478Y-113449500D01*
X159953025Y-113440061D01*
X159912797Y-113413181D01*
X156432627Y-109933011D01*
X156417210Y-109914226D01*
X156408624Y-109901376D01*
X156385623Y-109886007D01*
X156385622Y-109886006D01*
X156336771Y-109853365D01*
X156317495Y-109840485D01*
X156305517Y-109838102D01*
X156305516Y-109838102D01*
X156237133Y-109824500D01*
X156237132Y-109824500D01*
X156210000Y-109819103D01*
X156198020Y-109821486D01*
X156194848Y-109822117D01*
X156170656Y-109824500D01*
X140767254Y-109824500D01*
X140719801Y-109815061D01*
X140679573Y-109788181D01*
X140670243Y-109778851D01*
X140663342Y-109771950D01*
X140550304Y-109714354D01*
X140540667Y-109712827D01*
X140540662Y-109712826D01*
X140434641Y-109696035D01*
X140425000Y-109694508D01*
X140415359Y-109696035D01*
X140309337Y-109712826D01*
X140309330Y-109712828D01*
X140299696Y-109714354D01*
X140291000Y-109718784D01*
X140290999Y-109718785D01*
X140195353Y-109767519D01*
X140195349Y-109767521D01*
X140186658Y-109771950D01*
X140179759Y-109778848D01*
X140179756Y-109778851D01*
X140103851Y-109854756D01*
X140103848Y-109854759D01*
X140096950Y-109861658D01*
X140092521Y-109870349D01*
X140092519Y-109870353D01*
X140060171Y-109933840D01*
X140039354Y-109974696D01*
X140037828Y-109984330D01*
X140037826Y-109984337D01*
X140025979Y-110059144D01*
X140019508Y-110100000D01*
X140021035Y-110109641D01*
X140037826Y-110215662D01*
X140037827Y-110215667D01*
X140039354Y-110225304D01*
X140096950Y-110338342D01*
X140103851Y-110345243D01*
X140120927Y-110362319D01*
X140153021Y-110417906D01*
X140153021Y-110482094D01*
X140120927Y-110537681D01*
X140103851Y-110554756D01*
X140103848Y-110554759D01*
X140096950Y-110561658D01*
X140092521Y-110570349D01*
X140092519Y-110570353D01*
X140043785Y-110665999D01*
X140039354Y-110674696D01*
X140037828Y-110684330D01*
X140037826Y-110684337D01*
X140025358Y-110763062D01*
X140019508Y-110800000D01*
X138114616Y-110800000D01*
X139902520Y-109012094D01*
X139947280Y-108983442D01*
X139999926Y-108976159D01*
X140050786Y-108991586D01*
X140090515Y-109026889D01*
X140092521Y-109029650D01*
X140096950Y-109038342D01*
X140186658Y-109128050D01*
X140299696Y-109185646D01*
X140425000Y-109205492D01*
X140550304Y-109185646D01*
X140663342Y-109128050D01*
X140753050Y-109038342D01*
X140810646Y-108925304D01*
X140830492Y-108800000D01*
X140810646Y-108674696D01*
X140753050Y-108561658D01*
X140663342Y-108471950D01*
X140654650Y-108467521D01*
X140651889Y-108465515D01*
X140616586Y-108425786D01*
X140601159Y-108374926D01*
X140608442Y-108322280D01*
X140637094Y-108277520D01*
X141214614Y-107700000D01*
X144219508Y-107700000D01*
X144221035Y-107709641D01*
X144237826Y-107815662D01*
X144237827Y-107815667D01*
X144239354Y-107825304D01*
X144296950Y-107938342D01*
X144386658Y-108028050D01*
X144499696Y-108085646D01*
X144625000Y-108105492D01*
X144750304Y-108085646D01*
X144863342Y-108028050D01*
X144953050Y-107938342D01*
X145010646Y-107825304D01*
X145030492Y-107700000D01*
X145010646Y-107574696D01*
X144953050Y-107461658D01*
X144863342Y-107371950D01*
X144750304Y-107314354D01*
X144740667Y-107312827D01*
X144740662Y-107312826D01*
X144634641Y-107296035D01*
X144625000Y-107294508D01*
X144615359Y-107296035D01*
X144509337Y-107312826D01*
X144509330Y-107312828D01*
X144499696Y-107314354D01*
X144491000Y-107318784D01*
X144490999Y-107318785D01*
X144395353Y-107367519D01*
X144395349Y-107367521D01*
X144386658Y-107371950D01*
X144379759Y-107378848D01*
X144379756Y-107378851D01*
X144303851Y-107454756D01*
X144303848Y-107454759D01*
X144296950Y-107461658D01*
X144292521Y-107470349D01*
X144292519Y-107470353D01*
X144264830Y-107524696D01*
X144239354Y-107574696D01*
X144237828Y-107584330D01*
X144237826Y-107584337D01*
X144224419Y-107668992D01*
X144219508Y-107700000D01*
X141214614Y-107700000D01*
X142514614Y-106400000D01*
X144169508Y-106400000D01*
X144171035Y-106409641D01*
X144187826Y-106515662D01*
X144187827Y-106515667D01*
X144189354Y-106525304D01*
X144246950Y-106638342D01*
X144336658Y-106728050D01*
X144449696Y-106785646D01*
X144575000Y-106805492D01*
X144700304Y-106785646D01*
X144813342Y-106728050D01*
X144903050Y-106638342D01*
X144960646Y-106525304D01*
X144980492Y-106400000D01*
X147519508Y-106400000D01*
X147521035Y-106409641D01*
X147537826Y-106515662D01*
X147537827Y-106515667D01*
X147539354Y-106525304D01*
X147596950Y-106638342D01*
X147603851Y-106645242D01*
X147603851Y-106645243D01*
X147674238Y-106715630D01*
X147702320Y-106758872D01*
X147710387Y-106809797D01*
X147697044Y-106859602D01*
X147693785Y-106865997D01*
X147693782Y-106866004D01*
X147689354Y-106874696D01*
X147687828Y-106884330D01*
X147687826Y-106884337D01*
X147675620Y-106961410D01*
X147669508Y-107000000D01*
X147671035Y-107009641D01*
X147687826Y-107115662D01*
X147687827Y-107115667D01*
X147689354Y-107125304D01*
X147746950Y-107238342D01*
X147753848Y-107245240D01*
X147758843Y-107252115D01*
X147779815Y-107299219D01*
X147779815Y-107350781D01*
X147758843Y-107397885D01*
X147753847Y-107404760D01*
X147746950Y-107411658D01*
X147742521Y-107420349D01*
X147742521Y-107420350D01*
X147721474Y-107461658D01*
X147689354Y-107524696D01*
X147687828Y-107534330D01*
X147687826Y-107534337D01*
X147671529Y-107637236D01*
X147669508Y-107650000D01*
X147671035Y-107659641D01*
X147687826Y-107765662D01*
X147687827Y-107765667D01*
X147689354Y-107775304D01*
X147693785Y-107784000D01*
X147739868Y-107874444D01*
X147746950Y-107888342D01*
X147836658Y-107978050D01*
X147949696Y-108035646D01*
X148075000Y-108055492D01*
X148200304Y-108035646D01*
X148313342Y-107978050D01*
X148403050Y-107888342D01*
X148460646Y-107775304D01*
X148480492Y-107650000D01*
X148460646Y-107524696D01*
X148403050Y-107411658D01*
X148396145Y-107404753D01*
X148391157Y-107397888D01*
X148370184Y-107350782D01*
X148370184Y-107299218D01*
X148391157Y-107252112D01*
X148396144Y-107245247D01*
X148403050Y-107238342D01*
X148460646Y-107125304D01*
X148480492Y-107000000D01*
X148460646Y-106874696D01*
X148403050Y-106761658D01*
X148341392Y-106700000D01*
X153019508Y-106700000D01*
X153021035Y-106709641D01*
X153037826Y-106815662D01*
X153037827Y-106815667D01*
X153039354Y-106825304D01*
X153096950Y-106938342D01*
X153186658Y-107028050D01*
X153299696Y-107085646D01*
X153425000Y-107105492D01*
X153550304Y-107085646D01*
X153663342Y-107028050D01*
X153753050Y-106938342D01*
X153810646Y-106825304D01*
X153830492Y-106700000D01*
X153810646Y-106574696D01*
X153753050Y-106461658D01*
X153663342Y-106371950D01*
X153550304Y-106314354D01*
X153540667Y-106312827D01*
X153540662Y-106312826D01*
X153434641Y-106296035D01*
X153425000Y-106294508D01*
X153415359Y-106296035D01*
X153309337Y-106312826D01*
X153309330Y-106312828D01*
X153299696Y-106314354D01*
X153291000Y-106318784D01*
X153290999Y-106318785D01*
X153195353Y-106367519D01*
X153195349Y-106367521D01*
X153186658Y-106371950D01*
X153179759Y-106378848D01*
X153179756Y-106378851D01*
X153103851Y-106454756D01*
X153103848Y-106454759D01*
X153096950Y-106461658D01*
X153092521Y-106470349D01*
X153092519Y-106470353D01*
X153056834Y-106540389D01*
X153039354Y-106574696D01*
X153037828Y-106584330D01*
X153037826Y-106584337D01*
X153021984Y-106684369D01*
X153019508Y-106700000D01*
X148341392Y-106700000D01*
X148325761Y-106684369D01*
X148297677Y-106641124D01*
X148289612Y-106590195D01*
X148302958Y-106540392D01*
X148310646Y-106525304D01*
X148330492Y-106400000D01*
X148310646Y-106274696D01*
X148308125Y-106269748D01*
X156629500Y-106269748D01*
X156630688Y-106275723D01*
X156630689Y-106275728D01*
X156638750Y-106316252D01*
X156641133Y-106328231D01*
X156647916Y-106338383D01*
X156647917Y-106338384D01*
X156670345Y-106371950D01*
X156685448Y-106394552D01*
X156751769Y-106438867D01*
X156810252Y-106450500D01*
X158543652Y-106450500D01*
X158549748Y-106450500D01*
X158608231Y-106438867D01*
X158674552Y-106394552D01*
X158718867Y-106328231D01*
X158730500Y-106269748D01*
X158730500Y-104530252D01*
X158718867Y-104471769D01*
X158674552Y-104405448D01*
X158608231Y-104361133D01*
X158596253Y-104358750D01*
X158596252Y-104358750D01*
X158555728Y-104350689D01*
X158555723Y-104350688D01*
X158549748Y-104349500D01*
X156810252Y-104349500D01*
X156804277Y-104350688D01*
X156804271Y-104350689D01*
X156763747Y-104358750D01*
X156763745Y-104358750D01*
X156751769Y-104361133D01*
X156741618Y-104367915D01*
X156741615Y-104367917D01*
X156695601Y-104398663D01*
X156695598Y-104398665D01*
X156685448Y-104405448D01*
X156678665Y-104415598D01*
X156678663Y-104415601D01*
X156647917Y-104461615D01*
X156647915Y-104461618D01*
X156641133Y-104471769D01*
X156638750Y-104483745D01*
X156638750Y-104483747D01*
X156630689Y-104524271D01*
X156630688Y-104524277D01*
X156629500Y-104530252D01*
X156629500Y-106269748D01*
X148308125Y-106269748D01*
X148253050Y-106161658D01*
X148229073Y-106137680D01*
X148196979Y-106082094D01*
X148196979Y-106017906D01*
X148229073Y-105962319D01*
X148229072Y-105962319D01*
X148253050Y-105938342D01*
X148310646Y-105825304D01*
X148330492Y-105700000D01*
X148310646Y-105574696D01*
X148253050Y-105461658D01*
X148254086Y-105461129D01*
X148238346Y-105425772D01*
X148238351Y-105374204D01*
X148254087Y-105338870D01*
X148253050Y-105338342D01*
X148255036Y-105334444D01*
X148310646Y-105225304D01*
X148322573Y-105150000D01*
X153019508Y-105150000D01*
X153021035Y-105159641D01*
X153037826Y-105265662D01*
X153037827Y-105265667D01*
X153039354Y-105275304D01*
X153096950Y-105388342D01*
X153186658Y-105478050D01*
X153299696Y-105535646D01*
X153425000Y-105555492D01*
X153550304Y-105535646D01*
X153663342Y-105478050D01*
X153753050Y-105388342D01*
X153810646Y-105275304D01*
X153830492Y-105150000D01*
X153810646Y-105024696D01*
X153753050Y-104911658D01*
X153663342Y-104821950D01*
X153550304Y-104764354D01*
X153540667Y-104762827D01*
X153540662Y-104762826D01*
X153434641Y-104746035D01*
X153425000Y-104744508D01*
X153415359Y-104746035D01*
X153309337Y-104762826D01*
X153309330Y-104762828D01*
X153299696Y-104764354D01*
X153291000Y-104768784D01*
X153290999Y-104768785D01*
X153195353Y-104817519D01*
X153195349Y-104817521D01*
X153186658Y-104821950D01*
X153179759Y-104828848D01*
X153179756Y-104828851D01*
X153103851Y-104904756D01*
X153103848Y-104904759D01*
X153096950Y-104911658D01*
X153092521Y-104920349D01*
X153092519Y-104920353D01*
X153064830Y-104974696D01*
X153039354Y-105024696D01*
X153037828Y-105034330D01*
X153037826Y-105034337D01*
X153028954Y-105090359D01*
X153019508Y-105150000D01*
X148322573Y-105150000D01*
X148330492Y-105100000D01*
X148310646Y-104974696D01*
X148253050Y-104861658D01*
X148246147Y-104854755D01*
X148241276Y-104848051D01*
X148219118Y-104794562D01*
X148223660Y-104736845D01*
X148253909Y-104687482D01*
X148303050Y-104638342D01*
X148360646Y-104525304D01*
X148380492Y-104400000D01*
X148360646Y-104274696D01*
X148303050Y-104161658D01*
X148213342Y-104071950D01*
X148100304Y-104014354D01*
X148090667Y-104012827D01*
X148090662Y-104012826D01*
X147984641Y-103996035D01*
X147975000Y-103994508D01*
X147965359Y-103996035D01*
X147859337Y-104012826D01*
X147859330Y-104012828D01*
X147849696Y-104014354D01*
X147841000Y-104018784D01*
X147840999Y-104018785D01*
X147745353Y-104067519D01*
X147745349Y-104067521D01*
X147736658Y-104071950D01*
X147729759Y-104078848D01*
X147729756Y-104078851D01*
X147653851Y-104154756D01*
X147653848Y-104154759D01*
X147646950Y-104161658D01*
X147642521Y-104170349D01*
X147642519Y-104170353D01*
X147596103Y-104261450D01*
X147589354Y-104274696D01*
X147587828Y-104284330D01*
X147587826Y-104284337D01*
X147577506Y-104349500D01*
X147569508Y-104400000D01*
X147571035Y-104409641D01*
X147587826Y-104515662D01*
X147587827Y-104515667D01*
X147589354Y-104525304D01*
X147593785Y-104534000D01*
X147642519Y-104629647D01*
X147642521Y-104629650D01*
X147646950Y-104638342D01*
X147653851Y-104645243D01*
X147658724Y-104651949D01*
X147680881Y-104705436D01*
X147676340Y-104763153D01*
X147646090Y-104812517D01*
X147603852Y-104854755D01*
X147603849Y-104854758D01*
X147596950Y-104861658D01*
X147592521Y-104870349D01*
X147592519Y-104870353D01*
X147567043Y-104920353D01*
X147539354Y-104974696D01*
X147537828Y-104984330D01*
X147537826Y-104984337D01*
X147521529Y-105087236D01*
X147519508Y-105100000D01*
X147521035Y-105109641D01*
X147537826Y-105215662D01*
X147537827Y-105215667D01*
X147539354Y-105225304D01*
X147546724Y-105239768D01*
X147596950Y-105338342D01*
X147595913Y-105338869D01*
X147611652Y-105374221D01*
X147611652Y-105425779D01*
X147595913Y-105461130D01*
X147596950Y-105461658D01*
X147544810Y-105563989D01*
X147539354Y-105574696D01*
X147537828Y-105584330D01*
X147537826Y-105584337D01*
X147521529Y-105687236D01*
X147519508Y-105700000D01*
X147521035Y-105709641D01*
X147537826Y-105815662D01*
X147537827Y-105815667D01*
X147539354Y-105825304D01*
X147596950Y-105938342D01*
X147603851Y-105945242D01*
X147603851Y-105945243D01*
X147620927Y-105962319D01*
X147653021Y-106017906D01*
X147653021Y-106082094D01*
X147620927Y-106137681D01*
X147603851Y-106154756D01*
X147603848Y-106154759D01*
X147596950Y-106161658D01*
X147592521Y-106170349D01*
X147592519Y-106170353D01*
X147544981Y-106263652D01*
X147539354Y-106274696D01*
X147537828Y-106284330D01*
X147537826Y-106284337D01*
X147522858Y-106378851D01*
X147519508Y-106400000D01*
X144980492Y-106400000D01*
X144960646Y-106274696D01*
X144903050Y-106161658D01*
X144813342Y-106071950D01*
X144700304Y-106014354D01*
X144690667Y-106012827D01*
X144690662Y-106012826D01*
X144584641Y-105996035D01*
X144575000Y-105994508D01*
X144565359Y-105996035D01*
X144459337Y-106012826D01*
X144459330Y-106012828D01*
X144449696Y-106014354D01*
X144441000Y-106018784D01*
X144440999Y-106018785D01*
X144345353Y-106067519D01*
X144345349Y-106067521D01*
X144336658Y-106071950D01*
X144329759Y-106078848D01*
X144329756Y-106078851D01*
X144253851Y-106154756D01*
X144253848Y-106154759D01*
X144246950Y-106161658D01*
X144242521Y-106170349D01*
X144242519Y-106170353D01*
X144194981Y-106263652D01*
X144189354Y-106274696D01*
X144187828Y-106284330D01*
X144187826Y-106284337D01*
X144172858Y-106378851D01*
X144169508Y-106400000D01*
X142514614Y-106400000D01*
X145264614Y-103650000D01*
X153019508Y-103650000D01*
X153021035Y-103659641D01*
X153037826Y-103765662D01*
X153037827Y-103765667D01*
X153039354Y-103775304D01*
X153096950Y-103888342D01*
X153186658Y-103978050D01*
X153299696Y-104035646D01*
X153425000Y-104055492D01*
X153550304Y-104035646D01*
X153663342Y-103978050D01*
X153753050Y-103888342D01*
X153810646Y-103775304D01*
X153830492Y-103650000D01*
X153810646Y-103524696D01*
X153753050Y-103411658D01*
X153663342Y-103321950D01*
X153550304Y-103264354D01*
X153540667Y-103262827D01*
X153540662Y-103262826D01*
X153434641Y-103246035D01*
X153425000Y-103244508D01*
X153415359Y-103246035D01*
X153309337Y-103262826D01*
X153309330Y-103262828D01*
X153299696Y-103264354D01*
X153291000Y-103268784D01*
X153290999Y-103268785D01*
X153195353Y-103317519D01*
X153195349Y-103317521D01*
X153186658Y-103321950D01*
X153179759Y-103328848D01*
X153179756Y-103328851D01*
X153103851Y-103404756D01*
X153103848Y-103404759D01*
X153096950Y-103411658D01*
X153092521Y-103420349D01*
X153092519Y-103420353D01*
X153054261Y-103495439D01*
X153039354Y-103524696D01*
X153037828Y-103534330D01*
X153037826Y-103534337D01*
X153021529Y-103637236D01*
X153019508Y-103650000D01*
X145264614Y-103650000D01*
X145316990Y-103597624D01*
X145335772Y-103582210D01*
X145348624Y-103573624D01*
X145367325Y-103545637D01*
X145409515Y-103482495D01*
X145430897Y-103375000D01*
X145427882Y-103359847D01*
X145425500Y-103335656D01*
X145425500Y-103223762D01*
X145441311Y-103163173D01*
X145484710Y-103118034D01*
X145544632Y-103099858D01*
X145605795Y-103113278D01*
X145640994Y-103131213D01*
X145640998Y-103131214D01*
X145649696Y-103135646D01*
X145775000Y-103155492D01*
X145900304Y-103135646D01*
X146013342Y-103078050D01*
X146103050Y-102988342D01*
X146160646Y-102875304D01*
X146180492Y-102750000D01*
X146160646Y-102624696D01*
X146103050Y-102511658D01*
X146013342Y-102421950D01*
X145900304Y-102364354D01*
X145890667Y-102362827D01*
X145890662Y-102362826D01*
X145784641Y-102346035D01*
X145775000Y-102344508D01*
X145765359Y-102346035D01*
X145659337Y-102362826D01*
X145659330Y-102362828D01*
X145649696Y-102364354D01*
X145641000Y-102368784D01*
X145640999Y-102368785D01*
X145545353Y-102417519D01*
X145545349Y-102417521D01*
X145536658Y-102421950D01*
X145529761Y-102428846D01*
X145529754Y-102428852D01*
X145517174Y-102441433D01*
X145473930Y-102469515D01*
X145423004Y-102477580D01*
X145373201Y-102464235D01*
X145339277Y-102446950D01*
X145284000Y-102418784D01*
X145283995Y-102418782D01*
X145275304Y-102414354D01*
X145265667Y-102412827D01*
X145265662Y-102412826D01*
X145159641Y-102396035D01*
X145150000Y-102394508D01*
X145140359Y-102396035D01*
X145034337Y-102412826D01*
X145034330Y-102412828D01*
X145024696Y-102414354D01*
X145016000Y-102418784D01*
X145015999Y-102418785D01*
X144926799Y-102464235D01*
X144876994Y-102477580D01*
X144826066Y-102469514D01*
X144782823Y-102441431D01*
X144770243Y-102428851D01*
X144770243Y-102428850D01*
X144763342Y-102421950D01*
X144650304Y-102364354D01*
X144640667Y-102362827D01*
X144640662Y-102362826D01*
X144534641Y-102346035D01*
X144525000Y-102344508D01*
X144515359Y-102346035D01*
X144409337Y-102362826D01*
X144409330Y-102362828D01*
X144399696Y-102364354D01*
X144391000Y-102368784D01*
X144390999Y-102368785D01*
X144286658Y-102421950D01*
X144286101Y-102420857D01*
X144251019Y-102436472D01*
X144199466Y-102436470D01*
X144164395Y-102420856D01*
X144163839Y-102421950D01*
X144050801Y-102364354D01*
X144041164Y-102362827D01*
X144041159Y-102362826D01*
X143925497Y-102344508D01*
X143925639Y-102343606D01*
X143884795Y-102334645D01*
X143842419Y-102302567D01*
X143817365Y-102255694D01*
X143814236Y-102202637D01*
X143823768Y-102142457D01*
X143830492Y-102100000D01*
X143814654Y-102000000D01*
X156769353Y-102000000D01*
X156770615Y-102008777D01*
X156788572Y-102133677D01*
X156788573Y-102133681D01*
X156789835Y-102142457D01*
X156793519Y-102150525D01*
X156793520Y-102150526D01*
X156831795Y-102234337D01*
X156849623Y-102273373D01*
X156855430Y-102280075D01*
X156855431Y-102280076D01*
X156938065Y-102375442D01*
X156938067Y-102375444D01*
X156943872Y-102382143D01*
X157064947Y-102459953D01*
X157203039Y-102500500D01*
X157338090Y-102500500D01*
X157346961Y-102500500D01*
X157485053Y-102459953D01*
X157606128Y-102382143D01*
X157700377Y-102273373D01*
X157760165Y-102142457D01*
X157780647Y-102000000D01*
X157760165Y-101857543D01*
X157700377Y-101726627D01*
X157639290Y-101656128D01*
X157611934Y-101624557D01*
X157611932Y-101624555D01*
X157606128Y-101617857D01*
X157485053Y-101540047D01*
X157416550Y-101519933D01*
X157355473Y-101501999D01*
X157355470Y-101501998D01*
X157346961Y-101499500D01*
X157203039Y-101499500D01*
X157194530Y-101501998D01*
X157194526Y-101501999D01*
X157073461Y-101537547D01*
X157064947Y-101540047D01*
X157057484Y-101544842D01*
X157057484Y-101544843D01*
X156951329Y-101613064D01*
X156951325Y-101613066D01*
X156943872Y-101617857D01*
X156938070Y-101624551D01*
X156938065Y-101624557D01*
X156855431Y-101719923D01*
X156855428Y-101719927D01*
X156849623Y-101726627D01*
X156845941Y-101734689D01*
X156845938Y-101734694D01*
X156816114Y-101800000D01*
X156789835Y-101857543D01*
X156788573Y-101866316D01*
X156788572Y-101866322D01*
X156772991Y-101974696D01*
X156769353Y-102000000D01*
X143814654Y-102000000D01*
X143810646Y-101974696D01*
X143753050Y-101861658D01*
X143754086Y-101861129D01*
X143738346Y-101825772D01*
X143738351Y-101774204D01*
X143754087Y-101738870D01*
X143753050Y-101738342D01*
X143783770Y-101678050D01*
X143810646Y-101625304D01*
X143830492Y-101500000D01*
X143810646Y-101374696D01*
X143753050Y-101261658D01*
X143754143Y-101261101D01*
X143738528Y-101226024D01*
X143738530Y-101174461D01*
X143754143Y-101139396D01*
X143753050Y-101138839D01*
X143766899Y-101111658D01*
X143810646Y-101025801D01*
X143830492Y-100900497D01*
X143810646Y-100775193D01*
X143753050Y-100662155D01*
X143663342Y-100572447D01*
X143550304Y-100514851D01*
X143540667Y-100513324D01*
X143540662Y-100513323D01*
X143434641Y-100496532D01*
X143425000Y-100495005D01*
X143415359Y-100496532D01*
X143309337Y-100513323D01*
X143309330Y-100513325D01*
X143299696Y-100514851D01*
X143291000Y-100519281D01*
X143290999Y-100519282D01*
X143195354Y-100568015D01*
X143195348Y-100568018D01*
X143186658Y-100572447D01*
X143179759Y-100579345D01*
X143179756Y-100579348D01*
X143129000Y-100630103D01*
X143110215Y-100645520D01*
X143085324Y-100662153D01*
X143085323Y-100662152D01*
X143085321Y-100662155D01*
X143048881Y-100686503D01*
X143048880Y-100686502D01*
X143048879Y-100686504D01*
X143036033Y-100695087D01*
X143036030Y-100695089D01*
X143025879Y-100701873D01*
X143017289Y-100714726D01*
X143001876Y-100733506D01*
X142797200Y-100938183D01*
X142756975Y-100965061D01*
X142709522Y-100974500D01*
X137340120Y-100974500D01*
X137288206Y-100963110D01*
X137245830Y-100931032D01*
X137220776Y-100884159D01*
X137217647Y-100831103D01*
X137228965Y-100759642D01*
X137228965Y-100759641D01*
X137230492Y-100750000D01*
X137210646Y-100624696D01*
X137153050Y-100511658D01*
X137063342Y-100421950D01*
X136950304Y-100364354D01*
X136940667Y-100362827D01*
X136940662Y-100362826D01*
X136834641Y-100346035D01*
X136825000Y-100344508D01*
X136815359Y-100346035D01*
X136709337Y-100362826D01*
X136709330Y-100362828D01*
X136699696Y-100364354D01*
X136691000Y-100368784D01*
X136690999Y-100368785D01*
X136595353Y-100417519D01*
X136595349Y-100417521D01*
X136586658Y-100421950D01*
X136579759Y-100428848D01*
X136579756Y-100428851D01*
X136503851Y-100504756D01*
X136503848Y-100504759D01*
X136496950Y-100511658D01*
X136492521Y-100520349D01*
X136492519Y-100520353D01*
X136468234Y-100568016D01*
X136439354Y-100624696D01*
X136437828Y-100634330D01*
X136437826Y-100634337D01*
X136425095Y-100714723D01*
X136419508Y-100750000D01*
X136421035Y-100759641D01*
X136437826Y-100865662D01*
X136437827Y-100865667D01*
X136439354Y-100875304D01*
X136443785Y-100884000D01*
X136484093Y-100963110D01*
X136496950Y-100988342D01*
X136503851Y-100995243D01*
X136509586Y-101003136D01*
X136507144Y-101004909D01*
X136530532Y-101045417D01*
X136530532Y-101109605D01*
X136498438Y-101165192D01*
X135046507Y-102617123D01*
X135015122Y-102639926D01*
X134978226Y-102651915D01*
X134909332Y-102662827D01*
X134909327Y-102662828D01*
X134899696Y-102664354D01*
X134891010Y-102668779D01*
X134891003Y-102668782D01*
X134795353Y-102717519D01*
X134795349Y-102717521D01*
X134786658Y-102721950D01*
X134779759Y-102728848D01*
X134779756Y-102728851D01*
X134703851Y-102804756D01*
X134703848Y-102804759D01*
X134696950Y-102811658D01*
X134692521Y-102820349D01*
X134692519Y-102820353D01*
X134643785Y-102915999D01*
X134639354Y-102924696D01*
X134637828Y-102934330D01*
X134637826Y-102934337D01*
X134622743Y-103029573D01*
X134619508Y-103050000D01*
X134621035Y-103059641D01*
X134637826Y-103165662D01*
X134637827Y-103165667D01*
X134639354Y-103175304D01*
X134696950Y-103288342D01*
X134786658Y-103378050D01*
X134899696Y-103435646D01*
X135025000Y-103455492D01*
X135150304Y-103435646D01*
X135263342Y-103378050D01*
X135270247Y-103371144D01*
X135277112Y-103366157D01*
X135324218Y-103345184D01*
X135375782Y-103345184D01*
X135422888Y-103366157D01*
X135429753Y-103371145D01*
X135436658Y-103378050D01*
X135549696Y-103435646D01*
X135675000Y-103455492D01*
X135800304Y-103435646D01*
X135913342Y-103378050D01*
X135920247Y-103371144D01*
X135927112Y-103366157D01*
X135974218Y-103345184D01*
X136025782Y-103345184D01*
X136072888Y-103366157D01*
X136079753Y-103371145D01*
X136086658Y-103378050D01*
X136199696Y-103435646D01*
X136325000Y-103455492D01*
X136450304Y-103435646D01*
X136563342Y-103378050D01*
X136579572Y-103361819D01*
X136619801Y-103334939D01*
X136667254Y-103325500D01*
X139357408Y-103325500D01*
X139381599Y-103327882D01*
X139396752Y-103330897D01*
X139423884Y-103325500D01*
X139423885Y-103325500D01*
X139504247Y-103309515D01*
X139557177Y-103274148D01*
X139572374Y-103263994D01*
X139572379Y-103263989D01*
X139574120Y-103262826D01*
X139595376Y-103248624D01*
X139603962Y-103235772D01*
X139619376Y-103216990D01*
X140424548Y-102411819D01*
X140464777Y-102384939D01*
X140512230Y-102375500D01*
X142751714Y-102375500D01*
X142812303Y-102391311D01*
X142857441Y-102434710D01*
X142875618Y-102494632D01*
X142862199Y-102555795D01*
X142821265Y-102636133D01*
X142814354Y-102649696D01*
X142812828Y-102659330D01*
X142812826Y-102659337D01*
X142797714Y-102754756D01*
X142794508Y-102775000D01*
X142796035Y-102784641D01*
X142812826Y-102890662D01*
X142812827Y-102890667D01*
X142814354Y-102900304D01*
X142818785Y-102909000D01*
X142860239Y-102990359D01*
X142871950Y-103013342D01*
X142878851Y-103020243D01*
X142888181Y-103029573D01*
X142915061Y-103069801D01*
X142924500Y-103117254D01*
X142924500Y-103674600D01*
X142915061Y-103722053D01*
X142888181Y-103762281D01*
X134437281Y-112213181D01*
X134397053Y-112240061D01*
X134349600Y-112249500D01*
X129024395Y-112249500D01*
X129000203Y-112247117D01*
X128997031Y-112246486D01*
X128985051Y-112244103D01*
X128973071Y-112246486D01*
X128889534Y-112263102D01*
X128889531Y-112263102D01*
X128877556Y-112265485D01*
X128867406Y-112272266D01*
X128867401Y-112272269D01*
X128809429Y-112311006D01*
X128809428Y-112311005D01*
X128809427Y-112311007D01*
X128796581Y-112319590D01*
X128796578Y-112319592D01*
X128786427Y-112326376D01*
X128777839Y-112339226D01*
X128762427Y-112358006D01*
X128482255Y-112638181D01*
X128442026Y-112665061D01*
X128394573Y-112674500D01*
X109589343Y-112674500D01*
X109565153Y-112672118D01*
X109561976Y-112671486D01*
X109550000Y-112669104D01*
X109538024Y-112671486D01*
X109522871Y-112674500D01*
X109522870Y-112674499D01*
X109522867Y-112674500D01*
X109457504Y-112687501D01*
X109457502Y-112687501D01*
X109442504Y-112690485D01*
X109442505Y-112690485D01*
X109425204Y-112702044D01*
X109425203Y-112702045D01*
X109374378Y-112736006D01*
X109374377Y-112736005D01*
X109374376Y-112736007D01*
X109361530Y-112744590D01*
X109361527Y-112744592D01*
X109351376Y-112751376D01*
X109342786Y-112764229D01*
X109327373Y-112783009D01*
X108347203Y-113763181D01*
X108306975Y-113790061D01*
X108259522Y-113799500D01*
X104480252Y-113799500D01*
X104474277Y-113800688D01*
X104474271Y-113800689D01*
X104433747Y-113808750D01*
X104433745Y-113808750D01*
X104421769Y-113811133D01*
X104411618Y-113817915D01*
X104411615Y-113817917D01*
X104365601Y-113848663D01*
X104365598Y-113848665D01*
X104355448Y-113855448D01*
X104348665Y-113865598D01*
X104348663Y-113865601D01*
X104317917Y-113911615D01*
X104317915Y-113911618D01*
X104311133Y-113921769D01*
X104308750Y-113933745D01*
X104308750Y-113933747D01*
X104300689Y-113974271D01*
X104300688Y-113974277D01*
X104299500Y-113980252D01*
X104299500Y-118019748D01*
X103700500Y-118019748D01*
X103700500Y-113980252D01*
X103688867Y-113921769D01*
X103644552Y-113855448D01*
X103622070Y-113840426D01*
X103588384Y-113817917D01*
X103588383Y-113817916D01*
X103578231Y-113811133D01*
X103566253Y-113808750D01*
X103566252Y-113808750D01*
X103525728Y-113800689D01*
X103525723Y-113800688D01*
X103519748Y-113799500D01*
X99480252Y-113799500D01*
X99474277Y-113800688D01*
X99474271Y-113800689D01*
X99433747Y-113808750D01*
X99433745Y-113808750D01*
X99421769Y-113811133D01*
X99411618Y-113817915D01*
X99411615Y-113817917D01*
X99365601Y-113848663D01*
X99365598Y-113848665D01*
X99355448Y-113855448D01*
X99348665Y-113865598D01*
X99348663Y-113865601D01*
X99317917Y-113911615D01*
X99317915Y-113911618D01*
X99311133Y-113921769D01*
X99308750Y-113933745D01*
X99308750Y-113933747D01*
X99300689Y-113974271D01*
X99300688Y-113974277D01*
X99299500Y-113980252D01*
X99299500Y-118019748D01*
X98410523Y-118019748D01*
X98424063Y-117988881D01*
X98485108Y-117747821D01*
X98505643Y-117500000D01*
X98485108Y-117252179D01*
X98424063Y-117011119D01*
X98324173Y-116783393D01*
X98188164Y-116575215D01*
X98019744Y-116392262D01*
X97823509Y-116239526D01*
X97818997Y-116237084D01*
X97609316Y-116123610D01*
X97609310Y-116123607D01*
X97604810Y-116121172D01*
X97599969Y-116119510D01*
X97599962Y-116119507D01*
X97374465Y-116042094D01*
X97374461Y-116042093D01*
X97369614Y-116040429D01*
X97360768Y-116038952D01*
X97129398Y-116000344D01*
X97129387Y-116000343D01*
X97124335Y-115999500D01*
X96875665Y-115999500D01*
X96870613Y-116000343D01*
X96870601Y-116000344D01*
X96635443Y-116039585D01*
X96635441Y-116039585D01*
X96630386Y-116040429D01*
X96625541Y-116042092D01*
X96625534Y-116042094D01*
X96400037Y-116119507D01*
X96400026Y-116119511D01*
X96395190Y-116121172D01*
X96390693Y-116123605D01*
X96390683Y-116123610D01*
X96181002Y-116237084D01*
X96180995Y-116237088D01*
X96176491Y-116239526D01*
X96172448Y-116242672D01*
X96172440Y-116242678D01*
X95984304Y-116389111D01*
X95980256Y-116392262D01*
X95976793Y-116396023D01*
X95976784Y-116396032D01*
X95815311Y-116571439D01*
X95815305Y-116571446D01*
X95811836Y-116575215D01*
X95809031Y-116579506D01*
X95809028Y-116579512D01*
X95678631Y-116779099D01*
X95678624Y-116779111D01*
X95675827Y-116783393D01*
X95673772Y-116788077D01*
X95673766Y-116788089D01*
X95577997Y-117006422D01*
X95575937Y-117011119D01*
X95574679Y-117016084D01*
X95574678Y-117016089D01*
X95516151Y-117247204D01*
X95516149Y-117247213D01*
X95514892Y-117252179D01*
X95514468Y-117257288D01*
X95514467Y-117257298D01*
X95494781Y-117494883D01*
X95494357Y-117500000D01*
X94000500Y-117500000D01*
X94000500Y-115003245D01*
X94000670Y-114996755D01*
X94007483Y-114866759D01*
X94007508Y-114866297D01*
X94017628Y-114686087D01*
X94018954Y-114673694D01*
X94042513Y-114524947D01*
X94042700Y-114523809D01*
X94069739Y-114364666D01*
X94072199Y-114353402D01*
X94112150Y-114204305D01*
X94112709Y-114202293D01*
X94156351Y-114050811D01*
X94159724Y-114040753D01*
X94215583Y-113895233D01*
X94216692Y-113892452D01*
X94276439Y-113748212D01*
X94280488Y-113739429D01*
X94351569Y-113599925D01*
X94353521Y-113596250D01*
X94385040Y-113539220D01*
X94428588Y-113460426D01*
X94433065Y-113452962D01*
X94518633Y-113321199D01*
X94521434Y-113317077D01*
X94611010Y-113190832D01*
X94615733Y-113184603D01*
X94714702Y-113062386D01*
X94718532Y-113057885D01*
X94821613Y-112942537D01*
X94826323Y-112937556D01*
X94937556Y-112826323D01*
X94942537Y-112821613D01*
X95057885Y-112718532D01*
X95062386Y-112714702D01*
X95184603Y-112615733D01*
X95190832Y-112611010D01*
X95317077Y-112521434D01*
X95321199Y-112518633D01*
X95452962Y-112433065D01*
X95460426Y-112428588D01*
X95596255Y-112353517D01*
X95599934Y-112351565D01*
X95604230Y-112349376D01*
X95739429Y-112280488D01*
X95748212Y-112276439D01*
X95892452Y-112216692D01*
X95895233Y-112215583D01*
X96040753Y-112159724D01*
X96050811Y-112156351D01*
X96202293Y-112112709D01*
X96204305Y-112112150D01*
X96353402Y-112072199D01*
X96364666Y-112069739D01*
X96523809Y-112042700D01*
X96524947Y-112042513D01*
X96673694Y-112018954D01*
X96686087Y-112017628D01*
X96866554Y-112007493D01*
X96996756Y-112000669D01*
X97003245Y-112000500D01*
X115154008Y-112000500D01*
X115157250Y-112000500D01*
X115470026Y-111967626D01*
X115777652Y-111902238D01*
X116076759Y-111805053D01*
X116364068Y-111677134D01*
X116636432Y-111519885D01*
X116890867Y-111335027D01*
X117124586Y-111124586D01*
X117335027Y-110890867D01*
X117519885Y-110636432D01*
X117677134Y-110364068D01*
X117805053Y-110076759D01*
X117813909Y-110049503D01*
X130419508Y-110049503D01*
X130421035Y-110059144D01*
X130437826Y-110165165D01*
X130437827Y-110165170D01*
X130439354Y-110174807D01*
X130496950Y-110287845D01*
X130586658Y-110377553D01*
X130699696Y-110435149D01*
X130825000Y-110454995D01*
X130950304Y-110435149D01*
X131063342Y-110377553D01*
X131153050Y-110287845D01*
X131210646Y-110174807D01*
X131230492Y-110049503D01*
X131210646Y-109924199D01*
X131153050Y-109811161D01*
X131153049Y-109811160D01*
X131154143Y-109810604D01*
X131138528Y-109775527D01*
X131138530Y-109723964D01*
X131154143Y-109688899D01*
X131153050Y-109688342D01*
X131179946Y-109635555D01*
X131210646Y-109575304D01*
X131230492Y-109450000D01*
X131210646Y-109324696D01*
X131153050Y-109211658D01*
X131063342Y-109121950D01*
X130950304Y-109064354D01*
X130940667Y-109062827D01*
X130940662Y-109062826D01*
X130834641Y-109046035D01*
X130825000Y-109044508D01*
X130815359Y-109046035D01*
X130709337Y-109062826D01*
X130709330Y-109062828D01*
X130699696Y-109064354D01*
X130691000Y-109068784D01*
X130690999Y-109068785D01*
X130595353Y-109117519D01*
X130595349Y-109117521D01*
X130586658Y-109121950D01*
X130579759Y-109128848D01*
X130579756Y-109128851D01*
X130503851Y-109204756D01*
X130503848Y-109204759D01*
X130496950Y-109211658D01*
X130492521Y-109220349D01*
X130492519Y-109220353D01*
X130443785Y-109315999D01*
X130439354Y-109324696D01*
X130437828Y-109334330D01*
X130437826Y-109334337D01*
X130421529Y-109437236D01*
X130419508Y-109450000D01*
X130421035Y-109459641D01*
X130437826Y-109565662D01*
X130437827Y-109565667D01*
X130439354Y-109575304D01*
X130443785Y-109584000D01*
X130496950Y-109688342D01*
X130495856Y-109688898D01*
X130511470Y-109723969D01*
X130511472Y-109775522D01*
X130495857Y-109810604D01*
X130496950Y-109811161D01*
X130444439Y-109914220D01*
X130439354Y-109924199D01*
X130437828Y-109933833D01*
X130437826Y-109933840D01*
X130431356Y-109974696D01*
X130419508Y-110049503D01*
X117813909Y-110049503D01*
X117902238Y-109777652D01*
X117967626Y-109470026D01*
X118000500Y-109157250D01*
X118000500Y-109000000D01*
X118000500Y-108999500D01*
X118000500Y-108755000D01*
X118944417Y-108755000D01*
X118945014Y-108761061D01*
X118964102Y-108954869D01*
X118964103Y-108954875D01*
X118964700Y-108960934D01*
X118966467Y-108966759D01*
X118966468Y-108966764D01*
X118990515Y-109046035D01*
X119024768Y-109158954D01*
X119027638Y-109164323D01*
X119027640Y-109164328D01*
X119107393Y-109313533D01*
X119122315Y-109341450D01*
X119253590Y-109501410D01*
X119413550Y-109632685D01*
X119596046Y-109730232D01*
X119794066Y-109790300D01*
X120000000Y-109810583D01*
X120205934Y-109790300D01*
X120403954Y-109730232D01*
X120586450Y-109632685D01*
X120746410Y-109501410D01*
X120877685Y-109341450D01*
X120975232Y-109158954D01*
X121035300Y-108960934D01*
X121055583Y-108755000D01*
X121035300Y-108549066D01*
X120975232Y-108351046D01*
X120955305Y-108313767D01*
X120940929Y-108263425D01*
X120948610Y-108211635D01*
X120976980Y-108167634D01*
X121294614Y-107850000D01*
X136869508Y-107850000D01*
X136871035Y-107859641D01*
X136887826Y-107965662D01*
X136887827Y-107965667D01*
X136889354Y-107975304D01*
X136946950Y-108088342D01*
X137036658Y-108178050D01*
X137149696Y-108235646D01*
X137275000Y-108255492D01*
X137400304Y-108235646D01*
X137513342Y-108178050D01*
X137603050Y-108088342D01*
X137660646Y-107975304D01*
X137680492Y-107850000D01*
X137660646Y-107724696D01*
X137603050Y-107611658D01*
X137513342Y-107521950D01*
X137400304Y-107464354D01*
X137390667Y-107462827D01*
X137390662Y-107462826D01*
X137284641Y-107446035D01*
X137275000Y-107444508D01*
X137265359Y-107446035D01*
X137159337Y-107462826D01*
X137159330Y-107462828D01*
X137149696Y-107464354D01*
X137141000Y-107468784D01*
X137140999Y-107468785D01*
X137045353Y-107517519D01*
X137045349Y-107517521D01*
X137036658Y-107521950D01*
X137029759Y-107528848D01*
X137029756Y-107528851D01*
X136953851Y-107604756D01*
X136953848Y-107604759D01*
X136946950Y-107611658D01*
X136942521Y-107620349D01*
X136942519Y-107620353D01*
X136902234Y-107699417D01*
X136889354Y-107724696D01*
X136887828Y-107734330D01*
X136887826Y-107734337D01*
X136873419Y-107825304D01*
X136869508Y-107850000D01*
X121294614Y-107850000D01*
X121466990Y-107677624D01*
X121485772Y-107662210D01*
X121498624Y-107653624D01*
X121543981Y-107585744D01*
X121559516Y-107562494D01*
X121580897Y-107455000D01*
X121577881Y-107439841D01*
X121575500Y-107415652D01*
X121575500Y-107041838D01*
X121589015Y-106985543D01*
X121626615Y-106941520D01*
X121680102Y-106919365D01*
X121737818Y-106923907D01*
X121787181Y-106954157D01*
X121789726Y-106956702D01*
X121793590Y-106961410D01*
X121953550Y-107092685D01*
X122136046Y-107190232D01*
X122334066Y-107250300D01*
X122540000Y-107270583D01*
X122745934Y-107250300D01*
X122943954Y-107190232D01*
X123126450Y-107092685D01*
X123286410Y-106961410D01*
X123417685Y-106801450D01*
X123515232Y-106618954D01*
X123575300Y-106420934D01*
X123595583Y-106215000D01*
X123575300Y-106009066D01*
X123515232Y-105811046D01*
X123417685Y-105628550D01*
X123286410Y-105468590D01*
X123126450Y-105337315D01*
X123010437Y-105275304D01*
X122949328Y-105242640D01*
X122949323Y-105242638D01*
X122943954Y-105239768D01*
X122896272Y-105225304D01*
X122751764Y-105181468D01*
X122751759Y-105181467D01*
X122745934Y-105179700D01*
X122739875Y-105179103D01*
X122739869Y-105179102D01*
X122546061Y-105160014D01*
X122540000Y-105159417D01*
X122533939Y-105160014D01*
X122340130Y-105179102D01*
X122340122Y-105179103D01*
X122334066Y-105179700D01*
X122328242Y-105181466D01*
X122328235Y-105181468D01*
X122141877Y-105237999D01*
X122141875Y-105237999D01*
X122136046Y-105239768D01*
X122130679Y-105242636D01*
X122130671Y-105242640D01*
X121958920Y-105334444D01*
X121958915Y-105334447D01*
X121953550Y-105337315D01*
X121948846Y-105341174D01*
X121948842Y-105341178D01*
X121798296Y-105464727D01*
X121798290Y-105464732D01*
X121793590Y-105468590D01*
X121789728Y-105473295D01*
X121787181Y-105475843D01*
X121737818Y-105506093D01*
X121680102Y-105510635D01*
X121626615Y-105488480D01*
X121589015Y-105444457D01*
X121575500Y-105388162D01*
X121575500Y-104501838D01*
X121589015Y-104445543D01*
X121626615Y-104401520D01*
X121680102Y-104379365D01*
X121737818Y-104383907D01*
X121787181Y-104414157D01*
X121789727Y-104416703D01*
X121793590Y-104421410D01*
X121953550Y-104552685D01*
X122136046Y-104650232D01*
X122334066Y-104710300D01*
X122540000Y-104730583D01*
X122745934Y-104710300D01*
X122943954Y-104650232D01*
X123126450Y-104552685D01*
X123286410Y-104421410D01*
X123417685Y-104261450D01*
X123515232Y-104078954D01*
X123575300Y-103880934D01*
X123595583Y-103675000D01*
X123575300Y-103469066D01*
X123515232Y-103271046D01*
X123417685Y-103088550D01*
X123345014Y-103000000D01*
X131869508Y-103000000D01*
X131871035Y-103009641D01*
X131887826Y-103115662D01*
X131887827Y-103115667D01*
X131889354Y-103125304D01*
X131946950Y-103238342D01*
X132036658Y-103328050D01*
X132149696Y-103385646D01*
X132275000Y-103405492D01*
X132400304Y-103385646D01*
X132513342Y-103328050D01*
X132603050Y-103238342D01*
X132660646Y-103125304D01*
X132680492Y-103000000D01*
X132660646Y-102874696D01*
X132603050Y-102761658D01*
X132513342Y-102671950D01*
X132400304Y-102614354D01*
X132390667Y-102612827D01*
X132390662Y-102612826D01*
X132284641Y-102596035D01*
X132275000Y-102594508D01*
X132265359Y-102596035D01*
X132159337Y-102612826D01*
X132159330Y-102612828D01*
X132149696Y-102614354D01*
X132141000Y-102618784D01*
X132140999Y-102618785D01*
X132045353Y-102667519D01*
X132045349Y-102667521D01*
X132036658Y-102671950D01*
X132029759Y-102678848D01*
X132029756Y-102678851D01*
X131953851Y-102754756D01*
X131953848Y-102754759D01*
X131946950Y-102761658D01*
X131942521Y-102770349D01*
X131942519Y-102770353D01*
X131893957Y-102865662D01*
X131889354Y-102874696D01*
X131887828Y-102884330D01*
X131887826Y-102884337D01*
X131874878Y-102966093D01*
X131869508Y-103000000D01*
X123345014Y-103000000D01*
X123286410Y-102928590D01*
X123126450Y-102797315D01*
X123054295Y-102758747D01*
X122949328Y-102702640D01*
X122949323Y-102702638D01*
X122943954Y-102699768D01*
X122872359Y-102678050D01*
X122751764Y-102641468D01*
X122751759Y-102641467D01*
X122745934Y-102639700D01*
X122739875Y-102639103D01*
X122739869Y-102639102D01*
X122546061Y-102620014D01*
X122540000Y-102619417D01*
X122533939Y-102620014D01*
X122340130Y-102639102D01*
X122340122Y-102639103D01*
X122334066Y-102639700D01*
X122328242Y-102641466D01*
X122328235Y-102641468D01*
X122141877Y-102697999D01*
X122141875Y-102697999D01*
X122136046Y-102699768D01*
X122130679Y-102702636D01*
X122130671Y-102702640D01*
X121958920Y-102794444D01*
X121958915Y-102794447D01*
X121953550Y-102797315D01*
X121948846Y-102801174D01*
X121948842Y-102801178D01*
X121798296Y-102924727D01*
X121798290Y-102924732D01*
X121793590Y-102928590D01*
X121789728Y-102933295D01*
X121787181Y-102935843D01*
X121737818Y-102966093D01*
X121680102Y-102970635D01*
X121626615Y-102948480D01*
X121589015Y-102904457D01*
X121575500Y-102848162D01*
X121575500Y-102565478D01*
X121584939Y-102518025D01*
X121611819Y-102477797D01*
X121946045Y-102143571D01*
X121986273Y-102116691D01*
X122033726Y-102107252D01*
X124028904Y-102107252D01*
X124053095Y-102109634D01*
X124068248Y-102112649D01*
X124095380Y-102107252D01*
X124095381Y-102107252D01*
X124175743Y-102091267D01*
X124237503Y-102050000D01*
X132319508Y-102050000D01*
X132321035Y-102059641D01*
X132337826Y-102165662D01*
X132337827Y-102165667D01*
X132339354Y-102175304D01*
X132396950Y-102288342D01*
X132486658Y-102378050D01*
X132599696Y-102435646D01*
X132725000Y-102455492D01*
X132850304Y-102435646D01*
X132963342Y-102378050D01*
X133053050Y-102288342D01*
X133110646Y-102175304D01*
X133130492Y-102050000D01*
X133110646Y-101924696D01*
X133053050Y-101811658D01*
X132963342Y-101721950D01*
X132850304Y-101664354D01*
X132840667Y-101662827D01*
X132840662Y-101662826D01*
X132734641Y-101646035D01*
X132725000Y-101644508D01*
X132715359Y-101646035D01*
X132609337Y-101662826D01*
X132609330Y-101662828D01*
X132599696Y-101664354D01*
X132591000Y-101668784D01*
X132590999Y-101668785D01*
X132495353Y-101717519D01*
X132495349Y-101717521D01*
X132486658Y-101721950D01*
X132479759Y-101728848D01*
X132479756Y-101728851D01*
X132403851Y-101804756D01*
X132403848Y-101804759D01*
X132396950Y-101811658D01*
X132392521Y-101820349D01*
X132392519Y-101820353D01*
X132359067Y-101886007D01*
X132339354Y-101924696D01*
X132337828Y-101934330D01*
X132337826Y-101934337D01*
X132322616Y-102030376D01*
X132319508Y-102050000D01*
X124237503Y-102050000D01*
X124243870Y-102045746D01*
X124243871Y-102045744D01*
X124266872Y-102030376D01*
X124275459Y-102017524D01*
X124290872Y-101998743D01*
X124939615Y-101350000D01*
X128969508Y-101350000D01*
X128971035Y-101359641D01*
X128987826Y-101465662D01*
X128987827Y-101465667D01*
X128989354Y-101475304D01*
X128993785Y-101484000D01*
X129029063Y-101553238D01*
X129046950Y-101588342D01*
X129136658Y-101678050D01*
X129249696Y-101735646D01*
X129375000Y-101755492D01*
X129500304Y-101735646D01*
X129613342Y-101678050D01*
X129703050Y-101588342D01*
X129760646Y-101475304D01*
X129780492Y-101350000D01*
X129760646Y-101224696D01*
X129703050Y-101111658D01*
X129613342Y-101021950D01*
X129500304Y-100964354D01*
X129490667Y-100962827D01*
X129490662Y-100962826D01*
X129384641Y-100946035D01*
X129375000Y-100944508D01*
X129365359Y-100946035D01*
X129259337Y-100962826D01*
X129259330Y-100962828D01*
X129249696Y-100964354D01*
X129241000Y-100968784D01*
X129240999Y-100968785D01*
X129145353Y-101017519D01*
X129145349Y-101017521D01*
X129136658Y-101021950D01*
X129129759Y-101028848D01*
X129129756Y-101028851D01*
X129053851Y-101104756D01*
X129053848Y-101104759D01*
X129046950Y-101111658D01*
X129042521Y-101120349D01*
X129042519Y-101120353D01*
X129014950Y-101174461D01*
X128989354Y-101224696D01*
X128987828Y-101234330D01*
X128987826Y-101234337D01*
X128971529Y-101337236D01*
X128969508Y-101350000D01*
X124939615Y-101350000D01*
X125539615Y-100750000D01*
X133769508Y-100750000D01*
X133771035Y-100759641D01*
X133787826Y-100865662D01*
X133787827Y-100865667D01*
X133789354Y-100875304D01*
X133793785Y-100884000D01*
X133834093Y-100963110D01*
X133846950Y-100988342D01*
X133936658Y-101078050D01*
X134049696Y-101135646D01*
X134175000Y-101155492D01*
X134300304Y-101135646D01*
X134413342Y-101078050D01*
X134503050Y-100988342D01*
X134560646Y-100875304D01*
X134580492Y-100750000D01*
X134560646Y-100624696D01*
X134503050Y-100511658D01*
X134413342Y-100421950D01*
X134300304Y-100364354D01*
X134290667Y-100362827D01*
X134290662Y-100362826D01*
X134184641Y-100346035D01*
X134175000Y-100344508D01*
X134165359Y-100346035D01*
X134059337Y-100362826D01*
X134059330Y-100362828D01*
X134049696Y-100364354D01*
X134041000Y-100368784D01*
X134040999Y-100368785D01*
X133945353Y-100417519D01*
X133945349Y-100417521D01*
X133936658Y-100421950D01*
X133929759Y-100428848D01*
X133929756Y-100428851D01*
X133853851Y-100504756D01*
X133853848Y-100504759D01*
X133846950Y-100511658D01*
X133842521Y-100520349D01*
X133842519Y-100520353D01*
X133818234Y-100568016D01*
X133789354Y-100624696D01*
X133787828Y-100634330D01*
X133787826Y-100634337D01*
X133775095Y-100714723D01*
X133769508Y-100750000D01*
X125539615Y-100750000D01*
X128364614Y-97925000D01*
X144544353Y-97925000D01*
X144545615Y-97933777D01*
X144563572Y-98058677D01*
X144563573Y-98058681D01*
X144564835Y-98067457D01*
X144568519Y-98075525D01*
X144568520Y-98075526D01*
X144585654Y-98113045D01*
X144624623Y-98198373D01*
X144630430Y-98205075D01*
X144630431Y-98205076D01*
X144713065Y-98300442D01*
X144713067Y-98300444D01*
X144718872Y-98307143D01*
X144839947Y-98384953D01*
X144978039Y-98425500D01*
X145113090Y-98425500D01*
X145121961Y-98425500D01*
X145260053Y-98384953D01*
X145381128Y-98307143D01*
X145475377Y-98198373D01*
X145535165Y-98067457D01*
X145544864Y-98000000D01*
X156214479Y-98000000D01*
X156216363Y-98010685D01*
X156232527Y-98102360D01*
X156232528Y-98102364D01*
X156234412Y-98113045D01*
X156239835Y-98122439D01*
X156239836Y-98122440D01*
X156286379Y-98203056D01*
X156286380Y-98203057D01*
X156291806Y-98212455D01*
X156379739Y-98286240D01*
X156418759Y-98300442D01*
X156477412Y-98321790D01*
X156477413Y-98321790D01*
X156487606Y-98325500D01*
X156591547Y-98325500D01*
X156602394Y-98325500D01*
X156710261Y-98286240D01*
X156798194Y-98212455D01*
X156855588Y-98113045D01*
X156875521Y-98000000D01*
X156855588Y-97886955D01*
X156798194Y-97787545D01*
X156710261Y-97713760D01*
X156700067Y-97710049D01*
X156700066Y-97710049D01*
X156612587Y-97678209D01*
X156612582Y-97678208D01*
X156602394Y-97674500D01*
X156487606Y-97674500D01*
X156477418Y-97678207D01*
X156477412Y-97678209D01*
X156389931Y-97710050D01*
X156389927Y-97710052D01*
X156379740Y-97713760D01*
X156371436Y-97720727D01*
X156371432Y-97720730D01*
X156300116Y-97780571D01*
X156300112Y-97780574D01*
X156291806Y-97787545D01*
X156286385Y-97796933D01*
X156286381Y-97796939D01*
X156239836Y-97877559D01*
X156239834Y-97877562D01*
X156234412Y-97886955D01*
X156232529Y-97897633D01*
X156232527Y-97897639D01*
X156216363Y-97989315D01*
X156214479Y-98000000D01*
X145544864Y-98000000D01*
X145555647Y-97925000D01*
X145535165Y-97782543D01*
X145475377Y-97651627D01*
X145469568Y-97644923D01*
X145386934Y-97549557D01*
X145386932Y-97549555D01*
X145381128Y-97542857D01*
X145260053Y-97465047D01*
X145204863Y-97448841D01*
X145130473Y-97426999D01*
X145130470Y-97426998D01*
X145121961Y-97424500D01*
X144978039Y-97424500D01*
X144969530Y-97426998D01*
X144969526Y-97426999D01*
X144848461Y-97462547D01*
X144839947Y-97465047D01*
X144832484Y-97469842D01*
X144832484Y-97469843D01*
X144726329Y-97538064D01*
X144726325Y-97538066D01*
X144718872Y-97542857D01*
X144713070Y-97549551D01*
X144713065Y-97549557D01*
X144630431Y-97644923D01*
X144630428Y-97644927D01*
X144624623Y-97651627D01*
X144620941Y-97659689D01*
X144620938Y-97659694D01*
X144568520Y-97774473D01*
X144564835Y-97782543D01*
X144563573Y-97791316D01*
X144563572Y-97791322D01*
X144551174Y-97877559D01*
X144544353Y-97925000D01*
X128364614Y-97925000D01*
X128939614Y-97350000D01*
X133624008Y-97350000D01*
X133625535Y-97359641D01*
X133642326Y-97465662D01*
X133642327Y-97465667D01*
X133643854Y-97475304D01*
X133701450Y-97588342D01*
X133791158Y-97678050D01*
X133904196Y-97735646D01*
X134029500Y-97755492D01*
X134154804Y-97735646D01*
X134267842Y-97678050D01*
X134357550Y-97588342D01*
X134415146Y-97475304D01*
X134434992Y-97350000D01*
X134415146Y-97224696D01*
X134357550Y-97111658D01*
X134267842Y-97021950D01*
X134154804Y-96964354D01*
X134145167Y-96962827D01*
X134145162Y-96962826D01*
X134039141Y-96946035D01*
X134029500Y-96944508D01*
X134019859Y-96946035D01*
X133913837Y-96962826D01*
X133913830Y-96962828D01*
X133904196Y-96964354D01*
X133895500Y-96968784D01*
X133895499Y-96968785D01*
X133799853Y-97017519D01*
X133799849Y-97017521D01*
X133791158Y-97021950D01*
X133784259Y-97028848D01*
X133784256Y-97028851D01*
X133708351Y-97104756D01*
X133708348Y-97104759D01*
X133701450Y-97111658D01*
X133697021Y-97120349D01*
X133697019Y-97120353D01*
X133648285Y-97215999D01*
X133643854Y-97224696D01*
X133642328Y-97234330D01*
X133642326Y-97234337D01*
X133626029Y-97337236D01*
X133624008Y-97350000D01*
X128939614Y-97350000D01*
X130089614Y-96200000D01*
X139619508Y-96200000D01*
X139621035Y-96209641D01*
X139637826Y-96315662D01*
X139637827Y-96315667D01*
X139639354Y-96325304D01*
X139696950Y-96438342D01*
X139786658Y-96528050D01*
X139899696Y-96585646D01*
X140025000Y-96605492D01*
X140150304Y-96585646D01*
X140263342Y-96528050D01*
X140353050Y-96438342D01*
X140410646Y-96325304D01*
X140430492Y-96200000D01*
X140410646Y-96074696D01*
X140353050Y-95961658D01*
X140263342Y-95871950D01*
X140150304Y-95814354D01*
X140140667Y-95812827D01*
X140140662Y-95812826D01*
X140034641Y-95796035D01*
X140025000Y-95794508D01*
X140015359Y-95796035D01*
X139909337Y-95812826D01*
X139909330Y-95812828D01*
X139899696Y-95814354D01*
X139891000Y-95818784D01*
X139890999Y-95818785D01*
X139795353Y-95867519D01*
X139795349Y-95867521D01*
X139786658Y-95871950D01*
X139779759Y-95878848D01*
X139779756Y-95878851D01*
X139703851Y-95954756D01*
X139703848Y-95954759D01*
X139696950Y-95961658D01*
X139692521Y-95970349D01*
X139692519Y-95970353D01*
X139643785Y-96065999D01*
X139639354Y-96074696D01*
X139637828Y-96084330D01*
X139637826Y-96084337D01*
X139621529Y-96187236D01*
X139619508Y-96200000D01*
X130089614Y-96200000D01*
X131139614Y-95150000D01*
X133169508Y-95150000D01*
X133171035Y-95159641D01*
X133187826Y-95265662D01*
X133187827Y-95265667D01*
X133189354Y-95275304D01*
X133246950Y-95388342D01*
X133336658Y-95478050D01*
X133449696Y-95535646D01*
X133575000Y-95555492D01*
X133700304Y-95535646D01*
X133813342Y-95478050D01*
X133903050Y-95388342D01*
X133960646Y-95275304D01*
X133980492Y-95150000D01*
X133977021Y-95128083D01*
X134875008Y-95128083D01*
X134876535Y-95137724D01*
X134893326Y-95243745D01*
X134893327Y-95243750D01*
X134894854Y-95253387D01*
X134952450Y-95366425D01*
X135042158Y-95456133D01*
X135155196Y-95513729D01*
X135280500Y-95533575D01*
X135405804Y-95513729D01*
X135518842Y-95456133D01*
X135608550Y-95366425D01*
X135666146Y-95253387D01*
X135685992Y-95128083D01*
X135666146Y-95002779D01*
X135641262Y-94953943D01*
X135627918Y-94891158D01*
X135647755Y-94830111D01*
X135695456Y-94787162D01*
X135713342Y-94778050D01*
X135803050Y-94688342D01*
X135860646Y-94575304D01*
X135880492Y-94450000D01*
X135860646Y-94324696D01*
X135803050Y-94211658D01*
X135741392Y-94150000D01*
X140669508Y-94150000D01*
X140671035Y-94159641D01*
X140687826Y-94265662D01*
X140687827Y-94265667D01*
X140689354Y-94275304D01*
X140746950Y-94388342D01*
X140836658Y-94478050D01*
X140949696Y-94535646D01*
X141075000Y-94555492D01*
X141200304Y-94535646D01*
X141313342Y-94478050D01*
X141403050Y-94388342D01*
X141422840Y-94349502D01*
X151669508Y-94349502D01*
X151671035Y-94359143D01*
X151687826Y-94465164D01*
X151687827Y-94465169D01*
X151689354Y-94474806D01*
X151693785Y-94483502D01*
X151740560Y-94575304D01*
X151746950Y-94587844D01*
X151836658Y-94677552D01*
X151949696Y-94735148D01*
X152075000Y-94754994D01*
X152200304Y-94735148D01*
X152313342Y-94677552D01*
X152403050Y-94587844D01*
X152460646Y-94474806D01*
X152480492Y-94349502D01*
X152460646Y-94224198D01*
X152403050Y-94111160D01*
X152313342Y-94021452D01*
X152271240Y-94000000D01*
X156214479Y-94000000D01*
X156216363Y-94010685D01*
X156232527Y-94102360D01*
X156232528Y-94102364D01*
X156234412Y-94113045D01*
X156239835Y-94122439D01*
X156239836Y-94122440D01*
X156286379Y-94203056D01*
X156286380Y-94203057D01*
X156291806Y-94212455D01*
X156379739Y-94286240D01*
X156404475Y-94295243D01*
X156477412Y-94321790D01*
X156477413Y-94321790D01*
X156487606Y-94325500D01*
X156591547Y-94325500D01*
X156602394Y-94325500D01*
X156710261Y-94286240D01*
X156798194Y-94212455D01*
X156855588Y-94113045D01*
X156875521Y-94000000D01*
X156855588Y-93886955D01*
X156798194Y-93787545D01*
X156710261Y-93713760D01*
X156700067Y-93710049D01*
X156700066Y-93710049D01*
X156612587Y-93678209D01*
X156612582Y-93678208D01*
X156602394Y-93674500D01*
X156487606Y-93674500D01*
X156477418Y-93678207D01*
X156477412Y-93678209D01*
X156389931Y-93710050D01*
X156389927Y-93710052D01*
X156379740Y-93713760D01*
X156371436Y-93720727D01*
X156371432Y-93720730D01*
X156300116Y-93780571D01*
X156300112Y-93780574D01*
X156291806Y-93787545D01*
X156286385Y-93796933D01*
X156286381Y-93796939D01*
X156239836Y-93877559D01*
X156239834Y-93877562D01*
X156234412Y-93886955D01*
X156232529Y-93897633D01*
X156232527Y-93897639D01*
X156220852Y-93963856D01*
X156214479Y-94000000D01*
X152271240Y-94000000D01*
X152200304Y-93963856D01*
X152190667Y-93962329D01*
X152190662Y-93962328D01*
X152084641Y-93945537D01*
X152075000Y-93944010D01*
X152065359Y-93945537D01*
X151959337Y-93962328D01*
X151959330Y-93962330D01*
X151949696Y-93963856D01*
X151941000Y-93968286D01*
X151940999Y-93968287D01*
X151845353Y-94017021D01*
X151845349Y-94017023D01*
X151836658Y-94021452D01*
X151829759Y-94028350D01*
X151829756Y-94028353D01*
X151753851Y-94104258D01*
X151753848Y-94104261D01*
X151746950Y-94111160D01*
X151742521Y-94119851D01*
X151742519Y-94119855D01*
X151709836Y-94184000D01*
X151689354Y-94224198D01*
X151687828Y-94233832D01*
X151687826Y-94233839D01*
X151671910Y-94334337D01*
X151669508Y-94349502D01*
X141422840Y-94349502D01*
X141460646Y-94275304D01*
X141480492Y-94150000D01*
X141460646Y-94024696D01*
X141403050Y-93911658D01*
X141313342Y-93821950D01*
X141200304Y-93764354D01*
X141190667Y-93762827D01*
X141190662Y-93762826D01*
X141084641Y-93746035D01*
X141075000Y-93744508D01*
X141065359Y-93746035D01*
X140959337Y-93762826D01*
X140959330Y-93762828D01*
X140949696Y-93764354D01*
X140941000Y-93768784D01*
X140940999Y-93768785D01*
X140845353Y-93817519D01*
X140845349Y-93817521D01*
X140836658Y-93821950D01*
X140829759Y-93828848D01*
X140829756Y-93828851D01*
X140753851Y-93904756D01*
X140753848Y-93904759D01*
X140746950Y-93911658D01*
X140742521Y-93920349D01*
X140742519Y-93920353D01*
X140701937Y-94000000D01*
X140689354Y-94024696D01*
X140687828Y-94034330D01*
X140687826Y-94034337D01*
X140673873Y-94122440D01*
X140669508Y-94150000D01*
X135741392Y-94150000D01*
X135713342Y-94121950D01*
X135600304Y-94064354D01*
X135590667Y-94062827D01*
X135590662Y-94062826D01*
X135484641Y-94046035D01*
X135475000Y-94044508D01*
X135465359Y-94046035D01*
X135359337Y-94062826D01*
X135359330Y-94062828D01*
X135349696Y-94064354D01*
X135341000Y-94068784D01*
X135340999Y-94068785D01*
X135245353Y-94117519D01*
X135245349Y-94117521D01*
X135236658Y-94121950D01*
X135229759Y-94128848D01*
X135229756Y-94128851D01*
X135153851Y-94204756D01*
X135153848Y-94204759D01*
X135146950Y-94211658D01*
X135142521Y-94220349D01*
X135142519Y-94220353D01*
X135108948Y-94286240D01*
X135089354Y-94324696D01*
X135087828Y-94334330D01*
X135087826Y-94334337D01*
X135072483Y-94431214D01*
X135069508Y-94450000D01*
X135071035Y-94459641D01*
X135087826Y-94565662D01*
X135087827Y-94565667D01*
X135089354Y-94575304D01*
X135099260Y-94594745D01*
X135114236Y-94624138D01*
X135127581Y-94686922D01*
X135107747Y-94747966D01*
X135060049Y-94790916D01*
X135050856Y-94795600D01*
X135050850Y-94795603D01*
X135042158Y-94800033D01*
X135035259Y-94806931D01*
X135035256Y-94806934D01*
X134959351Y-94882839D01*
X134959348Y-94882842D01*
X134952450Y-94889741D01*
X134948021Y-94898432D01*
X134948019Y-94898436D01*
X134899285Y-94994082D01*
X134894854Y-95002779D01*
X134893328Y-95012413D01*
X134893326Y-95012420D01*
X134878174Y-95108091D01*
X134875008Y-95128083D01*
X133977021Y-95128083D01*
X133960646Y-95024696D01*
X133903050Y-94911658D01*
X133813342Y-94821950D01*
X133700304Y-94764354D01*
X133690667Y-94762827D01*
X133690662Y-94762826D01*
X133584641Y-94746035D01*
X133575000Y-94744508D01*
X133565359Y-94746035D01*
X133459337Y-94762826D01*
X133459330Y-94762828D01*
X133449696Y-94764354D01*
X133441000Y-94768784D01*
X133440999Y-94768785D01*
X133345353Y-94817519D01*
X133345349Y-94817521D01*
X133336658Y-94821950D01*
X133329759Y-94828848D01*
X133329756Y-94828851D01*
X133253851Y-94904756D01*
X133253848Y-94904759D01*
X133246950Y-94911658D01*
X133242521Y-94920349D01*
X133242519Y-94920353D01*
X133200521Y-95002779D01*
X133189354Y-95024696D01*
X133187828Y-95034330D01*
X133187826Y-95034337D01*
X133174506Y-95118442D01*
X133169508Y-95150000D01*
X131139614Y-95150000D01*
X132591990Y-93697624D01*
X132610772Y-93682210D01*
X132623624Y-93673624D01*
X132684515Y-93582495D01*
X132700500Y-93502133D01*
X132700500Y-93502132D01*
X132705897Y-93475000D01*
X132702882Y-93459847D01*
X132700500Y-93435656D01*
X132700500Y-92500000D01*
X135119508Y-92500000D01*
X135121035Y-92509641D01*
X135137826Y-92615662D01*
X135137827Y-92615667D01*
X135139354Y-92625304D01*
X135196950Y-92738342D01*
X135286658Y-92828050D01*
X135399696Y-92885646D01*
X135525000Y-92905492D01*
X135650304Y-92885646D01*
X135763342Y-92828050D01*
X135853050Y-92738342D01*
X135910646Y-92625304D01*
X135930492Y-92500000D01*
X135910646Y-92374696D01*
X135853050Y-92261658D01*
X135763342Y-92171950D01*
X135650304Y-92114354D01*
X135640667Y-92112827D01*
X135640662Y-92112826D01*
X135534641Y-92096035D01*
X135525000Y-92094508D01*
X135515359Y-92096035D01*
X135409337Y-92112826D01*
X135409330Y-92112828D01*
X135399696Y-92114354D01*
X135391000Y-92118784D01*
X135390999Y-92118785D01*
X135295353Y-92167519D01*
X135295349Y-92167521D01*
X135286658Y-92171950D01*
X135279759Y-92178848D01*
X135279756Y-92178851D01*
X135203851Y-92254756D01*
X135203848Y-92254759D01*
X135196950Y-92261658D01*
X135192521Y-92270349D01*
X135192519Y-92270353D01*
X135143785Y-92365999D01*
X135139354Y-92374696D01*
X135137828Y-92384330D01*
X135137826Y-92384337D01*
X135124452Y-92468785D01*
X135119508Y-92500000D01*
X132700500Y-92500000D01*
X132700500Y-91692254D01*
X132709939Y-91644801D01*
X132736819Y-91604573D01*
X132736818Y-91604573D01*
X132753050Y-91588342D01*
X132810646Y-91475304D01*
X132830492Y-91350000D01*
X132810646Y-91224696D01*
X132772586Y-91150000D01*
X144269508Y-91150000D01*
X144271035Y-91159641D01*
X144287826Y-91265662D01*
X144287827Y-91265667D01*
X144289354Y-91275304D01*
X144346950Y-91388342D01*
X144436658Y-91478050D01*
X144549696Y-91535646D01*
X144559336Y-91537172D01*
X144559337Y-91537173D01*
X144612348Y-91545569D01*
X144675000Y-91555492D01*
X144800304Y-91535646D01*
X144913342Y-91478050D01*
X145003050Y-91388342D01*
X145060646Y-91275304D01*
X145080492Y-91150000D01*
X145060646Y-91024696D01*
X145003050Y-90911658D01*
X144913342Y-90821950D01*
X144800304Y-90764354D01*
X144790667Y-90762827D01*
X144790662Y-90762826D01*
X144684641Y-90746035D01*
X144675000Y-90744508D01*
X144665359Y-90746035D01*
X144559337Y-90762826D01*
X144559330Y-90762828D01*
X144549696Y-90764354D01*
X144541000Y-90768784D01*
X144540999Y-90768785D01*
X144445353Y-90817519D01*
X144445349Y-90817521D01*
X144436658Y-90821950D01*
X144429759Y-90828848D01*
X144429756Y-90828851D01*
X144353851Y-90904756D01*
X144353848Y-90904759D01*
X144346950Y-90911658D01*
X144342521Y-90920349D01*
X144342519Y-90920353D01*
X144317842Y-90968785D01*
X144289354Y-91024696D01*
X144287828Y-91034330D01*
X144287826Y-91034337D01*
X144271529Y-91137236D01*
X144269508Y-91150000D01*
X132772586Y-91150000D01*
X132753050Y-91111658D01*
X132663342Y-91021950D01*
X132550304Y-90964354D01*
X132540667Y-90962827D01*
X132540662Y-90962826D01*
X132434641Y-90946035D01*
X132425000Y-90944508D01*
X132415359Y-90946035D01*
X132309337Y-90962826D01*
X132309330Y-90962828D01*
X132299696Y-90964354D01*
X132291000Y-90968784D01*
X132290999Y-90968785D01*
X132195353Y-91017519D01*
X132195349Y-91017521D01*
X132186658Y-91021950D01*
X132179759Y-91028848D01*
X132179756Y-91028851D01*
X132103851Y-91104756D01*
X132103848Y-91104759D01*
X132096950Y-91111658D01*
X132092521Y-91120349D01*
X132092519Y-91120353D01*
X132072501Y-91159641D01*
X132039354Y-91224696D01*
X132037828Y-91234330D01*
X132037826Y-91234337D01*
X132029961Y-91284000D01*
X132019508Y-91350000D01*
X132021035Y-91359641D01*
X132037826Y-91465662D01*
X132037827Y-91465667D01*
X132039354Y-91475304D01*
X132096950Y-91588342D01*
X132103851Y-91595243D01*
X132113181Y-91604573D01*
X132140061Y-91644801D01*
X132149500Y-91692254D01*
X132149500Y-93309522D01*
X132140061Y-93356975D01*
X132113181Y-93397203D01*
X130334008Y-95176375D01*
X130275274Y-95209268D01*
X130208008Y-95206625D01*
X130152036Y-95169225D01*
X130123854Y-95108091D01*
X130112173Y-95034338D01*
X130112173Y-95034337D01*
X130110646Y-95024696D01*
X130053050Y-94911658D01*
X129963342Y-94821950D01*
X129850304Y-94764354D01*
X129840667Y-94762827D01*
X129840662Y-94762826D01*
X129734641Y-94746035D01*
X129725000Y-94744508D01*
X129715359Y-94746035D01*
X129609337Y-94762826D01*
X129609330Y-94762828D01*
X129599696Y-94764354D01*
X129591000Y-94768784D01*
X129590999Y-94768785D01*
X129495353Y-94817519D01*
X129495349Y-94817521D01*
X129486658Y-94821950D01*
X129479759Y-94828848D01*
X129479756Y-94828851D01*
X129403851Y-94904756D01*
X129403848Y-94904759D01*
X129396950Y-94911658D01*
X129392521Y-94920349D01*
X129392519Y-94920353D01*
X129350521Y-95002779D01*
X129339354Y-95024696D01*
X129337828Y-95034330D01*
X129337826Y-95034337D01*
X129324506Y-95118442D01*
X129319508Y-95150000D01*
X129321035Y-95159641D01*
X129337826Y-95265662D01*
X129337827Y-95265667D01*
X129339354Y-95275304D01*
X129396950Y-95388342D01*
X129486658Y-95478050D01*
X129599696Y-95535646D01*
X129683092Y-95548854D01*
X129744225Y-95577036D01*
X129781625Y-95633008D01*
X129784268Y-95700274D01*
X129751375Y-95759008D01*
X123990451Y-101519933D01*
X123950223Y-101546813D01*
X123902770Y-101556252D01*
X121907592Y-101556252D01*
X121883400Y-101553869D01*
X121880228Y-101553238D01*
X121868248Y-101550855D01*
X121856268Y-101553238D01*
X121856267Y-101553238D01*
X121841115Y-101556251D01*
X121841115Y-101556252D01*
X121772731Y-101569854D01*
X121772729Y-101569854D01*
X121760753Y-101572237D01*
X121750601Y-101579019D01*
X121750599Y-101579021D01*
X121719203Y-101600000D01*
X121719201Y-101600001D01*
X121692625Y-101617758D01*
X121692624Y-101617759D01*
X121679778Y-101626342D01*
X121679775Y-101626344D01*
X121669624Y-101633128D01*
X121661034Y-101645981D01*
X121645621Y-101664761D01*
X121133009Y-102177373D01*
X121114229Y-102192786D01*
X121101376Y-102201376D01*
X121094592Y-102211527D01*
X121094590Y-102211530D01*
X121086007Y-102224376D01*
X121086005Y-102224377D01*
X121086006Y-102224378D01*
X121071801Y-102245637D01*
X121047271Y-102282347D01*
X121047268Y-102282352D01*
X121040485Y-102292505D01*
X121038102Y-102304480D01*
X121038101Y-102304485D01*
X121032103Y-102334645D01*
X121030141Y-102344508D01*
X121019103Y-102400000D01*
X121021486Y-102411980D01*
X121022117Y-102415152D01*
X121024500Y-102439344D01*
X121024500Y-102504188D01*
X121012595Y-102557205D01*
X120979165Y-102600041D01*
X120930630Y-102624472D01*
X120881843Y-102625670D01*
X120881783Y-102626286D01*
X120876790Y-102625794D01*
X120876313Y-102625805D01*
X120869748Y-102624500D01*
X119130252Y-102624500D01*
X119124277Y-102625688D01*
X119124271Y-102625689D01*
X119083747Y-102633750D01*
X119083745Y-102633750D01*
X119071769Y-102636133D01*
X119061618Y-102642915D01*
X119061615Y-102642917D01*
X119015601Y-102673663D01*
X119015598Y-102673665D01*
X119005448Y-102680448D01*
X118998665Y-102690598D01*
X118998663Y-102690601D01*
X118967917Y-102736615D01*
X118967915Y-102736618D01*
X118961133Y-102746769D01*
X118958750Y-102758745D01*
X118958750Y-102758747D01*
X118950689Y-102799271D01*
X118950688Y-102799277D01*
X118949500Y-102805252D01*
X118949500Y-104544748D01*
X118950688Y-104550723D01*
X118950689Y-104550728D01*
X118958750Y-104591252D01*
X118961133Y-104603231D01*
X118967916Y-104613383D01*
X118967917Y-104613384D01*
X118992538Y-104650232D01*
X119005448Y-104669552D01*
X119071769Y-104713867D01*
X119130252Y-104725500D01*
X120863652Y-104725500D01*
X120869748Y-104725500D01*
X120876313Y-104724194D01*
X120876790Y-104724205D01*
X120881783Y-104723714D01*
X120881843Y-104724329D01*
X120930630Y-104725528D01*
X120979165Y-104749959D01*
X121012595Y-104792795D01*
X121024500Y-104845812D01*
X121024500Y-105460887D01*
X121009858Y-105519340D01*
X120969391Y-105563989D01*
X120912654Y-105584290D01*
X120853047Y-105575448D01*
X120804647Y-105539552D01*
X120750273Y-105473297D01*
X120750272Y-105473296D01*
X120746410Y-105468590D01*
X120586450Y-105337315D01*
X120470437Y-105275304D01*
X120409328Y-105242640D01*
X120409323Y-105242638D01*
X120403954Y-105239768D01*
X120356272Y-105225304D01*
X120211764Y-105181468D01*
X120211759Y-105181467D01*
X120205934Y-105179700D01*
X120199875Y-105179103D01*
X120199869Y-105179102D01*
X120006061Y-105160014D01*
X120000000Y-105159417D01*
X119993939Y-105160014D01*
X119800130Y-105179102D01*
X119800122Y-105179103D01*
X119794066Y-105179700D01*
X119788242Y-105181466D01*
X119788235Y-105181468D01*
X119601877Y-105237999D01*
X119601875Y-105237999D01*
X119596046Y-105239768D01*
X119590679Y-105242636D01*
X119590671Y-105242640D01*
X119418920Y-105334444D01*
X119418915Y-105334447D01*
X119413550Y-105337315D01*
X119408846Y-105341174D01*
X119408842Y-105341178D01*
X119258296Y-105464727D01*
X119258290Y-105464732D01*
X119253590Y-105468590D01*
X119249732Y-105473290D01*
X119249727Y-105473296D01*
X119126178Y-105623842D01*
X119126174Y-105623846D01*
X119122315Y-105628550D01*
X119119447Y-105633915D01*
X119119444Y-105633920D01*
X119027640Y-105805671D01*
X119027636Y-105805679D01*
X119024768Y-105811046D01*
X119022999Y-105816875D01*
X119022999Y-105816877D01*
X118966468Y-106003235D01*
X118966466Y-106003242D01*
X118964700Y-106009066D01*
X118964103Y-106015122D01*
X118964102Y-106015130D01*
X118949671Y-106161658D01*
X118944417Y-106215000D01*
X118945014Y-106221061D01*
X118964102Y-106414869D01*
X118964103Y-106414875D01*
X118964700Y-106420934D01*
X118966467Y-106426759D01*
X118966468Y-106426764D01*
X118975500Y-106456537D01*
X119024768Y-106618954D01*
X119027638Y-106624323D01*
X119027640Y-106624328D01*
X119114684Y-106787173D01*
X119122315Y-106801450D01*
X119253590Y-106961410D01*
X119413550Y-107092685D01*
X119596046Y-107190232D01*
X119794066Y-107250300D01*
X120000000Y-107270583D01*
X120205934Y-107250300D01*
X120403954Y-107190232D01*
X120586450Y-107092685D01*
X120746410Y-106961410D01*
X120804646Y-106890448D01*
X120853047Y-106854552D01*
X120912654Y-106845710D01*
X120969391Y-106866011D01*
X121009858Y-106910660D01*
X121024500Y-106969113D01*
X121024500Y-107289522D01*
X121015061Y-107336975D01*
X120988181Y-107377203D01*
X120587366Y-107778016D01*
X120543364Y-107806387D01*
X120491575Y-107814069D01*
X120441232Y-107799693D01*
X120409333Y-107782642D01*
X120409323Y-107782637D01*
X120403954Y-107779768D01*
X120357452Y-107765662D01*
X120211764Y-107721468D01*
X120211759Y-107721467D01*
X120205934Y-107719700D01*
X120199875Y-107719103D01*
X120199869Y-107719102D01*
X120006061Y-107700014D01*
X120000000Y-107699417D01*
X119993939Y-107700014D01*
X119800130Y-107719102D01*
X119800122Y-107719103D01*
X119794066Y-107719700D01*
X119788242Y-107721466D01*
X119788235Y-107721468D01*
X119601877Y-107777999D01*
X119601875Y-107777999D01*
X119596046Y-107779768D01*
X119590679Y-107782636D01*
X119590671Y-107782640D01*
X119418920Y-107874444D01*
X119418915Y-107874447D01*
X119413550Y-107877315D01*
X119408846Y-107881174D01*
X119408842Y-107881178D01*
X119258296Y-108004727D01*
X119258290Y-108004732D01*
X119253590Y-108008590D01*
X119249732Y-108013290D01*
X119249727Y-108013296D01*
X119126178Y-108163842D01*
X119126174Y-108163846D01*
X119122315Y-108168550D01*
X119119447Y-108173915D01*
X119119444Y-108173920D01*
X119027640Y-108345671D01*
X119027636Y-108345679D01*
X119024768Y-108351046D01*
X119022999Y-108356875D01*
X119022999Y-108356877D01*
X118966468Y-108543235D01*
X118966466Y-108543242D01*
X118964700Y-108549066D01*
X118964103Y-108555122D01*
X118964102Y-108555130D01*
X118962603Y-108570353D01*
X118944417Y-108755000D01*
X118000500Y-108755000D01*
X118000500Y-94050000D01*
X129319508Y-94050000D01*
X129321035Y-94059641D01*
X129337826Y-94165662D01*
X129337827Y-94165667D01*
X129339354Y-94175304D01*
X129361837Y-94219430D01*
X129392325Y-94279266D01*
X129396950Y-94288342D01*
X129486658Y-94378050D01*
X129599696Y-94435646D01*
X129725000Y-94455492D01*
X129850304Y-94435646D01*
X129963342Y-94378050D01*
X130053050Y-94288342D01*
X130110646Y-94175304D01*
X130130492Y-94050000D01*
X130110646Y-93924696D01*
X130053050Y-93811658D01*
X129963342Y-93721950D01*
X129947268Y-93713760D01*
X129898659Y-93688992D01*
X129850304Y-93664354D01*
X129840667Y-93662827D01*
X129840662Y-93662826D01*
X129734641Y-93646035D01*
X129725000Y-93644508D01*
X129715359Y-93646035D01*
X129609337Y-93662826D01*
X129609330Y-93662828D01*
X129599696Y-93664354D01*
X129591000Y-93668784D01*
X129590999Y-93668785D01*
X129495353Y-93717519D01*
X129495349Y-93717521D01*
X129486658Y-93721950D01*
X129479759Y-93728848D01*
X129479756Y-93728851D01*
X129403851Y-93804756D01*
X129403848Y-93804759D01*
X129396950Y-93811658D01*
X129392521Y-93820349D01*
X129392519Y-93820353D01*
X129358584Y-93886955D01*
X129339354Y-93924696D01*
X129337828Y-93934330D01*
X129337826Y-93934337D01*
X129321989Y-94034337D01*
X129319508Y-94050000D01*
X118000500Y-94050000D01*
X118000500Y-92280000D01*
X119444417Y-92280000D01*
X119445014Y-92286061D01*
X119464102Y-92479869D01*
X119464103Y-92479875D01*
X119464700Y-92485934D01*
X119466467Y-92491759D01*
X119466468Y-92491764D01*
X119504052Y-92615662D01*
X119524768Y-92683954D01*
X119527638Y-92689323D01*
X119527640Y-92689328D01*
X119604157Y-92832480D01*
X119622315Y-92866450D01*
X119753590Y-93026410D01*
X119913550Y-93157685D01*
X120096046Y-93255232D01*
X120294066Y-93315300D01*
X120500000Y-93335583D01*
X120705934Y-93315300D01*
X120903954Y-93255232D01*
X121086450Y-93157685D01*
X121246410Y-93026410D01*
X121377685Y-92866450D01*
X121386478Y-92850000D01*
X129369508Y-92850000D01*
X129371035Y-92859641D01*
X129387826Y-92965662D01*
X129387827Y-92965667D01*
X129389354Y-92975304D01*
X129446950Y-93088342D01*
X129536658Y-93178050D01*
X129649696Y-93235646D01*
X129775000Y-93255492D01*
X129900304Y-93235646D01*
X130013342Y-93178050D01*
X130103050Y-93088342D01*
X130160646Y-92975304D01*
X130180492Y-92850000D01*
X130160646Y-92724696D01*
X130103050Y-92611658D01*
X130013342Y-92521950D01*
X129989184Y-92509641D01*
X129909000Y-92468785D01*
X129900304Y-92464354D01*
X129890667Y-92462827D01*
X129890662Y-92462826D01*
X129784641Y-92446035D01*
X129775000Y-92444508D01*
X129765359Y-92446035D01*
X129659337Y-92462826D01*
X129659330Y-92462828D01*
X129649696Y-92464354D01*
X129641000Y-92468784D01*
X129640999Y-92468785D01*
X129545353Y-92517519D01*
X129545349Y-92517521D01*
X129536658Y-92521950D01*
X129529759Y-92528848D01*
X129529756Y-92528851D01*
X129453851Y-92604756D01*
X129453848Y-92604759D01*
X129446950Y-92611658D01*
X129442521Y-92620349D01*
X129442519Y-92620353D01*
X129410113Y-92683954D01*
X129389354Y-92724696D01*
X129387828Y-92734330D01*
X129387826Y-92734337D01*
X129372283Y-92832480D01*
X129369508Y-92850000D01*
X121386478Y-92850000D01*
X121475232Y-92683954D01*
X121535300Y-92485934D01*
X121555583Y-92280000D01*
X121535300Y-92074066D01*
X121475232Y-91876046D01*
X121447947Y-91825000D01*
X130519508Y-91825000D01*
X130521035Y-91834641D01*
X130537826Y-91940662D01*
X130537827Y-91940667D01*
X130539354Y-91950304D01*
X130596950Y-92063342D01*
X130686658Y-92153050D01*
X130799696Y-92210646D01*
X130925000Y-92230492D01*
X131050304Y-92210646D01*
X131163342Y-92153050D01*
X131253050Y-92063342D01*
X131310646Y-91950304D01*
X131330492Y-91825000D01*
X131310646Y-91699696D01*
X131253050Y-91586658D01*
X131163342Y-91496950D01*
X131050304Y-91439354D01*
X131040667Y-91437827D01*
X131040662Y-91437826D01*
X130934641Y-91421035D01*
X130925000Y-91419508D01*
X130915359Y-91421035D01*
X130809337Y-91437826D01*
X130809330Y-91437828D01*
X130799696Y-91439354D01*
X130791000Y-91443784D01*
X130790999Y-91443785D01*
X130695353Y-91492519D01*
X130695349Y-91492521D01*
X130686658Y-91496950D01*
X130679759Y-91503848D01*
X130679756Y-91503851D01*
X130603851Y-91579756D01*
X130603848Y-91579759D01*
X130596950Y-91586658D01*
X130592521Y-91595349D01*
X130592519Y-91595353D01*
X130544884Y-91688842D01*
X130539354Y-91699696D01*
X130537828Y-91709330D01*
X130537826Y-91709337D01*
X130521529Y-91812236D01*
X130519508Y-91825000D01*
X121447947Y-91825000D01*
X121377685Y-91693550D01*
X121246410Y-91533590D01*
X121086450Y-91402315D01*
X121081079Y-91399444D01*
X120909328Y-91307640D01*
X120909323Y-91307638D01*
X120903954Y-91304768D01*
X120867356Y-91293666D01*
X120711764Y-91246468D01*
X120711759Y-91246467D01*
X120705934Y-91244700D01*
X120699875Y-91244103D01*
X120699869Y-91244102D01*
X120506061Y-91225014D01*
X120500000Y-91224417D01*
X120493939Y-91225014D01*
X120300130Y-91244102D01*
X120300122Y-91244103D01*
X120294066Y-91244700D01*
X120288242Y-91246466D01*
X120288235Y-91246468D01*
X120101877Y-91302999D01*
X120101875Y-91302999D01*
X120096046Y-91304768D01*
X120090679Y-91307636D01*
X120090671Y-91307640D01*
X119918920Y-91399444D01*
X119918915Y-91399447D01*
X119913550Y-91402315D01*
X119908846Y-91406174D01*
X119908842Y-91406178D01*
X119758296Y-91529727D01*
X119758290Y-91529732D01*
X119753590Y-91533590D01*
X119749732Y-91538290D01*
X119749727Y-91538296D01*
X119626178Y-91688842D01*
X119626174Y-91688846D01*
X119622315Y-91693550D01*
X119619447Y-91698915D01*
X119619444Y-91698920D01*
X119527640Y-91870671D01*
X119527636Y-91870679D01*
X119524768Y-91876046D01*
X119522999Y-91881875D01*
X119522999Y-91881877D01*
X119466468Y-92068235D01*
X119466466Y-92068242D01*
X119464700Y-92074066D01*
X119464103Y-92080122D01*
X119464102Y-92080130D01*
X119449293Y-92230492D01*
X119444417Y-92280000D01*
X118000500Y-92280000D01*
X118000500Y-89740000D01*
X119444417Y-89740000D01*
X119445014Y-89746061D01*
X119464102Y-89939869D01*
X119464103Y-89939875D01*
X119464700Y-89945934D01*
X119466467Y-89951759D01*
X119466468Y-89951764D01*
X119488592Y-90024696D01*
X119524768Y-90143954D01*
X119527638Y-90149323D01*
X119527640Y-90149328D01*
X119599625Y-90284000D01*
X119622315Y-90326450D01*
X119753590Y-90486410D01*
X119913550Y-90617685D01*
X120096046Y-90715232D01*
X120294066Y-90775300D01*
X120500000Y-90795583D01*
X120705934Y-90775300D01*
X120903954Y-90715232D01*
X121086450Y-90617685D01*
X121246410Y-90486410D01*
X121377685Y-90326450D01*
X121472000Y-90150000D01*
X128819508Y-90150000D01*
X128821035Y-90159641D01*
X128837826Y-90265662D01*
X128837827Y-90265667D01*
X128839354Y-90275304D01*
X128896950Y-90388342D01*
X128986658Y-90478050D01*
X129099696Y-90535646D01*
X129225000Y-90555492D01*
X129350304Y-90535646D01*
X129463342Y-90478050D01*
X129553050Y-90388342D01*
X129610646Y-90275304D01*
X129630492Y-90150000D01*
X129610646Y-90024696D01*
X129553050Y-89911658D01*
X129463342Y-89821950D01*
X129350304Y-89764354D01*
X129340667Y-89762827D01*
X129340662Y-89762826D01*
X129234641Y-89746035D01*
X129225000Y-89744508D01*
X129215359Y-89746035D01*
X129109337Y-89762826D01*
X129109330Y-89762828D01*
X129099696Y-89764354D01*
X129091000Y-89768784D01*
X129090999Y-89768785D01*
X128995353Y-89817519D01*
X128995349Y-89817521D01*
X128986658Y-89821950D01*
X128979759Y-89828848D01*
X128979756Y-89828851D01*
X128903851Y-89904756D01*
X128903848Y-89904759D01*
X128896950Y-89911658D01*
X128892521Y-89920349D01*
X128892519Y-89920353D01*
X128843785Y-90015999D01*
X128839354Y-90024696D01*
X128837828Y-90034330D01*
X128837826Y-90034337D01*
X128821529Y-90137236D01*
X128819508Y-90150000D01*
X121472000Y-90150000D01*
X121475232Y-90143954D01*
X121535300Y-89945934D01*
X121555583Y-89740000D01*
X121535300Y-89534066D01*
X121475232Y-89336046D01*
X121377685Y-89153550D01*
X121246410Y-88993590D01*
X121086450Y-88862315D01*
X121081079Y-88859444D01*
X120909328Y-88767640D01*
X120909323Y-88767638D01*
X120903954Y-88764768D01*
X120867356Y-88753666D01*
X120711764Y-88706468D01*
X120711759Y-88706467D01*
X120705934Y-88704700D01*
X120699875Y-88704103D01*
X120699869Y-88704102D01*
X120506061Y-88685014D01*
X120500000Y-88684417D01*
X120493939Y-88685014D01*
X120300130Y-88704102D01*
X120300122Y-88704103D01*
X120294066Y-88704700D01*
X120288242Y-88706466D01*
X120288235Y-88706468D01*
X120101877Y-88762999D01*
X120101875Y-88762999D01*
X120096046Y-88764768D01*
X120090679Y-88767636D01*
X120090671Y-88767640D01*
X119918920Y-88859444D01*
X119918915Y-88859447D01*
X119913550Y-88862315D01*
X119908846Y-88866174D01*
X119908842Y-88866178D01*
X119758296Y-88989727D01*
X119758290Y-88989732D01*
X119753590Y-88993590D01*
X119749732Y-88998290D01*
X119749727Y-88998296D01*
X119626178Y-89148842D01*
X119626174Y-89148846D01*
X119622315Y-89153550D01*
X119619447Y-89158915D01*
X119619444Y-89158920D01*
X119527640Y-89330671D01*
X119527636Y-89330679D01*
X119524768Y-89336046D01*
X119522999Y-89341875D01*
X119522999Y-89341877D01*
X119466468Y-89528235D01*
X119466466Y-89528242D01*
X119464700Y-89534066D01*
X119464103Y-89540122D01*
X119464102Y-89540130D01*
X119445890Y-89725040D01*
X119444417Y-89740000D01*
X118000500Y-89740000D01*
X118000500Y-88069748D01*
X119449500Y-88069748D01*
X119461133Y-88128231D01*
X119467916Y-88138383D01*
X119467917Y-88138384D01*
X119492586Y-88175304D01*
X119505448Y-88194552D01*
X119571769Y-88238867D01*
X119630252Y-88250500D01*
X121363652Y-88250500D01*
X121369748Y-88250500D01*
X121428231Y-88238867D01*
X121494552Y-88194552D01*
X121538867Y-88128231D01*
X121550500Y-88069748D01*
X121550500Y-88050000D01*
X137569508Y-88050000D01*
X137571035Y-88059641D01*
X137587826Y-88165662D01*
X137587827Y-88165667D01*
X137589354Y-88175304D01*
X137646950Y-88288342D01*
X137736658Y-88378050D01*
X137849696Y-88435646D01*
X137975000Y-88455492D01*
X138100304Y-88435646D01*
X138213342Y-88378050D01*
X138303050Y-88288342D01*
X138360646Y-88175304D01*
X138380492Y-88050000D01*
X138360646Y-87924696D01*
X138303050Y-87811658D01*
X138213342Y-87721950D01*
X138100304Y-87664354D01*
X138090667Y-87662827D01*
X138090662Y-87662826D01*
X137984641Y-87646035D01*
X137975000Y-87644508D01*
X137965359Y-87646035D01*
X137859337Y-87662826D01*
X137859330Y-87662828D01*
X137849696Y-87664354D01*
X137841000Y-87668784D01*
X137840999Y-87668785D01*
X137745353Y-87717519D01*
X137745349Y-87717521D01*
X137736658Y-87721950D01*
X137729759Y-87728848D01*
X137729756Y-87728851D01*
X137653851Y-87804756D01*
X137653848Y-87804759D01*
X137646950Y-87811658D01*
X137642521Y-87820349D01*
X137642519Y-87820353D01*
X137593785Y-87915999D01*
X137589354Y-87924696D01*
X137587828Y-87934330D01*
X137587826Y-87934337D01*
X137576799Y-88003965D01*
X137569508Y-88050000D01*
X121550500Y-88050000D01*
X121550500Y-87600000D01*
X134169008Y-87600000D01*
X134170535Y-87609641D01*
X134187326Y-87715662D01*
X134187327Y-87715667D01*
X134188854Y-87725304D01*
X134246450Y-87838342D01*
X134336158Y-87928050D01*
X134449196Y-87985646D01*
X134574500Y-88005492D01*
X134699804Y-87985646D01*
X134812842Y-87928050D01*
X134902550Y-87838342D01*
X134960146Y-87725304D01*
X134979992Y-87600000D01*
X134960146Y-87474696D01*
X134902550Y-87361658D01*
X134812842Y-87271950D01*
X134699804Y-87214354D01*
X134690167Y-87212827D01*
X134690162Y-87212826D01*
X134584141Y-87196035D01*
X134574500Y-87194508D01*
X134564859Y-87196035D01*
X134458837Y-87212826D01*
X134458830Y-87212828D01*
X134449196Y-87214354D01*
X134440500Y-87218784D01*
X134440499Y-87218785D01*
X134344853Y-87267519D01*
X134344849Y-87267521D01*
X134336158Y-87271950D01*
X134329259Y-87278848D01*
X134329256Y-87278851D01*
X134253351Y-87354756D01*
X134253348Y-87354759D01*
X134246450Y-87361658D01*
X134242021Y-87370349D01*
X134242019Y-87370353D01*
X134203400Y-87446148D01*
X134188854Y-87474696D01*
X134187328Y-87484330D01*
X134187326Y-87484337D01*
X134172232Y-87579646D01*
X134169008Y-87600000D01*
X121550500Y-87600000D01*
X121550500Y-87125000D01*
X128494508Y-87125000D01*
X128496035Y-87134641D01*
X128512826Y-87240662D01*
X128512827Y-87240667D01*
X128514354Y-87250304D01*
X128543151Y-87306822D01*
X128560239Y-87340359D01*
X128571950Y-87363342D01*
X128661658Y-87453050D01*
X128774696Y-87510646D01*
X128900000Y-87530492D01*
X129025304Y-87510646D01*
X129138342Y-87453050D01*
X129228050Y-87363342D01*
X129285646Y-87250304D01*
X129305492Y-87125000D01*
X129285646Y-86999696D01*
X129228050Y-86886658D01*
X129138342Y-86796950D01*
X129025304Y-86739354D01*
X129015667Y-86737827D01*
X129015662Y-86737826D01*
X128909641Y-86721035D01*
X128900000Y-86719508D01*
X128890359Y-86721035D01*
X128784337Y-86737826D01*
X128784330Y-86737828D01*
X128774696Y-86739354D01*
X128766000Y-86743784D01*
X128765999Y-86743785D01*
X128670353Y-86792519D01*
X128670349Y-86792521D01*
X128661658Y-86796950D01*
X128654759Y-86803848D01*
X128654756Y-86803851D01*
X128578851Y-86879756D01*
X128578848Y-86879759D01*
X128571950Y-86886658D01*
X128567521Y-86895349D01*
X128567519Y-86895353D01*
X128530104Y-86968785D01*
X128514354Y-86999696D01*
X128512828Y-87009330D01*
X128512826Y-87009337D01*
X128497714Y-87104756D01*
X128494508Y-87125000D01*
X121550500Y-87125000D01*
X121550500Y-86700000D01*
X144919508Y-86700000D01*
X144921035Y-86709641D01*
X144937826Y-86815662D01*
X144937827Y-86815667D01*
X144939354Y-86825304D01*
X144996950Y-86938342D01*
X145003850Y-86945242D01*
X145003851Y-86945243D01*
X145057992Y-86999384D01*
X145086075Y-87042627D01*
X145094141Y-87093554D01*
X145080796Y-87143359D01*
X145043786Y-87215996D01*
X145043785Y-87215999D01*
X145039354Y-87224696D01*
X145037828Y-87234330D01*
X145037826Y-87234337D01*
X145021529Y-87337236D01*
X145019508Y-87350000D01*
X145021035Y-87359641D01*
X145037826Y-87465662D01*
X145037827Y-87465667D01*
X145039354Y-87475304D01*
X145096950Y-87588342D01*
X145186658Y-87678050D01*
X145299696Y-87735646D01*
X145425000Y-87755492D01*
X145550304Y-87735646D01*
X145663342Y-87678050D01*
X145753050Y-87588342D01*
X145810646Y-87475304D01*
X145830492Y-87350000D01*
X149069508Y-87350000D01*
X149071035Y-87359641D01*
X149087826Y-87465662D01*
X149087827Y-87465667D01*
X149089354Y-87475304D01*
X149146950Y-87588342D01*
X149236658Y-87678050D01*
X149349696Y-87735646D01*
X149475000Y-87755492D01*
X149600304Y-87735646D01*
X149713342Y-87678050D01*
X149803050Y-87588342D01*
X149860646Y-87475304D01*
X149880492Y-87350000D01*
X149860646Y-87224696D01*
X149803050Y-87111658D01*
X149713342Y-87021950D01*
X149600304Y-86964354D01*
X149590667Y-86962827D01*
X149590662Y-86962826D01*
X149484641Y-86946035D01*
X149475000Y-86944508D01*
X149465359Y-86946035D01*
X149359337Y-86962826D01*
X149359330Y-86962828D01*
X149349696Y-86964354D01*
X149341000Y-86968784D01*
X149340999Y-86968785D01*
X149245353Y-87017519D01*
X149245349Y-87017521D01*
X149236658Y-87021950D01*
X149229759Y-87028848D01*
X149229756Y-87028851D01*
X149153851Y-87104756D01*
X149153848Y-87104759D01*
X149146950Y-87111658D01*
X149142521Y-87120349D01*
X149142519Y-87120353D01*
X149093787Y-87215996D01*
X149089354Y-87224696D01*
X149087828Y-87234330D01*
X149087826Y-87234337D01*
X149071529Y-87337236D01*
X149069508Y-87350000D01*
X145830492Y-87350000D01*
X145810646Y-87224696D01*
X145753050Y-87111658D01*
X145692007Y-87050615D01*
X145663924Y-87007371D01*
X145655858Y-86956444D01*
X145669204Y-86906638D01*
X145706214Y-86834002D01*
X145706215Y-86834000D01*
X145710646Y-86825304D01*
X145730492Y-86700000D01*
X145710646Y-86574696D01*
X145653050Y-86461658D01*
X145563342Y-86371950D01*
X145450304Y-86314354D01*
X145440667Y-86312827D01*
X145440662Y-86312826D01*
X145334641Y-86296035D01*
X145325000Y-86294508D01*
X145315359Y-86296035D01*
X145209337Y-86312826D01*
X145209330Y-86312828D01*
X145199696Y-86314354D01*
X145191000Y-86318784D01*
X145190999Y-86318785D01*
X145095353Y-86367519D01*
X145095349Y-86367521D01*
X145086658Y-86371950D01*
X145079759Y-86378848D01*
X145079756Y-86378851D01*
X145003851Y-86454756D01*
X145003848Y-86454759D01*
X144996950Y-86461658D01*
X144992521Y-86470349D01*
X144992519Y-86470353D01*
X144943785Y-86565999D01*
X144939354Y-86574696D01*
X144937828Y-86584330D01*
X144937826Y-86584337D01*
X144921529Y-86687236D01*
X144919508Y-86700000D01*
X121550500Y-86700000D01*
X121550500Y-86330252D01*
X121538867Y-86271769D01*
X121494552Y-86205448D01*
X121428231Y-86161133D01*
X121416253Y-86158750D01*
X121416252Y-86158750D01*
X121375728Y-86150689D01*
X121375723Y-86150688D01*
X121369748Y-86149500D01*
X119630252Y-86149500D01*
X119624277Y-86150688D01*
X119624271Y-86150689D01*
X119583747Y-86158750D01*
X119583745Y-86158750D01*
X119571769Y-86161133D01*
X119561618Y-86167915D01*
X119561615Y-86167917D01*
X119515601Y-86198663D01*
X119515598Y-86198665D01*
X119505448Y-86205448D01*
X119498665Y-86215598D01*
X119498663Y-86215601D01*
X119467917Y-86261615D01*
X119467915Y-86261618D01*
X119461133Y-86271769D01*
X119458750Y-86283745D01*
X119458750Y-86283747D01*
X119450689Y-86324271D01*
X119450688Y-86324277D01*
X119449500Y-86330252D01*
X119449500Y-88069748D01*
X118000500Y-88069748D01*
X118000500Y-85550000D01*
X129569508Y-85550000D01*
X129571035Y-85559641D01*
X129587826Y-85665662D01*
X129587827Y-85665667D01*
X129589354Y-85675304D01*
X129646950Y-85788342D01*
X129736658Y-85878050D01*
X129849696Y-85935646D01*
X129975000Y-85955492D01*
X130100304Y-85935646D01*
X130213342Y-85878050D01*
X130303050Y-85788342D01*
X130360646Y-85675304D01*
X130380492Y-85550000D01*
X130378965Y-85540359D01*
X130378965Y-85530602D01*
X130381923Y-85530602D01*
X130386785Y-85484016D01*
X130424360Y-85432115D01*
X130482826Y-85405901D01*
X130546572Y-85412371D01*
X130687155Y-85465688D01*
X130809143Y-85480500D01*
X130887108Y-85480500D01*
X130890857Y-85480500D01*
X131012845Y-85465688D01*
X131103065Y-85431471D01*
X131161981Y-85424318D01*
X131217475Y-85445364D01*
X131256831Y-85489788D01*
X131270354Y-85544654D01*
X131269508Y-85550000D01*
X131271035Y-85559641D01*
X131287826Y-85665662D01*
X131287827Y-85665667D01*
X131289354Y-85675304D01*
X131346950Y-85788342D01*
X131436658Y-85878050D01*
X131549696Y-85935646D01*
X131675000Y-85955492D01*
X131800304Y-85935646D01*
X131913342Y-85878050D01*
X132003050Y-85788342D01*
X132060646Y-85675304D01*
X132080492Y-85550000D01*
X134769508Y-85550000D01*
X134771035Y-85559641D01*
X134787826Y-85665662D01*
X134787827Y-85665667D01*
X134789354Y-85675304D01*
X134846950Y-85788342D01*
X134936658Y-85878050D01*
X135049696Y-85935646D01*
X135175000Y-85955492D01*
X135300304Y-85935646D01*
X135413342Y-85878050D01*
X135503050Y-85788342D01*
X135560646Y-85675304D01*
X135580492Y-85550000D01*
X135560646Y-85424696D01*
X135503050Y-85311658D01*
X135413342Y-85221950D01*
X135300304Y-85164354D01*
X135290667Y-85162827D01*
X135290662Y-85162826D01*
X135184641Y-85146035D01*
X135175000Y-85144508D01*
X135165359Y-85146035D01*
X135059337Y-85162826D01*
X135059330Y-85162828D01*
X135049696Y-85164354D01*
X135041000Y-85168784D01*
X135040999Y-85168785D01*
X134945353Y-85217519D01*
X134945349Y-85217521D01*
X134936658Y-85221950D01*
X134929759Y-85228848D01*
X134929756Y-85228851D01*
X134853851Y-85304756D01*
X134853848Y-85304759D01*
X134846950Y-85311658D01*
X134842521Y-85320349D01*
X134842519Y-85320353D01*
X134795633Y-85412372D01*
X134789354Y-85424696D01*
X134787828Y-85434330D01*
X134787826Y-85434337D01*
X134772580Y-85530602D01*
X134769508Y-85550000D01*
X132080492Y-85550000D01*
X132060646Y-85424696D01*
X132003050Y-85311658D01*
X131913342Y-85221950D01*
X131800304Y-85164354D01*
X131790667Y-85162827D01*
X131790662Y-85162826D01*
X131684641Y-85146035D01*
X131675000Y-85144508D01*
X131665359Y-85146035D01*
X131637877Y-85150387D01*
X131577677Y-85145006D01*
X131527171Y-85111807D01*
X131498360Y-85058676D01*
X131498087Y-84998238D01*
X131525500Y-84887021D01*
X136974500Y-84887021D01*
X136976293Y-84894296D01*
X136976294Y-84894302D01*
X137001912Y-84998236D01*
X137013758Y-85046295D01*
X137017241Y-85052932D01*
X137017243Y-85052936D01*
X137075720Y-85164354D01*
X137089992Y-85191546D01*
X137094965Y-85197160D01*
X137094967Y-85197162D01*
X137123041Y-85228851D01*
X137198771Y-85314332D01*
X137333774Y-85407518D01*
X137396935Y-85431472D01*
X137480138Y-85463027D01*
X137480139Y-85463027D01*
X137487155Y-85465688D01*
X137609143Y-85480500D01*
X137687108Y-85480500D01*
X137690857Y-85480500D01*
X137812845Y-85465688D01*
X137966226Y-85407518D01*
X138101229Y-85314332D01*
X138210008Y-85191546D01*
X138286242Y-85046295D01*
X138325500Y-84887021D01*
X138325500Y-84722979D01*
X138286242Y-84563705D01*
X138210008Y-84418454D01*
X138202200Y-84409641D01*
X138193659Y-84400000D01*
X145769508Y-84400000D01*
X145771035Y-84409641D01*
X145787826Y-84515662D01*
X145787827Y-84515667D01*
X145789354Y-84525304D01*
X145846950Y-84638342D01*
X145936658Y-84728050D01*
X146049696Y-84785646D01*
X146175000Y-84805492D01*
X146300304Y-84785646D01*
X146413342Y-84728050D01*
X146503050Y-84638342D01*
X146560646Y-84525304D01*
X146580492Y-84400000D01*
X146560646Y-84274696D01*
X146503050Y-84161658D01*
X146413342Y-84071950D01*
X146300304Y-84014354D01*
X146290667Y-84012827D01*
X146290662Y-84012826D01*
X146184641Y-83996035D01*
X146175000Y-83994508D01*
X146165359Y-83996035D01*
X146059337Y-84012826D01*
X146059330Y-84012828D01*
X146049696Y-84014354D01*
X146041000Y-84018784D01*
X146040999Y-84018785D01*
X145945353Y-84067519D01*
X145945349Y-84067521D01*
X145936658Y-84071950D01*
X145929759Y-84078848D01*
X145929756Y-84078851D01*
X145853851Y-84154756D01*
X145853848Y-84154759D01*
X145846950Y-84161658D01*
X145842521Y-84170349D01*
X145842519Y-84170353D01*
X145793785Y-84265999D01*
X145789354Y-84274696D01*
X145787828Y-84284330D01*
X145787826Y-84284337D01*
X145772861Y-84378828D01*
X145769508Y-84400000D01*
X138193659Y-84400000D01*
X138169918Y-84373202D01*
X138101229Y-84295668D01*
X138095060Y-84291410D01*
X138095058Y-84291408D01*
X137972402Y-84206745D01*
X137966226Y-84202482D01*
X137959210Y-84199821D01*
X137959208Y-84199820D01*
X137819861Y-84146972D01*
X137819854Y-84146970D01*
X137812845Y-84144312D01*
X137805400Y-84143408D01*
X137805396Y-84143407D01*
X137694577Y-84129951D01*
X137694565Y-84129950D01*
X137690857Y-84129500D01*
X137609143Y-84129500D01*
X137605435Y-84129950D01*
X137605422Y-84129951D01*
X137494603Y-84143407D01*
X137494597Y-84143408D01*
X137487155Y-84144312D01*
X137480147Y-84146969D01*
X137480138Y-84146972D01*
X137340791Y-84199820D01*
X137340785Y-84199822D01*
X137333774Y-84202482D01*
X137327601Y-84206742D01*
X137327597Y-84206745D01*
X137204941Y-84291408D01*
X137204935Y-84291413D01*
X137198771Y-84295668D01*
X137193799Y-84301279D01*
X137193798Y-84301281D01*
X137094967Y-84412837D01*
X137094962Y-84412843D01*
X137089992Y-84418454D01*
X137086506Y-84425094D01*
X137086505Y-84425097D01*
X137017243Y-84557063D01*
X137017240Y-84557069D01*
X137013758Y-84563705D01*
X137011964Y-84570980D01*
X137011963Y-84570985D01*
X136976294Y-84715697D01*
X136976293Y-84715703D01*
X136974500Y-84722979D01*
X136974500Y-84887021D01*
X131525500Y-84887021D01*
X131525500Y-84722979D01*
X131486242Y-84563705D01*
X131410008Y-84418454D01*
X131402200Y-84409641D01*
X131369918Y-84373202D01*
X131301229Y-84295668D01*
X131295060Y-84291410D01*
X131295058Y-84291408D01*
X131172402Y-84206745D01*
X131166226Y-84202482D01*
X131159210Y-84199821D01*
X131159208Y-84199820D01*
X131019861Y-84146972D01*
X131019854Y-84146970D01*
X131012845Y-84144312D01*
X131005400Y-84143408D01*
X131005396Y-84143407D01*
X130894577Y-84129951D01*
X130894565Y-84129950D01*
X130890857Y-84129500D01*
X130809143Y-84129500D01*
X130805435Y-84129950D01*
X130805422Y-84129951D01*
X130694603Y-84143407D01*
X130694597Y-84143408D01*
X130687155Y-84144312D01*
X130680147Y-84146969D01*
X130680138Y-84146972D01*
X130540791Y-84199820D01*
X130540785Y-84199822D01*
X130533774Y-84202482D01*
X130527601Y-84206742D01*
X130527597Y-84206745D01*
X130404941Y-84291408D01*
X130404935Y-84291413D01*
X130398771Y-84295668D01*
X130393799Y-84301279D01*
X130393798Y-84301281D01*
X130294967Y-84412837D01*
X130294962Y-84412843D01*
X130289992Y-84418454D01*
X130286506Y-84425094D01*
X130286505Y-84425097D01*
X130217243Y-84557063D01*
X130217240Y-84557069D01*
X130213758Y-84563705D01*
X130211964Y-84570980D01*
X130211963Y-84570985D01*
X130176294Y-84715697D01*
X130176293Y-84715703D01*
X130174500Y-84722979D01*
X130174500Y-84887021D01*
X130176293Y-84894296D01*
X130176294Y-84894302D01*
X130203944Y-85006479D01*
X130203670Y-85066919D01*
X130174857Y-85120049D01*
X130124351Y-85153248D01*
X130064150Y-85158627D01*
X129975000Y-85144508D01*
X129965359Y-85146035D01*
X129859337Y-85162826D01*
X129859330Y-85162828D01*
X129849696Y-85164354D01*
X129841000Y-85168784D01*
X129840999Y-85168785D01*
X129745353Y-85217519D01*
X129745349Y-85217521D01*
X129736658Y-85221950D01*
X129729759Y-85228848D01*
X129729756Y-85228851D01*
X129653851Y-85304756D01*
X129653848Y-85304759D01*
X129646950Y-85311658D01*
X129642521Y-85320349D01*
X129642519Y-85320353D01*
X129595633Y-85412372D01*
X129589354Y-85424696D01*
X129587828Y-85434330D01*
X129587826Y-85434337D01*
X129572580Y-85530602D01*
X129569508Y-85550000D01*
X118000500Y-85550000D01*
X118000500Y-83003245D01*
X118000585Y-83000000D01*
X119494357Y-83000000D01*
X119494781Y-83005117D01*
X119514467Y-83242701D01*
X119514468Y-83242709D01*
X119514892Y-83247821D01*
X119516149Y-83252788D01*
X119516151Y-83252795D01*
X119574678Y-83483910D01*
X119575937Y-83488881D01*
X119577997Y-83493577D01*
X119673766Y-83711910D01*
X119673769Y-83711916D01*
X119675827Y-83716607D01*
X119678627Y-83720893D01*
X119678631Y-83720900D01*
X119806675Y-83916885D01*
X119811836Y-83924785D01*
X119815310Y-83928559D01*
X119815311Y-83928560D01*
X119976784Y-84103967D01*
X119976787Y-84103970D01*
X119980256Y-84107738D01*
X120176491Y-84260474D01*
X120395190Y-84378828D01*
X120630386Y-84459571D01*
X120875665Y-84500500D01*
X121119201Y-84500500D01*
X121124335Y-84500500D01*
X121369614Y-84459571D01*
X121604810Y-84378828D01*
X121823509Y-84260474D01*
X122019744Y-84107738D01*
X122188164Y-83924785D01*
X122324173Y-83716607D01*
X122424063Y-83488881D01*
X122485108Y-83247821D01*
X122505643Y-83000000D01*
X155494357Y-83000000D01*
X155494781Y-83005117D01*
X155514467Y-83242701D01*
X155514468Y-83242709D01*
X155514892Y-83247821D01*
X155516149Y-83252788D01*
X155516151Y-83252795D01*
X155574678Y-83483910D01*
X155575937Y-83488881D01*
X155577997Y-83493577D01*
X155673766Y-83711910D01*
X155673769Y-83711916D01*
X155675827Y-83716607D01*
X155678627Y-83720893D01*
X155678631Y-83720900D01*
X155806675Y-83916885D01*
X155811836Y-83924785D01*
X155815310Y-83928559D01*
X155815311Y-83928560D01*
X155976784Y-84103967D01*
X155976787Y-84103970D01*
X155980256Y-84107738D01*
X156176491Y-84260474D01*
X156395190Y-84378828D01*
X156630386Y-84459571D01*
X156875665Y-84500500D01*
X157119201Y-84500500D01*
X157124335Y-84500500D01*
X157369614Y-84459571D01*
X157604810Y-84378828D01*
X157823509Y-84260474D01*
X158019744Y-84107738D01*
X158188164Y-83924785D01*
X158324173Y-83716607D01*
X158424063Y-83488881D01*
X158485108Y-83247821D01*
X158505643Y-83000000D01*
X158485108Y-82752179D01*
X158424063Y-82511119D01*
X158324173Y-82283393D01*
X158284290Y-82222348D01*
X158190971Y-82079512D01*
X158188164Y-82075215D01*
X158049602Y-81924696D01*
X158023215Y-81896032D01*
X158023211Y-81896029D01*
X158019744Y-81892262D01*
X157823509Y-81739526D01*
X157818997Y-81737084D01*
X157609316Y-81623610D01*
X157609310Y-81623607D01*
X157604810Y-81621172D01*
X157599969Y-81619510D01*
X157599962Y-81619507D01*
X157374465Y-81542094D01*
X157374461Y-81542093D01*
X157369614Y-81540429D01*
X157360768Y-81538952D01*
X157129398Y-81500344D01*
X157129387Y-81500343D01*
X157124335Y-81499500D01*
X156875665Y-81499500D01*
X156870613Y-81500343D01*
X156870601Y-81500344D01*
X156635443Y-81539585D01*
X156635441Y-81539585D01*
X156630386Y-81540429D01*
X156625541Y-81542092D01*
X156625534Y-81542094D01*
X156400037Y-81619507D01*
X156400026Y-81619511D01*
X156395190Y-81621172D01*
X156390693Y-81623605D01*
X156390683Y-81623610D01*
X156181002Y-81737084D01*
X156180995Y-81737088D01*
X156176491Y-81739526D01*
X156172448Y-81742672D01*
X156172440Y-81742678D01*
X155984304Y-81889111D01*
X155980256Y-81892262D01*
X155976793Y-81896023D01*
X155976784Y-81896032D01*
X155815311Y-82071439D01*
X155815305Y-82071446D01*
X155811836Y-82075215D01*
X155809031Y-82079506D01*
X155809028Y-82079512D01*
X155678631Y-82279099D01*
X155678624Y-82279111D01*
X155675827Y-82283393D01*
X155673772Y-82288077D01*
X155673766Y-82288089D01*
X155601007Y-82453965D01*
X155575937Y-82511119D01*
X155574679Y-82516084D01*
X155574678Y-82516089D01*
X155516151Y-82747204D01*
X155516149Y-82747213D01*
X155514892Y-82752179D01*
X155514468Y-82757288D01*
X155514467Y-82757298D01*
X155505397Y-82866764D01*
X155494357Y-83000000D01*
X122505643Y-83000000D01*
X122485108Y-82752179D01*
X122424063Y-82511119D01*
X122324173Y-82283393D01*
X122284290Y-82222348D01*
X122190971Y-82079512D01*
X122188164Y-82075215D01*
X122164952Y-82050000D01*
X146019508Y-82050000D01*
X146021035Y-82059641D01*
X146037826Y-82165662D01*
X146037827Y-82165667D01*
X146039354Y-82175304D01*
X146096950Y-82288342D01*
X146186658Y-82378050D01*
X146299696Y-82435646D01*
X146425000Y-82455492D01*
X146550304Y-82435646D01*
X146663342Y-82378050D01*
X146753050Y-82288342D01*
X146810646Y-82175304D01*
X146830492Y-82050000D01*
X146810646Y-81924696D01*
X146753050Y-81811658D01*
X146663342Y-81721950D01*
X146550304Y-81664354D01*
X146540667Y-81662827D01*
X146540662Y-81662826D01*
X146434641Y-81646035D01*
X146425000Y-81644508D01*
X146415359Y-81646035D01*
X146309337Y-81662826D01*
X146309330Y-81662828D01*
X146299696Y-81664354D01*
X146291000Y-81668784D01*
X146290999Y-81668785D01*
X146195353Y-81717519D01*
X146195349Y-81717521D01*
X146186658Y-81721950D01*
X146179759Y-81728848D01*
X146179756Y-81728851D01*
X146103851Y-81804756D01*
X146103848Y-81804759D01*
X146096950Y-81811658D01*
X146092521Y-81820349D01*
X146092519Y-81820353D01*
X146055783Y-81892452D01*
X146039354Y-81924696D01*
X146037828Y-81934330D01*
X146037826Y-81934337D01*
X146021529Y-82037236D01*
X146019508Y-82050000D01*
X122164952Y-82050000D01*
X122049602Y-81924696D01*
X122023215Y-81896032D01*
X122023211Y-81896029D01*
X122019744Y-81892262D01*
X121823509Y-81739526D01*
X121818997Y-81737084D01*
X121609316Y-81623610D01*
X121609310Y-81623607D01*
X121604810Y-81621172D01*
X121599969Y-81619510D01*
X121599962Y-81619507D01*
X121374465Y-81542094D01*
X121374461Y-81542093D01*
X121369614Y-81540429D01*
X121360768Y-81538952D01*
X121129398Y-81500344D01*
X121129387Y-81500343D01*
X121124335Y-81499500D01*
X120875665Y-81499500D01*
X120870613Y-81500343D01*
X120870601Y-81500344D01*
X120635443Y-81539585D01*
X120635441Y-81539585D01*
X120630386Y-81540429D01*
X120625541Y-81542092D01*
X120625534Y-81542094D01*
X120400037Y-81619507D01*
X120400026Y-81619511D01*
X120395190Y-81621172D01*
X120390693Y-81623605D01*
X120390683Y-81623610D01*
X120181002Y-81737084D01*
X120180995Y-81737088D01*
X120176491Y-81739526D01*
X120172448Y-81742672D01*
X120172440Y-81742678D01*
X119984304Y-81889111D01*
X119980256Y-81892262D01*
X119976793Y-81896023D01*
X119976784Y-81896032D01*
X119815311Y-82071439D01*
X119815305Y-82071446D01*
X119811836Y-82075215D01*
X119809031Y-82079506D01*
X119809028Y-82079512D01*
X119678631Y-82279099D01*
X119678624Y-82279111D01*
X119675827Y-82283393D01*
X119673772Y-82288077D01*
X119673766Y-82288089D01*
X119601007Y-82453965D01*
X119575937Y-82511119D01*
X119574679Y-82516084D01*
X119574678Y-82516089D01*
X119516151Y-82747204D01*
X119516149Y-82747213D01*
X119514892Y-82752179D01*
X119514468Y-82757288D01*
X119514467Y-82757298D01*
X119505397Y-82866764D01*
X119494357Y-83000000D01*
X118000585Y-83000000D01*
X118000670Y-82996756D01*
X118000768Y-82994883D01*
X118007501Y-82866421D01*
X118017628Y-82686087D01*
X118018954Y-82673694D01*
X118042513Y-82524947D01*
X118042700Y-82523809D01*
X118069739Y-82364666D01*
X118072199Y-82353402D01*
X118112150Y-82204305D01*
X118112709Y-82202293D01*
X118156351Y-82050811D01*
X118159724Y-82040753D01*
X118215583Y-81895233D01*
X118216692Y-81892452D01*
X118276439Y-81748212D01*
X118280488Y-81739429D01*
X118351569Y-81599925D01*
X118353521Y-81596250D01*
X118428588Y-81460426D01*
X118433065Y-81452962D01*
X118518633Y-81321199D01*
X118521434Y-81317077D01*
X118611010Y-81190832D01*
X118615733Y-81184603D01*
X118714702Y-81062386D01*
X118718532Y-81057885D01*
X118821613Y-80942537D01*
X118826323Y-80937556D01*
X118937556Y-80826323D01*
X118942537Y-80821613D01*
X119057885Y-80718532D01*
X119062386Y-80714702D01*
X119184603Y-80615733D01*
X119190832Y-80611010D01*
X119317077Y-80521434D01*
X119321199Y-80518633D01*
X119452962Y-80433065D01*
X119460426Y-80428588D01*
X119596255Y-80353517D01*
X119599934Y-80351565D01*
X119739429Y-80280488D01*
X119748212Y-80276439D01*
X119892452Y-80216692D01*
X119895233Y-80215583D01*
X120040753Y-80159724D01*
X120050811Y-80156351D01*
X120202293Y-80112709D01*
X120204305Y-80112150D01*
X120353402Y-80072199D01*
X120364666Y-80069739D01*
X120523809Y-80042700D01*
X120524947Y-80042513D01*
X120673694Y-80018954D01*
X120686087Y-80017628D01*
X120866554Y-80007493D01*
X120996756Y-80000669D01*
X121003245Y-80000500D01*
X156996755Y-80000500D01*
X157003243Y-80000669D01*
G37*
%TD.AperFunction*%
%TD*%
M02*
