%TF.GenerationSoftware,KiCad,Pcbnew,(7.0.0)*%
%TF.CreationDate,2024-01-17T09:10:30+05:30*%
%TF.ProjectId,Temperature Thing With Thermocouple,54656d70-6572-4617-9475-726520546869,rev?*%
%TF.SameCoordinates,Original*%
%TF.FileFunction,Drillmap*%
%TF.FilePolarity,Positive*%
%FSLAX45Y45*%
G04 Gerber Fmt 4.5, Leading zero omitted, Abs format (unit mm)*
G04 Created by KiCad (PCBNEW (7.0.0)) date 2024-01-17 09:10:30*
%MOMM*%
%LPD*%
G01*
G04 APERTURE LIST*
%ADD10C,0.100000*%
%ADD11C,0.200000*%
%ADD12C,0.095000*%
G04 APERTURE END LIST*
D10*
X11970000Y-7460000D02*
X11970000Y-11860000D01*
X12570000Y-6860000D02*
X16970000Y-6860000D01*
X16970000Y-12460000D02*
G75*
G03*
X17570000Y-11860000I0J600000D01*
G01*
X17570000Y-11860000D02*
X17570000Y-7460000D01*
X12570000Y-12460000D02*
X16970000Y-12460000D01*
X11970000Y-11860000D02*
G75*
G03*
X12570000Y-12460000I600000J0D01*
G01*
X17570000Y-7460000D02*
G75*
G03*
X16970000Y-6860000I-600000J0D01*
G01*
X12570000Y-6860000D02*
G75*
G03*
X11970000Y-7460000I0J-600000D01*
G01*
D11*
D12*
X12453000Y-10422500D02*
X12548000Y-10517500D01*
X12548000Y-10422500D02*
X12453000Y-10517500D01*
X12453000Y-11102500D02*
X12548000Y-11197500D01*
X12548000Y-11102500D02*
X12453000Y-11197500D01*
D11*
X12212619Y-12758476D02*
X12212619Y-12558476D01*
X12212619Y-12558476D02*
X12260238Y-12558476D01*
X12260238Y-12558476D02*
X12288809Y-12568000D01*
X12288809Y-12568000D02*
X12307857Y-12587048D01*
X12307857Y-12587048D02*
X12317381Y-12606095D01*
X12317381Y-12606095D02*
X12326905Y-12644190D01*
X12326905Y-12644190D02*
X12326905Y-12672762D01*
X12326905Y-12672762D02*
X12317381Y-12710857D01*
X12317381Y-12710857D02*
X12307857Y-12729905D01*
X12307857Y-12729905D02*
X12288809Y-12748952D01*
X12288809Y-12748952D02*
X12260238Y-12758476D01*
X12260238Y-12758476D02*
X12212619Y-12758476D01*
X12412619Y-12758476D02*
X12412619Y-12625143D01*
X12412619Y-12663238D02*
X12422143Y-12644190D01*
X12422143Y-12644190D02*
X12431667Y-12634667D01*
X12431667Y-12634667D02*
X12450714Y-12625143D01*
X12450714Y-12625143D02*
X12469762Y-12625143D01*
X12536428Y-12758476D02*
X12536428Y-12625143D01*
X12536428Y-12558476D02*
X12526905Y-12568000D01*
X12526905Y-12568000D02*
X12536428Y-12577524D01*
X12536428Y-12577524D02*
X12545952Y-12568000D01*
X12545952Y-12568000D02*
X12536428Y-12558476D01*
X12536428Y-12558476D02*
X12536428Y-12577524D01*
X12660238Y-12758476D02*
X12641190Y-12748952D01*
X12641190Y-12748952D02*
X12631667Y-12729905D01*
X12631667Y-12729905D02*
X12631667Y-12558476D01*
X12765000Y-12758476D02*
X12745952Y-12748952D01*
X12745952Y-12748952D02*
X12736428Y-12729905D01*
X12736428Y-12729905D02*
X12736428Y-12558476D01*
X12961190Y-12758476D02*
X12961190Y-12558476D01*
X12961190Y-12558476D02*
X13027857Y-12701333D01*
X13027857Y-12701333D02*
X13094524Y-12558476D01*
X13094524Y-12558476D02*
X13094524Y-12758476D01*
X13275476Y-12758476D02*
X13275476Y-12653714D01*
X13275476Y-12653714D02*
X13265952Y-12634667D01*
X13265952Y-12634667D02*
X13246905Y-12625143D01*
X13246905Y-12625143D02*
X13208809Y-12625143D01*
X13208809Y-12625143D02*
X13189762Y-12634667D01*
X13275476Y-12748952D02*
X13256428Y-12758476D01*
X13256428Y-12758476D02*
X13208809Y-12758476D01*
X13208809Y-12758476D02*
X13189762Y-12748952D01*
X13189762Y-12748952D02*
X13180238Y-12729905D01*
X13180238Y-12729905D02*
X13180238Y-12710857D01*
X13180238Y-12710857D02*
X13189762Y-12691809D01*
X13189762Y-12691809D02*
X13208809Y-12682286D01*
X13208809Y-12682286D02*
X13256428Y-12682286D01*
X13256428Y-12682286D02*
X13275476Y-12672762D01*
X13370714Y-12625143D02*
X13370714Y-12825143D01*
X13370714Y-12634667D02*
X13389762Y-12625143D01*
X13389762Y-12625143D02*
X13427857Y-12625143D01*
X13427857Y-12625143D02*
X13446905Y-12634667D01*
X13446905Y-12634667D02*
X13456428Y-12644190D01*
X13456428Y-12644190D02*
X13465952Y-12663238D01*
X13465952Y-12663238D02*
X13465952Y-12720381D01*
X13465952Y-12720381D02*
X13456428Y-12739428D01*
X13456428Y-12739428D02*
X13446905Y-12748952D01*
X13446905Y-12748952D02*
X13427857Y-12758476D01*
X13427857Y-12758476D02*
X13389762Y-12758476D01*
X13389762Y-12758476D02*
X13370714Y-12748952D01*
X13551667Y-12739428D02*
X13561190Y-12748952D01*
X13561190Y-12748952D02*
X13551667Y-12758476D01*
X13551667Y-12758476D02*
X13542143Y-12748952D01*
X13542143Y-12748952D02*
X13551667Y-12739428D01*
X13551667Y-12739428D02*
X13551667Y-12758476D01*
X13551667Y-12634667D02*
X13561190Y-12644190D01*
X13561190Y-12644190D02*
X13551667Y-12653714D01*
X13551667Y-12653714D02*
X13542143Y-12644190D01*
X13542143Y-12644190D02*
X13551667Y-12634667D01*
X13551667Y-12634667D02*
X13551667Y-12653714D01*
D12*
X11870000Y-13057500D02*
X11965000Y-13152500D01*
X11965000Y-13057500D02*
X11870000Y-13152500D01*
D11*
X12250714Y-12978476D02*
X12269762Y-12978476D01*
X12269762Y-12978476D02*
X12288809Y-12988000D01*
X12288809Y-12988000D02*
X12298333Y-12997524D01*
X12298333Y-12997524D02*
X12307857Y-13016571D01*
X12307857Y-13016571D02*
X12317381Y-13054667D01*
X12317381Y-13054667D02*
X12317381Y-13102286D01*
X12317381Y-13102286D02*
X12307857Y-13140381D01*
X12307857Y-13140381D02*
X12298333Y-13159428D01*
X12298333Y-13159428D02*
X12288809Y-13168952D01*
X12288809Y-13168952D02*
X12269762Y-13178476D01*
X12269762Y-13178476D02*
X12250714Y-13178476D01*
X12250714Y-13178476D02*
X12231667Y-13168952D01*
X12231667Y-13168952D02*
X12222143Y-13159428D01*
X12222143Y-13159428D02*
X12212619Y-13140381D01*
X12212619Y-13140381D02*
X12203095Y-13102286D01*
X12203095Y-13102286D02*
X12203095Y-13054667D01*
X12203095Y-13054667D02*
X12212619Y-13016571D01*
X12212619Y-13016571D02*
X12222143Y-12997524D01*
X12222143Y-12997524D02*
X12231667Y-12988000D01*
X12231667Y-12988000D02*
X12250714Y-12978476D01*
X12403095Y-13159428D02*
X12412619Y-13168952D01*
X12412619Y-13168952D02*
X12403095Y-13178476D01*
X12403095Y-13178476D02*
X12393571Y-13168952D01*
X12393571Y-13168952D02*
X12403095Y-13159428D01*
X12403095Y-13159428D02*
X12403095Y-13178476D01*
X12507857Y-13178476D02*
X12545952Y-13178476D01*
X12545952Y-13178476D02*
X12565000Y-13168952D01*
X12565000Y-13168952D02*
X12574524Y-13159428D01*
X12574524Y-13159428D02*
X12593571Y-13130857D01*
X12593571Y-13130857D02*
X12603095Y-13092762D01*
X12603095Y-13092762D02*
X12603095Y-13016571D01*
X12603095Y-13016571D02*
X12593571Y-12997524D01*
X12593571Y-12997524D02*
X12584048Y-12988000D01*
X12584048Y-12988000D02*
X12565000Y-12978476D01*
X12565000Y-12978476D02*
X12526905Y-12978476D01*
X12526905Y-12978476D02*
X12507857Y-12988000D01*
X12507857Y-12988000D02*
X12498333Y-12997524D01*
X12498333Y-12997524D02*
X12488809Y-13016571D01*
X12488809Y-13016571D02*
X12488809Y-13064190D01*
X12488809Y-13064190D02*
X12498333Y-13083238D01*
X12498333Y-13083238D02*
X12507857Y-13092762D01*
X12507857Y-13092762D02*
X12526905Y-13102286D01*
X12526905Y-13102286D02*
X12565000Y-13102286D01*
X12565000Y-13102286D02*
X12584048Y-13092762D01*
X12584048Y-13092762D02*
X12593571Y-13083238D01*
X12593571Y-13083238D02*
X12603095Y-13064190D01*
X12784048Y-12978476D02*
X12688809Y-12978476D01*
X12688809Y-12978476D02*
X12679286Y-13073714D01*
X12679286Y-13073714D02*
X12688809Y-13064190D01*
X12688809Y-13064190D02*
X12707857Y-13054667D01*
X12707857Y-13054667D02*
X12755476Y-13054667D01*
X12755476Y-13054667D02*
X12774524Y-13064190D01*
X12774524Y-13064190D02*
X12784048Y-13073714D01*
X12784048Y-13073714D02*
X12793571Y-13092762D01*
X12793571Y-13092762D02*
X12793571Y-13140381D01*
X12793571Y-13140381D02*
X12784048Y-13159428D01*
X12784048Y-13159428D02*
X12774524Y-13168952D01*
X12774524Y-13168952D02*
X12755476Y-13178476D01*
X12755476Y-13178476D02*
X12707857Y-13178476D01*
X12707857Y-13178476D02*
X12688809Y-13168952D01*
X12688809Y-13168952D02*
X12679286Y-13159428D01*
X12917381Y-12978476D02*
X12936429Y-12978476D01*
X12936429Y-12978476D02*
X12955476Y-12988000D01*
X12955476Y-12988000D02*
X12965000Y-12997524D01*
X12965000Y-12997524D02*
X12974524Y-13016571D01*
X12974524Y-13016571D02*
X12984048Y-13054667D01*
X12984048Y-13054667D02*
X12984048Y-13102286D01*
X12984048Y-13102286D02*
X12974524Y-13140381D01*
X12974524Y-13140381D02*
X12965000Y-13159428D01*
X12965000Y-13159428D02*
X12955476Y-13168952D01*
X12955476Y-13168952D02*
X12936429Y-13178476D01*
X12936429Y-13178476D02*
X12917381Y-13178476D01*
X12917381Y-13178476D02*
X12898333Y-13168952D01*
X12898333Y-13168952D02*
X12888809Y-13159428D01*
X12888809Y-13159428D02*
X12879286Y-13140381D01*
X12879286Y-13140381D02*
X12869762Y-13102286D01*
X12869762Y-13102286D02*
X12869762Y-13054667D01*
X12869762Y-13054667D02*
X12879286Y-13016571D01*
X12879286Y-13016571D02*
X12888809Y-12997524D01*
X12888809Y-12997524D02*
X12898333Y-12988000D01*
X12898333Y-12988000D02*
X12917381Y-12978476D01*
X13069762Y-13178476D02*
X13069762Y-13045143D01*
X13069762Y-13064190D02*
X13079286Y-13054667D01*
X13079286Y-13054667D02*
X13098333Y-13045143D01*
X13098333Y-13045143D02*
X13126905Y-13045143D01*
X13126905Y-13045143D02*
X13145952Y-13054667D01*
X13145952Y-13054667D02*
X13155476Y-13073714D01*
X13155476Y-13073714D02*
X13155476Y-13178476D01*
X13155476Y-13073714D02*
X13165000Y-13054667D01*
X13165000Y-13054667D02*
X13184048Y-13045143D01*
X13184048Y-13045143D02*
X13212619Y-13045143D01*
X13212619Y-13045143D02*
X13231667Y-13054667D01*
X13231667Y-13054667D02*
X13241190Y-13073714D01*
X13241190Y-13073714D02*
X13241190Y-13178476D01*
X13336429Y-13178476D02*
X13336429Y-13045143D01*
X13336429Y-13064190D02*
X13345952Y-13054667D01*
X13345952Y-13054667D02*
X13365000Y-13045143D01*
X13365000Y-13045143D02*
X13393571Y-13045143D01*
X13393571Y-13045143D02*
X13412619Y-13054667D01*
X13412619Y-13054667D02*
X13422143Y-13073714D01*
X13422143Y-13073714D02*
X13422143Y-13178476D01*
X13422143Y-13073714D02*
X13431667Y-13054667D01*
X13431667Y-13054667D02*
X13450714Y-13045143D01*
X13450714Y-13045143D02*
X13479286Y-13045143D01*
X13479286Y-13045143D02*
X13498333Y-13054667D01*
X13498333Y-13054667D02*
X13507857Y-13073714D01*
X13507857Y-13073714D02*
X13507857Y-13178476D01*
X13865952Y-12968952D02*
X13694524Y-13226095D01*
X14090714Y-12978476D02*
X14109762Y-12978476D01*
X14109762Y-12978476D02*
X14128810Y-12988000D01*
X14128810Y-12988000D02*
X14138333Y-12997524D01*
X14138333Y-12997524D02*
X14147857Y-13016571D01*
X14147857Y-13016571D02*
X14157381Y-13054667D01*
X14157381Y-13054667D02*
X14157381Y-13102286D01*
X14157381Y-13102286D02*
X14147857Y-13140381D01*
X14147857Y-13140381D02*
X14138333Y-13159428D01*
X14138333Y-13159428D02*
X14128810Y-13168952D01*
X14128810Y-13168952D02*
X14109762Y-13178476D01*
X14109762Y-13178476D02*
X14090714Y-13178476D01*
X14090714Y-13178476D02*
X14071667Y-13168952D01*
X14071667Y-13168952D02*
X14062143Y-13159428D01*
X14062143Y-13159428D02*
X14052619Y-13140381D01*
X14052619Y-13140381D02*
X14043095Y-13102286D01*
X14043095Y-13102286D02*
X14043095Y-13054667D01*
X14043095Y-13054667D02*
X14052619Y-13016571D01*
X14052619Y-13016571D02*
X14062143Y-12997524D01*
X14062143Y-12997524D02*
X14071667Y-12988000D01*
X14071667Y-12988000D02*
X14090714Y-12978476D01*
X14243095Y-13159428D02*
X14252619Y-13168952D01*
X14252619Y-13168952D02*
X14243095Y-13178476D01*
X14243095Y-13178476D02*
X14233571Y-13168952D01*
X14233571Y-13168952D02*
X14243095Y-13159428D01*
X14243095Y-13159428D02*
X14243095Y-13178476D01*
X14376429Y-12978476D02*
X14395476Y-12978476D01*
X14395476Y-12978476D02*
X14414524Y-12988000D01*
X14414524Y-12988000D02*
X14424048Y-12997524D01*
X14424048Y-12997524D02*
X14433571Y-13016571D01*
X14433571Y-13016571D02*
X14443095Y-13054667D01*
X14443095Y-13054667D02*
X14443095Y-13102286D01*
X14443095Y-13102286D02*
X14433571Y-13140381D01*
X14433571Y-13140381D02*
X14424048Y-13159428D01*
X14424048Y-13159428D02*
X14414524Y-13168952D01*
X14414524Y-13168952D02*
X14395476Y-13178476D01*
X14395476Y-13178476D02*
X14376429Y-13178476D01*
X14376429Y-13178476D02*
X14357381Y-13168952D01*
X14357381Y-13168952D02*
X14347857Y-13159428D01*
X14347857Y-13159428D02*
X14338333Y-13140381D01*
X14338333Y-13140381D02*
X14328810Y-13102286D01*
X14328810Y-13102286D02*
X14328810Y-13054667D01*
X14328810Y-13054667D02*
X14338333Y-13016571D01*
X14338333Y-13016571D02*
X14347857Y-12997524D01*
X14347857Y-12997524D02*
X14357381Y-12988000D01*
X14357381Y-12988000D02*
X14376429Y-12978476D01*
X14509762Y-12978476D02*
X14633571Y-12978476D01*
X14633571Y-12978476D02*
X14566905Y-13054667D01*
X14566905Y-13054667D02*
X14595476Y-13054667D01*
X14595476Y-13054667D02*
X14614524Y-13064190D01*
X14614524Y-13064190D02*
X14624048Y-13073714D01*
X14624048Y-13073714D02*
X14633571Y-13092762D01*
X14633571Y-13092762D02*
X14633571Y-13140381D01*
X14633571Y-13140381D02*
X14624048Y-13159428D01*
X14624048Y-13159428D02*
X14614524Y-13168952D01*
X14614524Y-13168952D02*
X14595476Y-13178476D01*
X14595476Y-13178476D02*
X14538333Y-13178476D01*
X14538333Y-13178476D02*
X14519286Y-13168952D01*
X14519286Y-13168952D02*
X14509762Y-13159428D01*
X14700238Y-12978476D02*
X14833571Y-12978476D01*
X14833571Y-12978476D02*
X14747857Y-13178476D01*
X14995476Y-13045143D02*
X14995476Y-13178476D01*
X14947857Y-12968952D02*
X14900238Y-13111809D01*
X14900238Y-13111809D02*
X15024048Y-13111809D01*
X15090714Y-12978476D02*
X15090714Y-13016571D01*
X15166905Y-12978476D02*
X15166905Y-13016571D01*
X15429762Y-13254667D02*
X15420238Y-13245143D01*
X15420238Y-13245143D02*
X15401191Y-13216571D01*
X15401191Y-13216571D02*
X15391667Y-13197524D01*
X15391667Y-13197524D02*
X15382143Y-13168952D01*
X15382143Y-13168952D02*
X15372619Y-13121333D01*
X15372619Y-13121333D02*
X15372619Y-13083238D01*
X15372619Y-13083238D02*
X15382143Y-13035619D01*
X15382143Y-13035619D02*
X15391667Y-13007048D01*
X15391667Y-13007048D02*
X15401191Y-12988000D01*
X15401191Y-12988000D02*
X15420238Y-12959428D01*
X15420238Y-12959428D02*
X15429762Y-12949905D01*
X15496429Y-12997524D02*
X15505952Y-12988000D01*
X15505952Y-12988000D02*
X15525000Y-12978476D01*
X15525000Y-12978476D02*
X15572619Y-12978476D01*
X15572619Y-12978476D02*
X15591667Y-12988000D01*
X15591667Y-12988000D02*
X15601191Y-12997524D01*
X15601191Y-12997524D02*
X15610714Y-13016571D01*
X15610714Y-13016571D02*
X15610714Y-13035619D01*
X15610714Y-13035619D02*
X15601191Y-13064190D01*
X15601191Y-13064190D02*
X15486905Y-13178476D01*
X15486905Y-13178476D02*
X15610714Y-13178476D01*
X15816429Y-13178476D02*
X15816429Y-12978476D01*
X15902143Y-13178476D02*
X15902143Y-13073714D01*
X15902143Y-13073714D02*
X15892619Y-13054667D01*
X15892619Y-13054667D02*
X15873572Y-13045143D01*
X15873572Y-13045143D02*
X15845000Y-13045143D01*
X15845000Y-13045143D02*
X15825952Y-13054667D01*
X15825952Y-13054667D02*
X15816429Y-13064190D01*
X16025952Y-13178476D02*
X16006905Y-13168952D01*
X16006905Y-13168952D02*
X15997381Y-13159428D01*
X15997381Y-13159428D02*
X15987857Y-13140381D01*
X15987857Y-13140381D02*
X15987857Y-13083238D01*
X15987857Y-13083238D02*
X15997381Y-13064190D01*
X15997381Y-13064190D02*
X16006905Y-13054667D01*
X16006905Y-13054667D02*
X16025952Y-13045143D01*
X16025952Y-13045143D02*
X16054524Y-13045143D01*
X16054524Y-13045143D02*
X16073572Y-13054667D01*
X16073572Y-13054667D02*
X16083095Y-13064190D01*
X16083095Y-13064190D02*
X16092619Y-13083238D01*
X16092619Y-13083238D02*
X16092619Y-13140381D01*
X16092619Y-13140381D02*
X16083095Y-13159428D01*
X16083095Y-13159428D02*
X16073572Y-13168952D01*
X16073572Y-13168952D02*
X16054524Y-13178476D01*
X16054524Y-13178476D02*
X16025952Y-13178476D01*
X16206905Y-13178476D02*
X16187857Y-13168952D01*
X16187857Y-13168952D02*
X16178333Y-13149905D01*
X16178333Y-13149905D02*
X16178333Y-12978476D01*
X16359286Y-13168952D02*
X16340238Y-13178476D01*
X16340238Y-13178476D02*
X16302143Y-13178476D01*
X16302143Y-13178476D02*
X16283095Y-13168952D01*
X16283095Y-13168952D02*
X16273572Y-13149905D01*
X16273572Y-13149905D02*
X16273572Y-13073714D01*
X16273572Y-13073714D02*
X16283095Y-13054667D01*
X16283095Y-13054667D02*
X16302143Y-13045143D01*
X16302143Y-13045143D02*
X16340238Y-13045143D01*
X16340238Y-13045143D02*
X16359286Y-13054667D01*
X16359286Y-13054667D02*
X16368810Y-13073714D01*
X16368810Y-13073714D02*
X16368810Y-13092762D01*
X16368810Y-13092762D02*
X16273572Y-13111809D01*
X16445000Y-13168952D02*
X16464048Y-13178476D01*
X16464048Y-13178476D02*
X16502143Y-13178476D01*
X16502143Y-13178476D02*
X16521191Y-13168952D01*
X16521191Y-13168952D02*
X16530714Y-13149905D01*
X16530714Y-13149905D02*
X16530714Y-13140381D01*
X16530714Y-13140381D02*
X16521191Y-13121333D01*
X16521191Y-13121333D02*
X16502143Y-13111809D01*
X16502143Y-13111809D02*
X16473572Y-13111809D01*
X16473572Y-13111809D02*
X16454524Y-13102286D01*
X16454524Y-13102286D02*
X16445000Y-13083238D01*
X16445000Y-13083238D02*
X16445000Y-13073714D01*
X16445000Y-13073714D02*
X16454524Y-13054667D01*
X16454524Y-13054667D02*
X16473572Y-13045143D01*
X16473572Y-13045143D02*
X16502143Y-13045143D01*
X16502143Y-13045143D02*
X16521191Y-13054667D01*
X16597381Y-13254667D02*
X16606905Y-13245143D01*
X16606905Y-13245143D02*
X16625953Y-13216571D01*
X16625953Y-13216571D02*
X16635476Y-13197524D01*
X16635476Y-13197524D02*
X16645000Y-13168952D01*
X16645000Y-13168952D02*
X16654524Y-13121333D01*
X16654524Y-13121333D02*
X16654524Y-13083238D01*
X16654524Y-13083238D02*
X16645000Y-13035619D01*
X16645000Y-13035619D02*
X16635476Y-13007048D01*
X16635476Y-13007048D02*
X16625953Y-12988000D01*
X16625953Y-12988000D02*
X16606905Y-12959428D01*
X16606905Y-12959428D02*
X16597381Y-12949905D01*
X16926905Y-13254667D02*
X16917381Y-13245143D01*
X16917381Y-13245143D02*
X16898334Y-13216571D01*
X16898334Y-13216571D02*
X16888810Y-13197524D01*
X16888810Y-13197524D02*
X16879286Y-13168952D01*
X16879286Y-13168952D02*
X16869762Y-13121333D01*
X16869762Y-13121333D02*
X16869762Y-13083238D01*
X16869762Y-13083238D02*
X16879286Y-13035619D01*
X16879286Y-13035619D02*
X16888810Y-13007048D01*
X16888810Y-13007048D02*
X16898334Y-12988000D01*
X16898334Y-12988000D02*
X16917381Y-12959428D01*
X16917381Y-12959428D02*
X16926905Y-12949905D01*
X17003095Y-13045143D02*
X17003095Y-13178476D01*
X17003095Y-13064190D02*
X17012619Y-13054667D01*
X17012619Y-13054667D02*
X17031667Y-13045143D01*
X17031667Y-13045143D02*
X17060238Y-13045143D01*
X17060238Y-13045143D02*
X17079286Y-13054667D01*
X17079286Y-13054667D02*
X17088810Y-13073714D01*
X17088810Y-13073714D02*
X17088810Y-13178476D01*
X17212619Y-13178476D02*
X17193572Y-13168952D01*
X17193572Y-13168952D02*
X17184048Y-13159428D01*
X17184048Y-13159428D02*
X17174524Y-13140381D01*
X17174524Y-13140381D02*
X17174524Y-13083238D01*
X17174524Y-13083238D02*
X17184048Y-13064190D01*
X17184048Y-13064190D02*
X17193572Y-13054667D01*
X17193572Y-13054667D02*
X17212619Y-13045143D01*
X17212619Y-13045143D02*
X17241191Y-13045143D01*
X17241191Y-13045143D02*
X17260238Y-13054667D01*
X17260238Y-13054667D02*
X17269762Y-13064190D01*
X17269762Y-13064190D02*
X17279286Y-13083238D01*
X17279286Y-13083238D02*
X17279286Y-13140381D01*
X17279286Y-13140381D02*
X17269762Y-13159428D01*
X17269762Y-13159428D02*
X17260238Y-13168952D01*
X17260238Y-13168952D02*
X17241191Y-13178476D01*
X17241191Y-13178476D02*
X17212619Y-13178476D01*
X17336429Y-13045143D02*
X17412619Y-13045143D01*
X17365000Y-12978476D02*
X17365000Y-13149905D01*
X17365000Y-13149905D02*
X17374524Y-13168952D01*
X17374524Y-13168952D02*
X17393572Y-13178476D01*
X17393572Y-13178476D02*
X17412619Y-13178476D01*
X17599286Y-13045143D02*
X17599286Y-13245143D01*
X17599286Y-13054667D02*
X17618334Y-13045143D01*
X17618334Y-13045143D02*
X17656429Y-13045143D01*
X17656429Y-13045143D02*
X17675476Y-13054667D01*
X17675476Y-13054667D02*
X17685000Y-13064190D01*
X17685000Y-13064190D02*
X17694524Y-13083238D01*
X17694524Y-13083238D02*
X17694524Y-13140381D01*
X17694524Y-13140381D02*
X17685000Y-13159428D01*
X17685000Y-13159428D02*
X17675476Y-13168952D01*
X17675476Y-13168952D02*
X17656429Y-13178476D01*
X17656429Y-13178476D02*
X17618334Y-13178476D01*
X17618334Y-13178476D02*
X17599286Y-13168952D01*
X17808810Y-13178476D02*
X17789762Y-13168952D01*
X17789762Y-13168952D02*
X17780238Y-13149905D01*
X17780238Y-13149905D02*
X17780238Y-12978476D01*
X17970715Y-13178476D02*
X17970715Y-13073714D01*
X17970715Y-13073714D02*
X17961191Y-13054667D01*
X17961191Y-13054667D02*
X17942143Y-13045143D01*
X17942143Y-13045143D02*
X17904048Y-13045143D01*
X17904048Y-13045143D02*
X17885000Y-13054667D01*
X17970715Y-13168952D02*
X17951667Y-13178476D01*
X17951667Y-13178476D02*
X17904048Y-13178476D01*
X17904048Y-13178476D02*
X17885000Y-13168952D01*
X17885000Y-13168952D02*
X17875476Y-13149905D01*
X17875476Y-13149905D02*
X17875476Y-13130857D01*
X17875476Y-13130857D02*
X17885000Y-13111809D01*
X17885000Y-13111809D02*
X17904048Y-13102286D01*
X17904048Y-13102286D02*
X17951667Y-13102286D01*
X17951667Y-13102286D02*
X17970715Y-13092762D01*
X18037381Y-13045143D02*
X18113572Y-13045143D01*
X18065953Y-12978476D02*
X18065953Y-13149905D01*
X18065953Y-13149905D02*
X18075476Y-13168952D01*
X18075476Y-13168952D02*
X18094524Y-13178476D01*
X18094524Y-13178476D02*
X18113572Y-13178476D01*
X18256429Y-13168952D02*
X18237381Y-13178476D01*
X18237381Y-13178476D02*
X18199286Y-13178476D01*
X18199286Y-13178476D02*
X18180238Y-13168952D01*
X18180238Y-13168952D02*
X18170715Y-13149905D01*
X18170715Y-13149905D02*
X18170715Y-13073714D01*
X18170715Y-13073714D02*
X18180238Y-13054667D01*
X18180238Y-13054667D02*
X18199286Y-13045143D01*
X18199286Y-13045143D02*
X18237381Y-13045143D01*
X18237381Y-13045143D02*
X18256429Y-13054667D01*
X18256429Y-13054667D02*
X18265953Y-13073714D01*
X18265953Y-13073714D02*
X18265953Y-13092762D01*
X18265953Y-13092762D02*
X18170715Y-13111809D01*
X18437381Y-13178476D02*
X18437381Y-12978476D01*
X18437381Y-13168952D02*
X18418334Y-13178476D01*
X18418334Y-13178476D02*
X18380238Y-13178476D01*
X18380238Y-13178476D02*
X18361191Y-13168952D01*
X18361191Y-13168952D02*
X18351667Y-13159428D01*
X18351667Y-13159428D02*
X18342143Y-13140381D01*
X18342143Y-13140381D02*
X18342143Y-13083238D01*
X18342143Y-13083238D02*
X18351667Y-13064190D01*
X18351667Y-13064190D02*
X18361191Y-13054667D01*
X18361191Y-13054667D02*
X18380238Y-13045143D01*
X18380238Y-13045143D02*
X18418334Y-13045143D01*
X18418334Y-13045143D02*
X18437381Y-13054667D01*
X18513572Y-13254667D02*
X18523096Y-13245143D01*
X18523096Y-13245143D02*
X18542143Y-13216571D01*
X18542143Y-13216571D02*
X18551667Y-13197524D01*
X18551667Y-13197524D02*
X18561191Y-13168952D01*
X18561191Y-13168952D02*
X18570715Y-13121333D01*
X18570715Y-13121333D02*
X18570715Y-13083238D01*
X18570715Y-13083238D02*
X18561191Y-13035619D01*
X18561191Y-13035619D02*
X18551667Y-13007048D01*
X18551667Y-13007048D02*
X18542143Y-12988000D01*
X18542143Y-12988000D02*
X18523096Y-12959428D01*
X18523096Y-12959428D02*
X18513572Y-12949905D01*
M02*
