M48
; DRILL file {KiCad (7.0.0)} date Wed Jan 17 09:10:28 2024
; FORMAT={-:-/ absolute / metric / decimal}
; #@! TF.CreationDate,2024-01-17T09:10:28+05:30
; #@! TF.GenerationSoftware,Kicad,Pcbnew,(7.0.0)
; #@! TF.FileFunction,Plated,1,4,PTH
FMAT,2
METRIC
; #@! TA.AperFunction,Plated,PTH,ViaDrill
T1C0.200
; #@! TA.AperFunction,Plated,PTH,ViaDrill
T2C0.250
; #@! TA.AperFunction,Plated,PTH,ComponentDrill
T3C0.400
; #@! TA.AperFunction,Plated,PTH,ComponentDrill
T4C0.650
; #@! TA.AperFunction,Plated,PTH,ComponentDrill
T5C1.000
; #@! TA.AperFunction,Plated,PTH,ComponentDrill
T6C2.200
%
G90
G05
T1
X121.7Y-100.8
X121.7Y-101.4
X121.7Y-102.0
X121.7Y-102.6
X121.7Y-103.2
X121.7Y-103.8
X121.7Y-104.4
X121.7Y-105.0
X121.7Y-105.6
X121.7Y-106.2
X121.7Y-106.8
X121.7Y-107.4
X121.7Y-108.0
X121.7Y-108.6
X121.7Y-109.2
X121.7Y-109.8
X121.7Y-110.4
X121.7Y-111.0
X121.7Y-111.6
X121.7Y-112.2
X121.7Y-112.8
X121.7Y-113.4
X121.7Y-114.0
X121.7Y-114.6
X122.3Y-100.8
X122.3Y-101.4
X122.3Y-102.0
X122.3Y-102.6
X122.3Y-103.2
X122.3Y-103.8
X122.3Y-104.4
X122.3Y-105.0
X122.3Y-105.6
X122.3Y-106.2
X122.3Y-106.8
X122.3Y-107.4
X122.3Y-108.0
X122.3Y-108.6
X122.3Y-109.2
X122.3Y-109.8
X122.3Y-110.4
X122.3Y-111.0
X122.3Y-111.6
X122.3Y-112.2
X122.3Y-112.8
X122.3Y-113.4
X122.3Y-114.0
X122.3Y-114.6
X122.9Y-100.8
X122.9Y-101.4
X122.9Y-102.0
X122.9Y-102.6
X122.9Y-103.2
X122.9Y-103.8
X122.9Y-104.4
X122.9Y-105.0
X122.9Y-105.6
X122.9Y-106.2
X122.9Y-106.8
X122.9Y-107.4
X122.9Y-108.0
X122.9Y-108.6
X122.9Y-109.2
X122.9Y-109.8
X122.9Y-110.4
X122.9Y-111.0
X122.9Y-111.6
X122.9Y-112.2
X122.9Y-112.8
X122.9Y-113.4
X122.9Y-114.0
X122.9Y-114.6
X123.5Y-100.8
X123.5Y-101.4
X123.5Y-102.0
X123.5Y-102.6
X123.5Y-103.2
X123.5Y-103.8
X123.5Y-104.4
X123.5Y-105.0
X123.5Y-105.6
X123.5Y-106.2
X123.5Y-106.8
X123.5Y-107.4
X123.5Y-108.0
X123.5Y-108.6
X123.5Y-109.2
X123.5Y-109.8
X123.5Y-110.4
X123.5Y-111.0
X123.5Y-111.6
X123.5Y-112.2
X123.5Y-112.8
X123.5Y-113.4
X123.5Y-114.0
X123.5Y-114.6
X123.7Y-81.75
X123.7Y-82.35
X123.7Y-82.95
X123.7Y-83.55
X124.1Y-100.8
X124.1Y-101.4
X124.1Y-102.0
X124.1Y-102.6
X124.1Y-103.2
X124.1Y-103.8
X124.1Y-104.4
X124.1Y-105.0
X124.1Y-105.6
X124.1Y-106.2
X124.1Y-106.8
X124.1Y-107.4
X124.1Y-108.0
X124.1Y-108.6
X124.1Y-109.2
X124.1Y-109.8
X124.1Y-110.4
X124.1Y-111.0
X124.1Y-111.6
X124.1Y-112.2
X124.1Y-112.8
X124.1Y-113.4
X124.1Y-114.0
X124.1Y-114.6
X124.3Y-81.75
X124.3Y-82.35
X124.3Y-82.95
X124.3Y-83.55
X124.7Y-100.8
X124.7Y-101.4
X124.7Y-102.0
X124.7Y-102.6
X124.7Y-103.2
X124.7Y-103.8
X124.7Y-105.6
X124.7Y-106.2
X124.7Y-106.8
X124.7Y-107.4
X124.7Y-108.0
X124.7Y-108.6
X124.7Y-109.2
X124.7Y-109.8
X124.7Y-110.4
X124.7Y-112.8
X124.7Y-113.4
X124.7Y-114.0
X124.7Y-114.6
X124.9Y-81.75
X124.9Y-82.35
X124.9Y-82.95
X124.9Y-83.55
X124.9Y-84.1
X124.9Y-84.7
X124.9Y-85.3
X125.3Y-100.8
X125.3Y-101.4
X125.3Y-102.0
X125.3Y-102.6
X125.3Y-103.2
X125.3Y-103.8
X125.3Y-105.6
X125.3Y-106.2
X125.3Y-106.8
X125.3Y-107.4
X125.3Y-108.0
X125.3Y-108.6
X125.3Y-109.2
X125.3Y-109.8
X125.3Y-110.4
X125.3Y-112.8
X125.3Y-113.4
X125.3Y-114.0
X125.3Y-114.6
X125.5Y-81.75
X125.5Y-82.35
X125.5Y-82.95
X125.5Y-83.55
X125.5Y-84.1
X125.5Y-84.7
X125.5Y-85.3
X125.5Y-85.9
X125.5Y-86.5
X125.5Y-87.05
X125.9Y-100.8
X125.9Y-101.4
X125.9Y-102.0
X125.9Y-102.6
X125.9Y-103.2
X125.9Y-103.8
X125.9Y-104.4
X125.9Y-105.0
X125.9Y-105.6
X125.9Y-106.2
X125.9Y-106.8
X125.9Y-107.4
X125.9Y-108.0
X125.9Y-108.6
X125.9Y-109.2
X125.9Y-109.8
X125.9Y-110.4
X125.9Y-111.0
X125.9Y-111.6
X125.9Y-112.2
X125.9Y-112.8
X125.9Y-113.4
X125.9Y-114.0
X125.9Y-114.6
X126.1Y-81.75
X126.1Y-82.35
X126.1Y-82.95
X126.1Y-83.55
X126.1Y-84.1
X126.1Y-84.7
X126.1Y-85.3
X126.1Y-85.9
X126.1Y-86.5
X126.1Y-87.05
X126.5Y-100.8
X126.5Y-101.4
X126.5Y-102.0
X126.5Y-102.6
X126.5Y-103.2
X126.5Y-103.8
X126.5Y-104.4
X126.5Y-105.0
X126.5Y-105.6
X126.5Y-106.2
X126.5Y-106.8
X126.5Y-107.4
X126.5Y-108.0
X126.5Y-108.6
X126.5Y-109.2
X126.5Y-109.8
X126.5Y-110.4
X126.5Y-111.0
X126.5Y-111.6
X126.5Y-112.2
X126.5Y-112.8
X126.5Y-113.4
X126.5Y-114.0
X126.5Y-114.6
X126.7Y-81.75
X126.7Y-82.35
X126.7Y-82.95
X126.7Y-83.55
X126.7Y-84.1
X126.7Y-84.7
X126.7Y-85.3
X126.7Y-85.9
X126.7Y-86.5
X126.7Y-87.05
X127.1Y-100.8
X127.1Y-101.4
X127.1Y-102.0
X127.1Y-102.6
X127.1Y-103.2
X127.1Y-103.8
X127.1Y-104.4
X127.1Y-105.0
X127.1Y-105.6
X127.1Y-106.2
X127.1Y-106.8
X127.1Y-107.4
X127.1Y-108.0
X127.1Y-108.6
X127.1Y-109.2
X127.1Y-109.8
X127.1Y-110.4
X127.1Y-111.0
X127.1Y-111.6
X127.1Y-112.2
X127.1Y-112.8
X127.1Y-113.4
X127.1Y-114.0
X127.1Y-114.6
X127.3Y-81.75
X127.3Y-82.35
X127.3Y-82.95
X127.3Y-83.55
X127.3Y-84.15
X127.3Y-84.75
X127.3Y-85.35
X127.3Y-85.95
X127.3Y-86.5
X127.3Y-87.05
X127.7Y-100.8
X127.7Y-101.4
X127.7Y-102.0
X127.7Y-102.6
X127.7Y-103.2
X127.7Y-103.8
X127.7Y-104.4
X127.7Y-105.0
X127.7Y-105.6
X127.7Y-106.2
X127.7Y-106.8
X127.7Y-107.4
X127.7Y-108.0
X127.7Y-108.6
X127.7Y-109.2
X127.7Y-109.8
X127.7Y-110.4
X127.7Y-111.0
X127.7Y-111.6
X127.7Y-112.2
X127.7Y-112.8
X127.7Y-113.4
X127.7Y-114.0
X127.7Y-114.6
X127.9Y-81.75
X127.9Y-82.35
X127.9Y-82.95
X127.9Y-83.55
X127.9Y-84.15
X127.9Y-84.75
X127.9Y-85.35
X127.9Y-85.95
X127.9Y-86.5
X127.9Y-87.05
X128.3Y-100.8
X128.3Y-101.4
X128.3Y-102.0
X128.3Y-102.6
X128.3Y-103.2
X128.3Y-103.8
X128.3Y-104.4
X128.3Y-105.0
X128.3Y-105.6
X128.3Y-106.2
X128.3Y-106.8
X128.3Y-107.4
X128.3Y-108.0
X128.3Y-108.6
X128.3Y-109.2
X128.3Y-109.8
X128.3Y-110.4
X128.3Y-111.0
X128.3Y-111.6
X128.3Y-112.2
X128.3Y-112.8
X128.3Y-113.4
X128.3Y-114.0
X128.3Y-114.6
X128.5Y-81.75
X128.5Y-82.35
X128.5Y-82.95
X128.5Y-83.55
X128.5Y-84.15
X128.5Y-84.75
X128.5Y-85.35
X128.5Y-85.95
X128.5Y-86.5
X128.5Y-87.05
X128.9Y-100.8
X128.9Y-101.4
X128.9Y-102.0
X128.9Y-102.6
X128.9Y-103.2
X128.9Y-103.8
X128.9Y-104.4
X128.9Y-105.0
X128.9Y-105.6
X128.9Y-106.2
X128.9Y-106.8
X128.9Y-107.4
X128.9Y-108.0
X128.9Y-108.6
X128.9Y-109.2
X128.9Y-109.8
X128.9Y-110.4
X128.9Y-111.0
X128.9Y-111.6
X128.9Y-112.2
X128.9Y-112.8
X128.9Y-113.4
X128.9Y-114.0
X128.9Y-114.6
X129.1Y-82.35
X129.1Y-82.95
X129.1Y-83.55
X129.1Y-84.15
X129.1Y-84.75
X129.1Y-85.35
X129.1Y-85.95
X129.1Y-86.5
X129.1Y-87.05
X129.5Y-100.8
X129.5Y-101.4
X129.5Y-102.0
X129.5Y-102.6
X129.5Y-103.2
X129.5Y-103.8
X129.5Y-104.4
X129.5Y-105.0
X129.5Y-105.6
X129.5Y-106.2
X129.5Y-106.8
X129.5Y-107.4
X129.5Y-108.0
X129.5Y-108.6
X129.5Y-109.2
X129.5Y-109.8
X129.5Y-110.4
X129.5Y-111.0
X129.5Y-111.6
X129.5Y-112.2
X129.5Y-112.8
X129.5Y-113.4
X129.5Y-114.0
X129.5Y-114.6
X129.7Y-82.95
X129.7Y-83.55
X129.7Y-84.15
X129.7Y-84.75
X129.7Y-85.35
X129.7Y-85.95
X129.7Y-86.5
X129.7Y-87.05
X130.1Y-100.8
X130.1Y-101.4
X130.1Y-102.0
X130.1Y-102.6
X130.1Y-103.2
X130.1Y-103.8
X130.1Y-104.4
X130.1Y-105.0
X130.1Y-105.6
X130.1Y-106.2
X130.1Y-106.8
X130.1Y-107.4
X130.1Y-108.0
X130.1Y-108.6
X130.1Y-109.2
X130.1Y-109.8
X130.1Y-110.4
X130.1Y-111.0
X130.1Y-111.6
X130.1Y-112.2
X130.1Y-112.8
X130.1Y-113.4
X130.1Y-114.0
X130.1Y-114.6
X130.3Y-74.55
X130.3Y-75.15
X130.3Y-75.75
X130.3Y-76.35
X130.3Y-76.95
X130.3Y-77.55
X130.3Y-78.15
X130.3Y-78.75
X130.3Y-83.55
X130.3Y-84.15
X130.3Y-84.75
X130.3Y-85.35
X130.3Y-85.95
X130.7Y-100.8
X130.7Y-101.4
X130.7Y-102.0
X130.7Y-102.6
X130.7Y-103.2
X130.7Y-103.8
X130.7Y-104.4
X130.7Y-105.0
X130.7Y-105.6
X130.7Y-106.2
X130.7Y-106.8
X130.7Y-107.4
X130.7Y-108.0
X130.7Y-108.6
X130.7Y-109.2
X130.7Y-109.8
X130.7Y-110.4
X130.7Y-111.0
X130.7Y-111.6
X130.7Y-112.2
X130.7Y-112.8
X130.7Y-113.4
X130.7Y-114.0
X130.7Y-114.6
X130.9Y-74.55
X130.9Y-75.15
X130.9Y-75.75
X130.9Y-76.35
X130.9Y-76.95
X130.9Y-77.55
X130.9Y-78.15
X130.9Y-78.75
X130.9Y-84.15
X130.9Y-84.75
X130.9Y-85.35
X131.3Y-100.8
X131.3Y-101.4
X131.3Y-102.0
X131.3Y-102.6
X131.3Y-103.2
X131.3Y-103.8
X131.3Y-104.4
X131.3Y-105.0
X131.3Y-105.6
X131.3Y-106.2
X131.3Y-106.8
X131.3Y-107.4
X131.3Y-108.0
X131.3Y-108.6
X131.3Y-109.2
X131.3Y-109.8
X131.3Y-110.4
X131.3Y-111.0
X131.3Y-111.6
X131.3Y-112.2
X131.3Y-112.8
X131.3Y-113.4
X131.3Y-114.0
X131.3Y-114.6
X131.5Y-74.55
X131.5Y-75.15
X131.5Y-75.75
X131.5Y-76.35
X131.5Y-76.95
X131.5Y-77.55
X131.5Y-78.15
X131.5Y-78.75
X131.9Y-100.8
X131.9Y-101.4
X131.9Y-102.0
X131.9Y-102.6
X131.9Y-103.2
X131.9Y-103.8
X131.9Y-104.4
X131.9Y-105.0
X131.9Y-105.6
X131.9Y-106.2
X131.9Y-106.8
X131.9Y-107.4
X131.9Y-108.0
X131.9Y-108.6
X131.9Y-109.2
X131.9Y-109.8
X131.9Y-110.4
X131.9Y-111.0
X131.9Y-111.6
X131.9Y-112.2
X131.9Y-112.8
X131.9Y-113.4
X131.9Y-114.0
X131.9Y-114.6
X132.1Y-74.55
X132.1Y-75.15
X132.1Y-75.75
X132.1Y-76.35
X132.1Y-76.95
X132.1Y-77.55
X132.1Y-78.15
X132.1Y-78.75
X132.5Y-100.8
X132.5Y-101.4
X132.5Y-102.0
X132.5Y-102.6
X132.5Y-103.2
X132.5Y-103.8
X132.5Y-104.4
X132.5Y-105.0
X132.5Y-105.6
X132.5Y-106.2
X132.5Y-106.8
X132.5Y-107.4
X132.5Y-108.0
X132.5Y-108.6
X132.5Y-109.2
X132.5Y-109.8
X132.5Y-110.4
X132.5Y-111.0
X132.5Y-111.6
X132.5Y-112.2
X132.5Y-112.8
X132.5Y-113.4
X132.5Y-114.0
X132.5Y-114.6
X132.7Y-74.55
X132.7Y-75.15
X132.7Y-75.75
X132.7Y-76.35
X132.7Y-76.95
X132.7Y-77.55
X132.7Y-78.15
X132.7Y-78.75
X132.8Y-81.5
X132.8Y-82.1
X132.8Y-82.7
X133.1Y-100.8
X133.1Y-101.4
X133.1Y-102.0
X133.1Y-102.6
X133.1Y-103.2
X133.1Y-103.8
X133.1Y-104.4
X133.1Y-105.0
X133.1Y-105.6
X133.1Y-106.2
X133.1Y-106.8
X133.1Y-107.4
X133.1Y-108.0
X133.1Y-108.6
X133.1Y-109.2
X133.1Y-109.8
X133.1Y-110.4
X133.3Y-74.55
X133.3Y-75.15
X133.3Y-75.75
X133.3Y-76.35
X133.3Y-76.95
X133.3Y-77.55
X133.3Y-78.15
X133.3Y-78.75
X133.4Y-81.5
X133.4Y-82.1
X133.4Y-82.7
X133.4Y-83.3
X133.7Y-100.8
X133.7Y-101.4
X133.7Y-102.0
X133.7Y-102.6
X133.7Y-103.2
X133.7Y-103.8
X133.7Y-104.4
X133.7Y-105.0
X133.7Y-105.6
X133.7Y-106.2
X133.7Y-106.8
X133.7Y-107.4
X133.7Y-108.0
X133.7Y-108.6
X133.7Y-109.2
X133.7Y-109.8
X133.8Y-119.65
X133.8Y-120.35
X133.8Y-121.05
X133.9Y-74.55
X133.9Y-75.15
X133.9Y-75.75
X133.9Y-76.35
X133.9Y-76.95
X133.9Y-77.55
X133.9Y-78.15
X133.9Y-78.75
X134.0Y-81.5
X134.0Y-82.1
X134.0Y-82.7
X134.0Y-83.3
X134.3Y-100.8
X134.3Y-101.4
X134.3Y-102.0
X134.3Y-102.6
X134.3Y-103.2
X134.3Y-103.8
X134.3Y-104.4
X134.3Y-105.0
X134.3Y-105.6
X134.3Y-106.2
X134.3Y-106.8
X134.3Y-107.4
X134.3Y-108.0
X134.3Y-108.6
X134.3Y-109.2
X134.4Y-84.575
X134.4Y-119.0
X134.4Y-119.65
X134.4Y-120.35
X134.4Y-121.05
X134.6Y-81.5
X134.6Y-82.1
X134.6Y-82.7
X134.6Y-83.3
X134.9Y-100.8
X134.9Y-101.4
X134.9Y-102.0
X134.9Y-102.6
X134.9Y-103.2
X134.9Y-103.8
X134.9Y-104.4
X134.9Y-105.0
X134.9Y-105.6
X134.9Y-106.2
X134.9Y-106.8
X134.9Y-107.4
X134.9Y-108.0
X134.9Y-108.6
X135.0Y-87.1
X135.0Y-118.35
X135.0Y-119.0
X135.0Y-119.65
X135.0Y-120.35
X135.0Y-121.05
X135.1Y-111.0
X135.2Y-81.5
X135.2Y-82.1
X135.2Y-82.7
X135.2Y-83.3
X135.2Y-83.9
X135.5Y-100.8
X135.5Y-101.4
X135.5Y-102.0
X135.5Y-102.6
X135.5Y-103.2
X135.6Y-87.1
X135.6Y-118.35
X135.6Y-119.0
X135.6Y-119.65
X135.6Y-120.35
X135.6Y-121.05
X135.75Y-117.5
X135.8Y-82.1
X135.8Y-82.7
X135.8Y-83.3
X135.8Y-83.9
X136.3Y-87.1
X136.4Y-82.1
X136.4Y-82.7
X136.4Y-83.3
X136.4Y-83.9
X136.899Y-87.085
X137.0Y-82.1
X137.0Y-82.7
X137.0Y-83.3
X137.0Y-83.9
X137.7Y-83.626
X137.95Y-118.4
X137.95Y-119.0
X137.95Y-119.65
X137.95Y-120.35
X137.95Y-121.05
X138.5Y-81.7
X138.5Y-82.3
X138.5Y-82.9
X138.55Y-97.3
X138.55Y-97.9
X138.55Y-98.5
X138.55Y-99.1
X138.55Y-99.7
X138.55Y-100.3
X138.55Y-100.9
X138.6Y-118.4
X138.6Y-119.0
X138.6Y-119.65
X138.6Y-120.35
X139.1Y-81.7
X139.1Y-82.3
X139.1Y-82.9
X139.15Y-97.3
X139.15Y-97.9
X139.15Y-98.5
X139.15Y-99.1
X139.15Y-99.7
X139.15Y-100.3
X139.15Y-100.9
X139.2Y-118.4
X139.2Y-119.0
X139.2Y-119.65
X139.3Y-116.4
X139.7Y-81.7
X139.7Y-82.3
X139.7Y-82.9
X139.7Y-83.5
X139.7Y-114.5
X139.75Y-97.3
X139.75Y-97.9
X139.75Y-98.5
X139.75Y-99.1
X139.75Y-99.7
X139.75Y-100.3
X139.75Y-100.9
X139.8Y-102.2
X139.8Y-117.85
X139.8Y-118.4
X139.8Y-119.0
X139.8Y-119.65
X139.8Y-120.35
X140.3Y-81.7
X140.3Y-82.3
X140.3Y-82.9
X140.3Y-83.5
X140.3Y-84.1
X140.35Y-97.3
X140.35Y-97.9
X140.35Y-98.5
X140.35Y-99.1
X140.35Y-99.7
X140.35Y-100.3
X140.35Y-100.9
X140.4Y-78.2
X140.8Y-116.8
X140.9Y-81.7
X140.9Y-82.3
X140.9Y-82.9
X140.9Y-83.5
X140.9Y-84.1
X140.95Y-97.3
X140.95Y-97.9
X140.95Y-98.5
X140.95Y-99.1
X140.95Y-99.7
X140.95Y-100.3
X140.95Y-100.9
X141.0Y-87.0
X141.1Y-78.2
X141.3Y-93.7
X141.4Y-105.3
X141.5Y-82.3
X141.5Y-82.9
X141.5Y-83.5
X141.5Y-84.1
X141.55Y-97.3
X141.55Y-97.9
X141.55Y-98.5
X141.55Y-99.1
X141.55Y-99.7
X141.55Y-100.3
X141.55Y-100.9
X141.55Y-101.55
X141.6Y-114.1
X141.675Y-81.1
X141.7Y-87.0
X141.7Y-109.7
X141.7Y-112.4
X141.85Y-102.45
X141.85Y-103.05
X141.85Y-103.65
X141.85Y-104.25
X141.85Y-104.85
X142.1Y-82.3
X142.1Y-82.9
X142.1Y-83.5
X142.1Y-84.1
X142.3Y-78.2
X142.3Y-87.0
X142.45Y-102.45
X142.45Y-103.05
X142.45Y-103.65
X142.45Y-104.25
X142.45Y-104.85
X142.607Y-111.007
X142.7Y-82.9
X142.7Y-83.5
X142.7Y-84.1
X142.9Y-112.6
X142.9Y-120.6
X142.9Y-121.3
X142.9Y-122.0
X143.0Y-78.2
X143.05Y-102.45
X143.05Y-103.05
X143.05Y-103.65
X143.05Y-104.25
X143.05Y-104.85
X143.5Y-120.6
X143.5Y-121.3
X143.5Y-122.0
X143.6Y-85.8
X143.65Y-102.45
X143.65Y-103.05
X143.65Y-103.65
X143.65Y-104.25
X143.65Y-104.85
X144.25Y-102.45
X144.25Y-103.05
X144.25Y-103.65
X144.25Y-104.25
X144.25Y-104.85
X144.5Y-94.6
X144.6Y-98.6
X144.85Y-102.45
X144.85Y-103.05
X144.85Y-103.65
X144.85Y-104.25
X144.85Y-104.85
X145.0Y-94.1
X145.1Y-94.9
X145.1Y-95.5
X145.1Y-96.1
X145.1Y-96.7
X145.1Y-97.3
X145.45Y-102.45
X145.45Y-103.05
X145.45Y-103.65
X145.45Y-104.25
X145.45Y-104.85
X145.6Y-93.8
X145.7Y-94.9
X145.7Y-95.5
X145.7Y-96.1
X145.7Y-96.7
X145.7Y-97.3
X145.7Y-97.9
X146.05Y-102.45
X146.05Y-103.05
X146.05Y-103.65
X146.05Y-104.25
X146.05Y-104.85
X146.3Y-81.0
X146.3Y-95.5
X146.3Y-96.1
X146.3Y-96.7
X146.3Y-97.3
X146.3Y-97.9
X146.3Y-98.5
X146.3Y-99.1
X146.5Y-93.8
X146.65Y-102.45
X146.65Y-103.05
X146.65Y-103.65
X146.65Y-104.25
X146.65Y-104.85
X146.85Y-119.6
X146.85Y-120.3
X146.85Y-121.0
X146.9Y-95.5
X146.9Y-96.1
X146.9Y-96.7
X146.9Y-97.3
X146.9Y-97.9
X146.9Y-98.5
X146.9Y-99.1
X147.278Y-93.842
X147.45Y-118.9
X147.45Y-119.6
X147.45Y-120.3
X147.45Y-121.0
X147.5Y-95.5
X147.5Y-96.1
X147.5Y-96.7
X147.5Y-97.3
X147.5Y-97.9
X147.5Y-98.5
X147.5Y-99.1
X148.05Y-118.2
X148.05Y-118.9
X148.05Y-119.6
X148.05Y-120.3
X148.05Y-121.0
X148.1Y-95.5
X148.1Y-96.1
X148.1Y-96.7
X148.1Y-97.3
X148.1Y-97.9
X148.1Y-98.5
X148.1Y-99.1
X148.6Y-118.2
X148.6Y-118.9
X148.6Y-119.6
X148.6Y-120.3
X148.6Y-121.0
X148.7Y-96.1
X148.7Y-96.7
X148.7Y-97.3
X148.7Y-97.9
X148.7Y-98.5
X148.7Y-99.1
X148.8Y-84.1
X148.8Y-84.7
X148.8Y-85.3
X148.8Y-85.9
X148.8Y-86.5
X148.8Y-87.1
X148.8Y-87.7
X148.8Y-88.3
X148.8Y-114.1
X148.9Y-93.7
X149.3Y-96.7
X149.3Y-97.3
X149.3Y-97.9
X149.3Y-98.5
X149.3Y-99.1
X149.4Y-84.1
X149.4Y-84.7
X149.4Y-85.3
X149.4Y-85.9
X149.4Y-86.5
X149.4Y-87.1
X149.4Y-87.7
X149.4Y-88.3
X149.7Y-111.3
X149.7Y-111.9
X149.8Y-110.5
X150.0Y-84.1
X150.0Y-84.7
X150.0Y-85.3
X150.0Y-85.9
X150.0Y-86.5
X150.0Y-87.1
X150.0Y-87.7
X150.0Y-88.3
X150.3Y-111.3
X150.3Y-111.9
X150.3Y-112.5
X150.3Y-118.8
X150.3Y-119.5
X150.3Y-120.2
X150.3Y-120.9
X150.5Y-94.4
X150.5Y-97.0
X150.51Y-95.4
X150.6Y-84.1
X150.6Y-84.7
X150.6Y-85.3
X150.6Y-85.9
X150.6Y-86.5
X150.6Y-87.1
X150.6Y-87.7
X150.6Y-88.3
X150.8Y-107.5
X150.9Y-111.3
X150.9Y-111.9
X150.9Y-112.5
X150.9Y-117.55
X150.9Y-118.15
X150.9Y-118.8
X150.9Y-119.5
X150.9Y-120.2
X150.9Y-120.9
X151.088Y-100.688
X151.2Y-84.1
X151.2Y-84.7
X151.2Y-85.3
X151.2Y-85.9
X151.2Y-86.5
X151.2Y-87.1
X151.2Y-87.7
X151.2Y-88.3
X151.2Y-92.1
X151.45Y-117.55
X151.45Y-118.15
X151.45Y-118.8
X151.45Y-119.5
X151.45Y-120.2
X151.45Y-120.9
X151.5Y-112.5
X151.8Y-84.1
X151.8Y-84.7
X151.8Y-85.3
X151.8Y-85.9
X151.8Y-86.5
X151.8Y-87.1
X151.8Y-87.7
X151.8Y-88.3
X152.05Y-117.55
X152.05Y-118.15
X152.05Y-118.8
X152.05Y-119.5
X152.05Y-120.2
X152.05Y-120.9
X152.1Y-107.5
X152.1Y-112.5
X152.2Y-92.9
X152.3Y-101.5
X152.4Y-84.1
X152.4Y-84.7
X152.4Y-85.3
X152.4Y-85.9
X152.4Y-86.5
X152.4Y-87.1
X152.4Y-87.7
X152.4Y-88.3
X152.65Y-118.8
X152.65Y-119.5
X152.65Y-120.2
X152.7Y-112.5
X153.0Y-84.1
X153.0Y-84.7
X153.0Y-85.3
X153.0Y-85.9
X153.0Y-86.5
X153.0Y-87.1
X153.0Y-87.7
X153.0Y-88.3
X153.3Y-78.1
X153.3Y-112.5
X153.4Y-107.5
X153.6Y-84.1
X153.6Y-84.7
X153.6Y-85.3
X153.6Y-85.9
X153.6Y-86.5
X153.6Y-87.1
X153.6Y-87.7
X153.9Y-112.5
X154.2Y-84.1
X154.2Y-84.7
X154.2Y-85.3
X154.2Y-85.9
X154.2Y-86.5
X154.2Y-87.1
X154.5Y-112.5
X154.6Y-117.6
X155.1Y-112.5
X155.7Y-112.5
X155.7Y-121.4
X155.7Y-122.1
X156.3Y-112.5
X156.3Y-120.7
X156.3Y-121.4
X156.3Y-122.1
X156.6Y-94.8
X156.7Y-78.6
X156.9Y-112.5
X157.2Y-86.1
X157.2Y-86.7
X157.2Y-87.3
X157.2Y-87.9
X157.2Y-88.5
X157.2Y-89.1
X157.2Y-89.7
X157.3Y-78.6
X157.3Y-79.2
X157.3Y-79.8
X157.3Y-80.4
X157.3Y-81.0
X157.3Y-81.6
X157.3Y-82.2
X157.3Y-82.8
X157.3Y-83.4
X157.5Y-112.5
X157.8Y-84.9
X157.8Y-85.5
X157.8Y-86.1
X157.8Y-86.7
X157.8Y-87.3
X157.8Y-87.9
X157.8Y-88.5
X157.8Y-89.1
X157.8Y-89.7
X157.8Y-90.3
X157.9Y-78.6
X157.9Y-79.2
X157.9Y-79.8
X157.9Y-80.4
X157.9Y-81.0
X157.9Y-81.6
X157.9Y-82.2
X157.9Y-82.8
X157.9Y-83.4
X158.1Y-112.5
X158.4Y-84.9
X158.4Y-85.5
X158.4Y-86.1
X158.4Y-86.7
X158.4Y-87.3
X158.4Y-87.9
X158.4Y-88.5
X158.4Y-89.1
X158.4Y-89.7
X158.4Y-90.3
X158.5Y-78.6
X158.5Y-79.2
X158.5Y-79.8
X158.5Y-80.4
X158.5Y-81.0
X158.5Y-81.6
X158.5Y-82.2
X158.5Y-82.8
X158.7Y-112.5
X159.0Y-84.9
X159.0Y-85.5
X159.0Y-86.1
X159.0Y-86.7
X159.0Y-87.3
X159.0Y-87.9
X159.0Y-88.5
X159.0Y-89.1
X159.0Y-89.7
X159.0Y-90.3
X159.1Y-79.2
X159.1Y-79.8
X159.1Y-80.4
X159.1Y-81.0
X159.1Y-81.6
X159.1Y-82.2
X159.6Y-84.9
X159.6Y-85.5
X159.6Y-86.1
X159.6Y-86.7
X159.6Y-87.3
X159.6Y-87.9
X159.6Y-88.5
X159.6Y-89.1
X159.6Y-89.7
X159.6Y-90.3
X159.6Y-90.85
X159.6Y-91.45
X159.6Y-92.05
X159.6Y-92.65
X159.6Y-93.25
X159.6Y-93.85
X159.7Y-78.9
X159.7Y-79.8
X159.7Y-80.4
X159.7Y-81.0
X159.7Y-81.6
X159.8Y-82.2
X160.0Y-97.626
X160.1Y-96.8
X160.25Y-86.1
X160.25Y-86.7
X160.25Y-87.3
X160.25Y-87.9
X160.25Y-88.5
X160.25Y-89.1
X160.25Y-89.7
X160.25Y-90.3
X160.25Y-90.9
X160.25Y-91.5
X160.25Y-92.1
X160.25Y-92.7
X160.25Y-93.25
X160.9Y-86.7
X160.9Y-87.3
X160.9Y-87.9
X160.9Y-88.5
X160.9Y-89.1
X160.9Y-89.7
X160.9Y-90.3
X160.9Y-90.85
X160.9Y-91.45
X160.9Y-92.05
X161.1Y-100.1
X161.225Y-98.2
X161.3Y-96.3
X161.5Y-86.7
X161.5Y-87.3
X161.5Y-87.9
X161.5Y-88.5
X161.5Y-89.1
X161.5Y-89.7
X161.5Y-90.3
X161.5Y-90.85
X161.5Y-91.45
X161.6Y-74.9
X161.6Y-75.5
X161.6Y-76.1
X161.6Y-76.7
X161.6Y-77.3
X162.2Y-74.9
X162.2Y-75.5
X162.2Y-76.1
X162.2Y-76.7
X162.2Y-77.3
X162.3Y-94.7
X162.8Y-74.9
X162.8Y-75.5
X162.8Y-76.1
X162.8Y-76.7
X162.8Y-77.3
X163.4Y-74.9
X163.4Y-75.5
X163.4Y-76.1
X163.4Y-76.7
X163.4Y-77.3
X163.6Y-99.5
X164.0Y-74.9
X164.0Y-75.5
X164.0Y-76.1
X164.0Y-76.7
X164.0Y-77.3
X164.2Y-100.0
X164.3Y-84.2
X164.6Y-74.9
X164.6Y-75.5
X164.6Y-76.1
X164.6Y-76.7
X164.6Y-77.3
X164.6Y-110.849
X164.664Y-96.864
X165.1Y-115.6
X165.1Y-116.2
X165.1Y-116.8
X165.1Y-117.4
X165.1Y-118.0
X165.1Y-118.6
X165.1Y-119.2
X165.1Y-119.8
X165.1Y-120.4
X165.1Y-121.0
X165.1Y-121.6
X165.1Y-122.2
X165.1Y-122.8
X165.1Y-123.4
X165.1Y-124.0
X165.2Y-74.9
X165.2Y-75.5
X165.2Y-76.1
X165.2Y-76.7
X165.2Y-77.3
X165.2Y-81.6
X165.7Y-109.7
X165.7Y-115.6
X165.7Y-116.2
X165.7Y-116.8
X165.7Y-117.4
X165.7Y-118.0
X165.7Y-118.6
X165.7Y-119.2
X165.7Y-119.8
X165.7Y-120.4
X165.7Y-121.0
X165.7Y-121.6
X165.7Y-122.2
X165.7Y-122.8
X165.7Y-123.4
X165.7Y-124.0
X165.8Y-74.9
X165.8Y-75.5
X165.8Y-76.1
X165.8Y-76.7
X165.8Y-77.3
X166.3Y-115.6
X166.3Y-116.2
X166.3Y-116.8
X166.3Y-117.4
X166.3Y-118.0
X166.3Y-118.6
X166.3Y-119.2
X166.3Y-119.8
X166.3Y-120.4
X166.3Y-121.0
X166.3Y-121.6
X166.3Y-122.2
X166.3Y-122.8
X166.3Y-123.4
X166.3Y-124.0
X166.4Y-74.9
X166.4Y-75.5
X166.4Y-76.1
X166.4Y-76.7
X166.4Y-77.3
X166.6Y-101.9
X166.629Y-93.129
X166.9Y-115.6
X166.9Y-116.2
X166.9Y-116.8
X166.9Y-117.4
X166.9Y-118.0
X166.9Y-118.6
X166.9Y-119.2
X166.9Y-119.8
X166.9Y-120.4
X166.9Y-121.0
X166.9Y-121.6
X166.9Y-122.2
X166.9Y-122.8
X166.9Y-123.4
X166.9Y-124.0
X167.0Y-74.9
X167.0Y-75.5
X167.0Y-76.1
X167.0Y-76.7
X167.0Y-77.3
X167.4Y-85.3
X167.5Y-115.6
X167.5Y-116.2
X167.5Y-116.8
X167.5Y-117.4
X167.5Y-118.0
X167.5Y-118.6
X167.5Y-119.2
X167.5Y-119.8
X167.5Y-120.4
X167.5Y-121.0
X167.5Y-121.6
X167.5Y-122.2
X167.5Y-122.8
X167.5Y-123.4
X167.5Y-124.0
X169.2Y-91.9
X169.2Y-93.5
X169.2Y-95.0
X169.5Y-106.5
X169.9Y-116.0
X169.903Y-97.754
X170.25Y-90.8
X170.3Y-112.65
X170.5Y-97.7
X170.5Y-98.3
X170.5Y-98.9
X170.5Y-99.5
X170.5Y-100.1
X170.5Y-100.7
X170.5Y-101.3
X170.5Y-101.9
X170.5Y-102.5
X170.5Y-103.1
X170.5Y-103.9
X170.8Y-113.9
X170.8Y-114.5
X170.85Y-87.2
X170.85Y-87.8
X170.85Y-88.4
X170.85Y-89.0
X170.85Y-89.6
X170.85Y-90.2
X170.9Y-112.65
X171.1Y-97.7
X171.1Y-98.3
X171.1Y-98.9
X171.1Y-99.5
X171.1Y-100.1
X171.1Y-100.7
X171.1Y-101.3
X171.1Y-101.9
X171.1Y-102.5
X171.1Y-103.1
X171.1Y-103.9
X171.45Y-87.2
X171.45Y-87.8
X171.45Y-88.4
X171.45Y-89.0
X171.45Y-89.6
X171.5Y-112.65
X171.5Y-113.9
X171.5Y-114.5
X171.7Y-97.7
X171.7Y-98.3
X171.7Y-98.9
X171.7Y-99.5
X171.7Y-100.1
X171.7Y-100.7
X171.7Y-101.3
X171.7Y-101.9
X171.7Y-102.5
X171.7Y-103.1
X171.7Y-103.9
X172.2Y-113.9
X172.2Y-114.5
X172.3Y-90.8
X172.3Y-97.7
X172.3Y-98.3
X172.3Y-98.9
X172.3Y-99.5
X172.3Y-100.1
X172.3Y-100.7
X172.3Y-101.3
X172.3Y-101.9
X172.3Y-102.5
X172.3Y-103.1
X172.3Y-103.9
X172.35Y-107.05
X172.35Y-107.65
X172.35Y-108.25
X172.35Y-108.85
X172.9Y-90.2
X172.9Y-90.8
X172.9Y-97.7
X172.9Y-98.3
X172.9Y-98.9
X172.9Y-99.5
X172.9Y-100.1
X172.9Y-100.7
X172.9Y-101.3
X172.9Y-101.9
X172.9Y-102.5
X172.9Y-103.1
X173.5Y-87.2
X173.5Y-87.8
X173.5Y-88.4
X173.5Y-89.0
X173.5Y-89.6
X173.5Y-90.2
X173.5Y-97.7
X173.5Y-98.3
X173.5Y-98.9
X173.5Y-99.5
X173.5Y-100.1
X173.5Y-100.7
X173.5Y-101.3
X173.5Y-101.9
X173.5Y-102.5
X173.5Y-103.1
X174.062Y-91.0
X174.1Y-87.2
X174.1Y-87.8
X174.1Y-88.4
X174.1Y-89.0
X174.1Y-89.6
X174.1Y-90.2
X174.1Y-97.7
X174.1Y-98.3
X174.1Y-98.9
X174.1Y-99.5
X174.1Y-100.1
X174.1Y-100.7
X174.1Y-101.3
X174.1Y-101.9
X174.1Y-102.5
X174.1Y-103.1
X174.7Y-87.2
X174.7Y-87.8
X174.7Y-88.4
X174.7Y-89.0
X174.7Y-89.6
X174.7Y-90.2
X174.7Y-90.8
X174.7Y-97.7
X174.7Y-98.3
X174.7Y-98.9
X174.7Y-99.5
X174.7Y-100.1
X174.7Y-100.7
X174.7Y-101.3
X174.7Y-101.9
X174.7Y-102.5
X174.7Y-103.1
T2
X139.1Y-121.0
T3
X123.05Y-73.6
X123.05Y-119.6
X123.533Y-72.433
X123.533Y-74.767
X123.533Y-118.433
X123.533Y-120.767
X124.7Y-71.95
X124.7Y-75.25
X124.7Y-117.95
X124.7Y-121.25
X125.867Y-72.433
X125.867Y-74.767
X125.867Y-118.433
X125.867Y-120.767
X126.35Y-73.6
X126.35Y-119.6
X169.05Y-73.6
X169.05Y-119.6
X169.533Y-72.433
X169.533Y-74.767
X169.533Y-118.433
X169.533Y-120.767
X170.7Y-71.95
X170.7Y-75.25
X170.7Y-117.95
X170.7Y-121.25
X171.867Y-72.433
X171.867Y-74.767
X171.867Y-118.433
X171.867Y-120.767
X172.35Y-73.6
X172.35Y-119.6
T4
X121.7Y-77.6
X121.7Y-80.6
X121.7Y-85.6
X121.7Y-88.6
X121.7Y-93.6
X121.7Y-96.6
X129.7Y-70.6
X132.7Y-70.6
X137.7Y-70.6
X140.7Y-70.6
X145.7Y-70.6
X148.7Y-70.6
X153.7Y-70.6
X156.7Y-70.6
X161.7Y-70.6
X164.7Y-70.6
T5
X159.1Y-122.1
X162.8Y-122.1
X171.025Y-79.975
X171.025Y-82.515
X171.025Y-85.055
X173.565Y-79.975
X173.565Y-82.515
X173.565Y-85.055
T6
X124.7Y-73.6
X124.7Y-119.6
X170.7Y-73.6
X170.7Y-119.6
T0
M30
