%TF.GenerationSoftware,KiCad,Pcbnew,(7.0.0)*%
%TF.CreationDate,2024-08-27T08:05:48+05:30*%
%TF.ProjectId,Temperature Thing With Thermocouple 3V3,54656d70-6572-4617-9475-726520546869,v2.0.1*%
%TF.SameCoordinates,Original*%
%TF.FileFunction,Soldermask,Bot*%
%TF.FilePolarity,Negative*%
%FSLAX46Y46*%
G04 Gerber Fmt 4.6, Leading zero omitted, Abs format (unit mm)*
G04 Created by KiCad (PCBNEW (7.0.0)) date 2024-08-27 08:05:48*
%MOMM*%
%LPD*%
G01*
G04 APERTURE LIST*
G04 Aperture macros list*
%AMRoundRect*
0 Rectangle with rounded corners*
0 $1 Rounding radius*
0 $2 $3 $4 $5 $6 $7 $8 $9 X,Y pos of 4 corners*
0 Add a 4 corners polygon primitive as box body*
4,1,4,$2,$3,$4,$5,$6,$7,$8,$9,$2,$3,0*
0 Add four circle primitives for the rounded corners*
1,1,$1+$1,$2,$3*
1,1,$1+$1,$4,$5*
1,1,$1+$1,$6,$7*
1,1,$1+$1,$8,$9*
0 Add four rect primitives between the rounded corners*
20,1,$1+$1,$2,$3,$4,$5,0*
20,1,$1+$1,$4,$5,$6,$7,0*
20,1,$1+$1,$6,$7,$8,$9,0*
20,1,$1+$1,$8,$9,$2,$3,0*%
G04 Aperture macros list end*
%ADD10R,4.000000X4.000000*%
%ADD11R,1.700000X1.700000*%
%ADD12O,1.700000X1.700000*%
%ADD13O,1.850000X1.050000*%
%ADD14R,1.000000X1.000000*%
%ADD15RoundRect,0.225000X-0.250000X0.225000X-0.250000X-0.225000X0.250000X-0.225000X0.250000X0.225000X0*%
%ADD16RoundRect,0.200000X-0.275000X0.200000X-0.275000X-0.200000X0.275000X-0.200000X0.275000X0.200000X0*%
%ADD17R,0.650000X0.650000*%
%ADD18R,2.000000X1.500000*%
%ADD19R,2.000000X3.800000*%
%ADD20R,0.450000X1.600000*%
%ADD21RoundRect,0.200000X0.200000X0.275000X-0.200000X0.275000X-0.200000X-0.275000X0.200000X-0.275000X0*%
%ADD22RoundRect,0.225000X-0.225000X-0.375000X0.225000X-0.375000X0.225000X0.375000X-0.225000X0.375000X0*%
%ADD23RoundRect,0.225000X-0.225000X-0.250000X0.225000X-0.250000X0.225000X0.250000X-0.225000X0.250000X0*%
%ADD24R,1.500000X1.500000*%
%ADD25RoundRect,0.200000X0.275000X-0.200000X0.275000X0.200000X-0.275000X0.200000X-0.275000X-0.200000X0*%
%ADD26C,0.950000*%
%ADD27R,1.100000X2.400000*%
%ADD28R,0.620000X1.400000*%
G04 APERTURE END LIST*
D10*
%TO.C,J7*%
X166499999Y-115999999D03*
%TD*%
D11*
%TO.C,J18*%
X119999999Y-103674999D03*
D12*
X122539999Y-103674999D03*
X119999999Y-106214999D03*
X122539999Y-106214999D03*
X119999999Y-108754999D03*
X122539999Y-108754999D03*
%TD*%
D10*
%TO.C,J10*%
X121499999Y-115999999D03*
%TD*%
%TO.C,J15*%
X141499999Y-115999999D03*
%TD*%
D13*
%TO.C,J13*%
X155124999Y-99799999D03*
X158574999Y-99799999D03*
X155174999Y-92199999D03*
X158624999Y-92199999D03*
%TD*%
D11*
%TO.C,J16*%
X157679999Y-105399999D03*
%TD*%
D10*
%TO.C,J11*%
X131499999Y-115999999D03*
%TD*%
%TO.C,J2*%
X126499999Y-115999999D03*
%TD*%
%TO.C,J8*%
X156499999Y-115999999D03*
%TD*%
%TO.C,J1*%
X116499999Y-115999999D03*
%TD*%
D11*
%TO.C,J21*%
X120499999Y-87199999D03*
D12*
X120499999Y-89739999D03*
X120499999Y-92279999D03*
X120499999Y-94819999D03*
%TD*%
D10*
%TO.C,J4*%
X106499999Y-115999999D03*
%TD*%
%TO.C,J6*%
X146499999Y-115999999D03*
%TD*%
%TO.C,J12*%
X101499999Y-115999999D03*
%TD*%
%TO.C,J3*%
X136499999Y-115999999D03*
%TD*%
%TO.C,J14*%
X171499999Y-115999999D03*
%TD*%
%TO.C,J17*%
X161499999Y-115999999D03*
%TD*%
%TO.C,J5*%
X176499999Y-115999999D03*
%TD*%
%TO.C,J9*%
X111499999Y-115999999D03*
%TD*%
%TO.C,J19*%
X151499999Y-115999999D03*
%TD*%
D11*
%TO.C,J20*%
X157629999Y-109049999D03*
%TD*%
D14*
%TO.C,TP12*%
X123974999Y-99299999D03*
%TD*%
D15*
%TO.C,C14*%
X132200000Y-98775000D03*
X132200000Y-100325000D03*
%TD*%
D16*
%TO.C,R12*%
X137800000Y-98725000D03*
X137800000Y-100375000D03*
%TD*%
D17*
%TO.C,RV1*%
X130799999Y-99799999D03*
X130799999Y-98799999D03*
%TD*%
D18*
%TO.C,U8*%
X152624999Y-93199999D03*
X152624999Y-95499999D03*
D19*
X146324999Y-95499999D03*
D18*
X152624999Y-97799999D03*
%TD*%
D14*
%TO.C,TP9*%
X132274999Y-108349999D03*
%TD*%
D20*
%TO.C,U3*%
X145799999Y-110124999D03*
X145149999Y-110124999D03*
X144499999Y-110124999D03*
X143849999Y-110124999D03*
X143199999Y-110124999D03*
X142549999Y-110124999D03*
X141899999Y-110124999D03*
X141249999Y-110124999D03*
X141249999Y-104374999D03*
X141899999Y-104374999D03*
X142549999Y-104374999D03*
X143199999Y-104374999D03*
X143849999Y-104374999D03*
X144499999Y-104374999D03*
X145149999Y-104374999D03*
X145799999Y-104374999D03*
%TD*%
D21*
%TO.C,R3*%
X148225000Y-83175000D03*
X146575000Y-83175000D03*
%TD*%
D17*
%TO.C,RV3*%
X139199999Y-99799999D03*
X139199999Y-98799999D03*
%TD*%
D22*
%TO.C,D6*%
X155430000Y-102150000D03*
X158730000Y-102150000D03*
%TD*%
D23*
%TO.C,C17*%
X151625000Y-99925000D03*
X153175000Y-99925000D03*
%TD*%
D17*
%TO.C,RV4*%
X136399999Y-99799999D03*
X136399999Y-98799999D03*
%TD*%
%TO.C,RV6*%
X126699999Y-99799999D03*
X126699999Y-98799999D03*
%TD*%
D24*
%TO.C,SW1*%
X154724999Y-86049999D03*
X146924999Y-86049999D03*
%TD*%
D14*
%TO.C,TP7*%
X132274999Y-104349999D03*
%TD*%
D17*
%TO.C,RV5*%
X133599999Y-99799999D03*
X133599999Y-98799999D03*
%TD*%
D25*
%TO.C,R13*%
X135000000Y-100375000D03*
X135000000Y-98725000D03*
%TD*%
D14*
%TO.C,TP5*%
X148024999Y-100099999D03*
%TD*%
D26*
%TO.C,U4*%
X130850000Y-84805000D03*
X137650000Y-84805000D03*
D27*
X126674999Y-94224999D03*
X126674999Y-85224999D03*
X142824999Y-85224999D03*
X142824999Y-94224999D03*
D28*
X136854999Y-96224999D03*
X135754999Y-96224999D03*
X134654999Y-96224999D03*
X133554999Y-96224999D03*
X132454999Y-96224999D03*
X131354999Y-96224999D03*
X130254999Y-96224999D03*
X129154999Y-96224999D03*
X128054999Y-96224999D03*
%TD*%
D17*
%TO.C,RV2*%
X127999999Y-99799999D03*
X127999999Y-98799999D03*
%TD*%
D25*
%TO.C,R11*%
X129400000Y-100375000D03*
X129400000Y-98725000D03*
%TD*%
D20*
%TO.C,U6*%
X139549999Y-110124999D03*
X138899999Y-110124999D03*
X138249999Y-110124999D03*
X137599999Y-110124999D03*
X136949999Y-110124999D03*
X136299999Y-110124999D03*
X135649999Y-110124999D03*
X134999999Y-110124999D03*
X134999999Y-104374999D03*
X135649999Y-104374999D03*
X136299999Y-104374999D03*
X136949999Y-104374999D03*
X137599999Y-104374999D03*
X138249999Y-104374999D03*
X138899999Y-104374999D03*
X139549999Y-104374999D03*
%TD*%
D14*
%TO.C,TP8*%
X132274999Y-106349999D03*
%TD*%
D23*
%TO.C,C18*%
X151625000Y-91075000D03*
X153175000Y-91075000D03*
%TD*%
M02*
