%TF.GenerationSoftware,KiCad,Pcbnew,(7.0.0)*%
%TF.CreationDate,2024-01-17T09:10:34+05:30*%
%TF.ProjectId,Temperature Thing With Thermocouple,54656d70-6572-4617-9475-726520546869,rev?*%
%TF.SameCoordinates,Original*%
%TF.FileFunction,Paste,Top*%
%TF.FilePolarity,Positive*%
%FSLAX46Y46*%
G04 Gerber Fmt 4.6, Leading zero omitted, Abs format (unit mm)*
G04 Created by KiCad (PCBNEW (7.0.0)) date 2024-01-17 09:10:34*
%MOMM*%
%LPD*%
G01*
G04 APERTURE LIST*
G04 Aperture macros list*
%AMRoundRect*
0 Rectangle with rounded corners*
0 $1 Rounding radius*
0 $2 $3 $4 $5 $6 $7 $8 $9 X,Y pos of 4 corners*
0 Add a 4 corners polygon primitive as box body*
4,1,4,$2,$3,$4,$5,$6,$7,$8,$9,$2,$3,0*
0 Add four circle primitives for the rounded corners*
1,1,$1+$1,$2,$3*
1,1,$1+$1,$4,$5*
1,1,$1+$1,$6,$7*
1,1,$1+$1,$8,$9*
0 Add four rect primitives between the rounded corners*
20,1,$1+$1,$2,$3,$4,$5,0*
20,1,$1+$1,$4,$5,$6,$7,0*
20,1,$1+$1,$6,$7,$8,$9,0*
20,1,$1+$1,$8,$9,$2,$3,0*%
G04 Aperture macros list end*
%ADD10R,1.500000X2.000000*%
%ADD11R,3.800000X2.000000*%
%ADD12RoundRect,0.225000X0.375000X-0.225000X0.375000X0.225000X-0.375000X0.225000X-0.375000X-0.225000X0*%
%ADD13RoundRect,0.218750X0.218750X0.256250X-0.218750X0.256250X-0.218750X-0.256250X0.218750X-0.256250X0*%
%ADD14RoundRect,0.200000X0.275000X-0.200000X0.275000X0.200000X-0.275000X0.200000X-0.275000X-0.200000X0*%
%ADD15RoundRect,0.225000X-0.250000X0.225000X-0.250000X-0.225000X0.250000X-0.225000X0.250000X0.225000X0*%
%ADD16RoundRect,0.225000X-0.225000X-0.250000X0.225000X-0.250000X0.225000X0.250000X-0.225000X0.250000X0*%
%ADD17R,0.450000X1.600000*%
%ADD18RoundRect,0.200000X-0.200000X-0.275000X0.200000X-0.275000X0.200000X0.275000X-0.200000X0.275000X0*%
%ADD19RoundRect,0.200000X0.200000X0.275000X-0.200000X0.275000X-0.200000X-0.275000X0.200000X-0.275000X0*%
%ADD20RoundRect,0.200000X-0.275000X0.200000X-0.275000X-0.200000X0.275000X-0.200000X0.275000X0.200000X0*%
%ADD21R,1.380000X0.450000*%
%ADD22R,1.300000X1.650000*%
%ADD23R,1.550000X1.425000*%
%ADD24R,1.900000X1.800000*%
%ADD25R,1.900000X1.000000*%
%ADD26RoundRect,0.225000X0.250000X-0.225000X0.250000X0.225000X-0.250000X0.225000X-0.250000X-0.225000X0*%
%ADD27R,1.500000X0.550000*%
%ADD28R,0.550000X1.500000*%
%ADD29RoundRect,0.218750X-0.218750X-0.256250X0.218750X-0.256250X0.218750X0.256250X-0.218750X0.256250X0*%
%ADD30RoundRect,0.150000X-0.512500X-0.150000X0.512500X-0.150000X0.512500X0.150000X-0.512500X0.150000X0*%
%ADD31R,1.500000X1.500000*%
%ADD32R,1.400000X1.200000*%
%ADD33RoundRect,0.225000X-0.375000X0.225000X-0.375000X-0.225000X0.375000X-0.225000X0.375000X0.225000X0*%
%ADD34RoundRect,0.225000X-0.225000X-0.375000X0.225000X-0.375000X0.225000X0.375000X-0.225000X0.375000X0*%
%ADD35RoundRect,0.225000X0.225000X0.250000X-0.225000X0.250000X-0.225000X-0.250000X0.225000X-0.250000X0*%
G04 APERTURE END LIST*
D10*
%TO.C,U10*%
X147299999Y-122449999D03*
X149599999Y-122449999D03*
D11*
X149599999Y-116149999D03*
D10*
X151899999Y-122449999D03*
%TD*%
D12*
%TO.C,D4*%
X143200000Y-122950000D03*
X143200000Y-119650000D03*
%TD*%
D13*
%TO.C,D1*%
X174775000Y-96400000D03*
X173200000Y-96400000D03*
%TD*%
D14*
%TO.C,R10*%
X148400000Y-104425000D03*
X148400000Y-102775000D03*
%TD*%
D15*
%TO.C,C22*%
X145200000Y-121425000D03*
X145200000Y-122975000D03*
%TD*%
D16*
%TO.C,C15*%
X139725000Y-96200000D03*
X141275000Y-96200000D03*
%TD*%
D17*
%TO.C,U4*%
X136974999Y-80024999D03*
X136324999Y-80024999D03*
X135674999Y-80024999D03*
X135024999Y-80024999D03*
X134374999Y-80024999D03*
X133724999Y-80024999D03*
X133074999Y-80024999D03*
X132424999Y-80024999D03*
X132424999Y-85774999D03*
X133074999Y-85774999D03*
X133724999Y-85774999D03*
X134374999Y-85774999D03*
X135024999Y-85774999D03*
X135674999Y-85774999D03*
X136324999Y-85774999D03*
X136974999Y-85774999D03*
%TD*%
D18*
%TO.C,R15*%
X170162500Y-91900000D03*
X171812500Y-91900000D03*
%TD*%
D15*
%TO.C,C17*%
X158100000Y-91625000D03*
X158100000Y-93175000D03*
%TD*%
D19*
%TO.C,R12*%
X171812500Y-96400000D03*
X170162500Y-96400000D03*
%TD*%
D20*
%TO.C,R16*%
X166500000Y-85275000D03*
X166500000Y-86925000D03*
%TD*%
D21*
%TO.C,J20*%
X171139999Y-109599999D03*
X171139999Y-108949999D03*
X171139999Y-108299999D03*
X171139999Y-107649999D03*
X171139999Y-106999999D03*
D22*
X173799999Y-111674999D03*
D23*
X171224999Y-110787499D03*
D24*
X173799999Y-109449999D03*
D25*
X173799999Y-106749999D03*
D23*
X171224999Y-105812499D03*
D22*
X173799999Y-104924999D03*
%TD*%
D26*
%TO.C,C19*%
X141200000Y-122975000D03*
X141200000Y-121425000D03*
%TD*%
D27*
%TO.C,U6*%
X151799999Y-99399999D03*
X151799999Y-98599999D03*
X151799999Y-97799999D03*
X151799999Y-96999999D03*
X151799999Y-96199999D03*
X151799999Y-95399999D03*
X151799999Y-94599999D03*
X151799999Y-93799999D03*
D28*
X150299999Y-92299999D03*
X149499999Y-92299999D03*
X148699999Y-92299999D03*
X147899999Y-92299999D03*
X147099999Y-92299999D03*
X146299999Y-92299999D03*
X145499999Y-92299999D03*
X144699999Y-92299999D03*
D27*
X143199999Y-93799999D03*
X143199999Y-94599999D03*
X143199999Y-95399999D03*
X143199999Y-96199999D03*
X143199999Y-96999999D03*
X143199999Y-97799999D03*
X143199999Y-98599999D03*
X143199999Y-99399999D03*
D28*
X144699999Y-100899999D03*
X145499999Y-100899999D03*
X146299999Y-100899999D03*
X147099999Y-100899999D03*
X147899999Y-100899999D03*
X148699999Y-100899999D03*
X149499999Y-100899999D03*
X150299999Y-100899999D03*
%TD*%
D29*
%TO.C,D7*%
X170200000Y-94900000D03*
X171775000Y-94900000D03*
%TD*%
D16*
%TO.C,C13*%
X139725000Y-94700000D03*
X141275000Y-94700000D03*
%TD*%
D15*
%TO.C,C21*%
X154000000Y-121425000D03*
X154000000Y-122975000D03*
%TD*%
D30*
%TO.C,U9*%
X166762500Y-107750000D03*
X166762500Y-108700000D03*
X166762500Y-109650000D03*
X169037500Y-109650000D03*
X169037500Y-108700000D03*
X169037500Y-107750000D03*
%TD*%
D31*
%TO.C,SW1*%
X163699999Y-78699999D03*
X163699999Y-86499999D03*
%TD*%
D19*
%TO.C,R13*%
X174812500Y-93400000D03*
X173162500Y-93400000D03*
%TD*%
D15*
%TO.C,C20*%
X132400000Y-121425000D03*
X132400000Y-122975000D03*
%TD*%
D14*
%TO.C,R11*%
X149900000Y-104425000D03*
X149900000Y-102775000D03*
%TD*%
D29*
%TO.C,D6*%
X170200000Y-93400000D03*
X171775000Y-93400000D03*
%TD*%
D13*
%TO.C,D5*%
X174775000Y-91900000D03*
X173200000Y-91900000D03*
%TD*%
D10*
%TO.C,U7*%
X134499999Y-122449999D03*
X136799999Y-122449999D03*
D11*
X136799999Y-116149999D03*
D10*
X139099999Y-122449999D03*
%TD*%
D32*
%TO.C,Y2*%
X154099999Y-93349999D03*
X156299999Y-93349999D03*
X156299999Y-91649999D03*
X154099999Y-91649999D03*
%TD*%
D33*
%TO.C,D3*%
X156000000Y-119750000D03*
X156000000Y-123050000D03*
%TD*%
D17*
%TO.C,U8*%
X142974999Y-80024999D03*
X142324999Y-80024999D03*
X141674999Y-80024999D03*
X141024999Y-80024999D03*
X140374999Y-80024999D03*
X139724999Y-80024999D03*
X139074999Y-80024999D03*
X138424999Y-80024999D03*
X138424999Y-85774999D03*
X139074999Y-85774999D03*
X139724999Y-85774999D03*
X140374999Y-85774999D03*
X141024999Y-85774999D03*
X141674999Y-85774999D03*
X142324999Y-85774999D03*
X142974999Y-85774999D03*
%TD*%
D16*
%TO.C,C18*%
X154325000Y-90000000D03*
X155875000Y-90000000D03*
%TD*%
D19*
%TO.C,R14*%
X174812500Y-94900000D03*
X173162500Y-94900000D03*
%TD*%
D34*
%TO.C,D2*%
X169850000Y-114200000D03*
X173150000Y-114200000D03*
%TD*%
D35*
%TO.C,C12*%
X155275000Y-95200000D03*
X153725000Y-95200000D03*
%TD*%
%TO.C,C14*%
X155275000Y-96700000D03*
X153725000Y-96700000D03*
%TD*%
M02*
