M48
; DRILL file {KiCad (7.0.0)} date Tue Aug 27 08:05:35 2024
; FORMAT={-:-/ absolute / metric / decimal}
; #@! TF.CreationDate,2024-08-27T08:05:35+05:30
; #@! TF.GenerationSoftware,Kicad,Pcbnew,(7.0.0)
; #@! TF.FileFunction,Plated,1,4,PTH
FMAT,2
METRIC
; #@! TA.AperFunction,Plated,PTH,ViaDrill
T1C0.200
; #@! TA.AperFunction,Plated,PTH,ViaDrill
T2C0.250
; #@! TA.AperFunction,Plated,PTH,ComponentDrill
T3C0.450
; #@! TA.AperFunction,Plated,PTH,ComponentDrill
T4C1.000
; #@! TA.AperFunction,Plated,PTH,ComponentDrill
T5C2.000
%
G90
G05
T1
X94.7Y-115.1
X94.7Y-115.7
X94.7Y-116.3
X94.7Y-116.9
X94.7Y-117.5
X94.7Y-118.1
X94.7Y-118.7
X94.7Y-119.3
X94.7Y-119.9
X94.7Y-120.5
X95.1Y-113.8
X95.1Y-114.4
X95.4Y-119.0
X95.4Y-119.6
X95.4Y-120.2
X95.4Y-120.8
X95.4Y-121.4
X95.7Y-113.2
X95.7Y-113.8
X95.7Y-114.4
X95.7Y-115.0
X95.7Y-115.6
X96.0Y-119.6
X96.0Y-120.2
X96.0Y-120.8
X96.0Y-121.4
X96.0Y-122.0
X96.2Y-113.2
X96.3Y-113.8
X96.3Y-114.4
X96.3Y-115.0
X96.6Y-119.6
X96.6Y-120.2
X96.6Y-120.8
X96.6Y-121.4
X96.6Y-122.0
X96.9Y-113.1
X96.9Y-113.8
X96.9Y-114.4
X96.9Y-115.0
X97.2Y-119.6
X97.2Y-120.2
X97.2Y-120.8
X97.2Y-121.4
X97.2Y-122.0
X97.5Y-113.8
X97.5Y-114.4
X97.5Y-115.0
X97.6Y-113.1
X97.8Y-119.6
X97.8Y-120.2
X97.8Y-120.8
X97.8Y-121.4
X97.8Y-122.0
X98.1Y-113.8
X98.1Y-114.4
X98.1Y-115.0
X98.1Y-115.6
X98.2Y-113.1
X98.4Y-119.6
X98.4Y-120.2
X98.4Y-120.8
X98.4Y-121.4
X98.4Y-122.0
X98.8Y-113.1
X98.8Y-113.7
X98.8Y-114.2
X98.8Y-114.8
X98.8Y-115.4
X98.8Y-116.0
X98.8Y-119.0
X99.0Y-119.6
X99.0Y-120.2
X99.0Y-120.8
X99.0Y-121.4
X99.0Y-122.0
X99.4Y-113.1
X99.6Y-119.0
X99.6Y-119.6
X99.6Y-120.2
X99.6Y-120.8
X99.6Y-121.4
X99.6Y-122.0
X100.0Y-113.1
X100.2Y-119.6
X100.2Y-120.2
X100.2Y-120.8
X100.2Y-121.4
X100.2Y-122.0
X100.8Y-119.6
X100.8Y-120.2
X100.8Y-120.8
X100.8Y-121.4
X100.8Y-122.0
X101.4Y-119.6
X101.4Y-120.2
X101.4Y-120.8
X101.4Y-121.4
X101.4Y-122.0
X102.0Y-119.6
X102.0Y-120.2
X102.0Y-120.8
X102.0Y-121.4
X102.0Y-122.0
X102.6Y-119.3
X103.2Y-119.3
X105.3Y-119.6
X105.9Y-119.6
X105.9Y-120.2
X105.9Y-120.8
X105.9Y-121.4
X105.9Y-122.0
X106.5Y-119.6
X106.5Y-120.2
X106.5Y-120.8
X106.5Y-121.4
X106.5Y-122.0
X107.1Y-119.6
X107.1Y-120.2
X107.1Y-120.8
X107.1Y-121.4
X107.1Y-122.0
X107.7Y-119.6
X107.7Y-120.2
X107.7Y-120.8
X107.7Y-121.4
X107.7Y-122.0
X108.3Y-119.6
X108.3Y-120.2
X108.3Y-120.8
X108.3Y-121.4
X108.3Y-122.0
X108.9Y-119.6
X108.9Y-120.2
X108.9Y-120.8
X108.9Y-121.4
X108.9Y-122.0
X109.5Y-119.6
X109.5Y-120.2
X109.5Y-120.8
X109.5Y-121.4
X109.5Y-122.0
X110.1Y-119.6
X110.1Y-120.2
X110.1Y-120.8
X110.1Y-121.4
X110.1Y-122.0
X110.7Y-119.6
X110.7Y-120.2
X110.7Y-120.8
X110.7Y-121.4
X110.7Y-122.0
X111.3Y-119.6
X111.3Y-120.2
X111.3Y-120.8
X111.3Y-121.4
X111.3Y-122.0
X111.9Y-119.6
X111.9Y-120.2
X111.9Y-120.8
X111.9Y-121.4
X111.9Y-122.0
X112.5Y-119.3
X113.1Y-119.3
X116.1Y-119.6
X116.1Y-120.2
X116.1Y-120.8
X116.1Y-121.4
X116.1Y-122.0
X116.7Y-119.6
X116.7Y-120.2
X116.7Y-120.8
X116.7Y-121.4
X116.7Y-122.0
X117.3Y-119.6
X117.3Y-120.2
X117.3Y-120.8
X117.3Y-121.4
X117.3Y-122.0
X117.4Y-112.3
X117.9Y-119.6
X117.9Y-120.2
X117.9Y-120.8
X117.9Y-121.4
X117.9Y-122.0
X118.0Y-111.7
X118.0Y-112.3
X118.5Y-119.6
X118.5Y-120.2
X118.5Y-120.8
X118.5Y-121.4
X118.5Y-122.0
X118.6Y-111.1
X118.6Y-111.7
X118.6Y-112.3
X118.8Y-82.6
X118.8Y-83.1
X118.8Y-83.7
X119.0Y-82.1
X119.0Y-84.3
X119.0Y-84.9
X119.0Y-96.9
X119.0Y-97.5
X119.0Y-98.1
X119.0Y-98.7
X119.0Y-99.3
X119.0Y-99.9
X119.0Y-100.5
X119.0Y-101.1
X119.1Y-119.6
X119.1Y-120.2
X119.1Y-120.8
X119.1Y-121.4
X119.1Y-122.0
X119.2Y-110.5
X119.2Y-111.1
X119.2Y-111.7
X119.2Y-112.3
X119.3Y-81.6
X119.6Y-84.9
X119.6Y-96.9
X119.6Y-97.5
X119.6Y-98.1
X119.6Y-98.7
X119.6Y-99.3
X119.6Y-99.9
X119.6Y-100.5
X119.6Y-101.1
X119.7Y-81.2
X119.7Y-119.6
X119.7Y-120.2
X119.7Y-120.8
X119.7Y-121.4
X119.7Y-122.0
X119.8Y-110.5
X119.8Y-111.1
X119.8Y-111.7
X119.8Y-112.3
X120.2Y-80.9
X120.2Y-85.1
X120.2Y-97.5
X120.2Y-98.1
X120.2Y-98.7
X120.2Y-99.3
X120.2Y-99.9
X120.2Y-100.5
X120.2Y-101.1
X120.3Y-119.6
X120.3Y-120.2
X120.3Y-120.8
X120.3Y-121.4
X120.3Y-122.0
X120.4Y-110.5
X120.4Y-111.1
X120.4Y-111.7
X120.4Y-112.3
X120.8Y-80.7
X120.8Y-97.5
X120.8Y-98.1
X120.8Y-98.7
X120.8Y-99.3
X120.8Y-99.9
X120.8Y-100.5
X120.8Y-101.1
X120.9Y-119.6
X120.9Y-120.2
X120.9Y-120.8
X120.9Y-121.4
X120.9Y-122.0
X121.0Y-110.5
X121.0Y-111.1
X121.0Y-111.7
X121.0Y-112.3
X121.4Y-80.7
X121.4Y-96.9
X121.4Y-97.5
X121.4Y-98.1
X121.4Y-98.7
X121.4Y-99.3
X121.4Y-99.9
X121.4Y-100.5
X121.4Y-101.1
X121.5Y-119.6
X121.5Y-120.2
X121.5Y-120.8
X121.5Y-121.4
X121.5Y-122.0
X121.6Y-110.5
X121.6Y-111.1
X121.6Y-111.7
X121.6Y-112.3
X122.0Y-80.7
X122.0Y-85.0
X122.0Y-96.9
X122.0Y-97.5
X122.0Y-98.1
X122.0Y-98.7
X122.0Y-99.3
X122.0Y-99.9
X122.0Y-100.5
X122.0Y-101.1
X122.1Y-119.6
X122.1Y-120.2
X122.1Y-120.8
X122.1Y-121.4
X122.1Y-122.0
X122.2Y-110.5
X122.2Y-111.1
X122.2Y-111.7
X122.2Y-112.3
X122.5Y-81.1
X122.6Y-84.9
X122.6Y-85.6
X122.6Y-86.2
X122.6Y-86.8
X122.6Y-87.4
X122.6Y-96.9
X122.6Y-97.5
X122.6Y-98.1
X122.6Y-98.7
X122.6Y-99.3
X122.6Y-99.9
X122.6Y-100.5
X122.6Y-101.1
X122.7Y-119.4
X122.8Y-110.5
X122.8Y-111.1
X122.8Y-111.7
X122.8Y-112.3
X123.1Y-81.1
X123.1Y-81.7
X123.1Y-82.3
X123.1Y-83.5
X123.2Y-84.3
X123.2Y-84.9
X123.2Y-85.6
X123.2Y-86.2
X123.2Y-86.8
X123.2Y-87.4
X123.4Y-110.5
X123.4Y-111.1
X123.4Y-111.7
X123.7Y-81.1
X123.7Y-81.7
X123.7Y-82.3
X123.7Y-82.9
X123.7Y-83.5
X123.8Y-84.3
X123.8Y-84.9
X123.8Y-85.6
X123.8Y-86.2
X123.8Y-86.8
X123.8Y-87.4
X124.0Y-110.5
X124.0Y-111.1
X124.4Y-81.1
X124.4Y-81.7
X124.4Y-82.3
X124.4Y-82.9
X124.4Y-83.5
X124.4Y-84.3
X124.4Y-84.9
X124.4Y-85.6
X124.4Y-86.2
X124.4Y-86.8
X124.4Y-87.4
X124.6Y-110.5
X124.6Y-111.1
X125.1Y-119.4
X125.2Y-109.9
X125.2Y-110.5
X125.2Y-111.1
X125.5Y-81.1
X125.5Y-81.7
X125.5Y-82.3
X125.5Y-82.9
X125.5Y-83.5
X125.5Y-84.1
X125.5Y-84.7
X125.5Y-85.3
X125.5Y-85.9
X125.5Y-86.5
X125.5Y-87.1
X125.5Y-87.7
X125.5Y-88.3
X125.5Y-88.9
X125.5Y-90.7
X125.5Y-91.3
X125.5Y-91.9
X125.5Y-92.5
X125.5Y-93.1
X125.8Y-109.9
X125.8Y-110.5
X125.8Y-111.1
X125.9Y-119.6
X125.9Y-120.2
X125.9Y-120.8
X125.9Y-121.4
X125.9Y-122.0
X126.1Y-81.1
X126.1Y-81.7
X126.1Y-82.3
X126.1Y-82.9
X126.1Y-83.5
X126.1Y-87.1
X126.1Y-87.7
X126.1Y-88.3
X126.1Y-88.9
X126.1Y-90.7
X126.1Y-91.3
X126.1Y-91.9
X126.1Y-92.5
X126.4Y-109.9
X126.4Y-110.5
X126.4Y-111.1
X126.5Y-119.6
X126.5Y-120.2
X126.5Y-120.8
X126.5Y-121.4
X126.5Y-122.0
X126.7Y-87.1
X126.7Y-87.7
X126.7Y-88.3
X126.7Y-90.7
X126.7Y-91.3
X126.7Y-91.9
X126.7Y-92.5
X126.7Y-105.5
X126.7Y-106.1
X126.7Y-106.7
X126.7Y-107.3
X126.7Y-107.9
X126.7Y-108.5
X126.7Y-109.1
X127.0Y-109.9
X127.0Y-110.5
X127.0Y-111.1
X127.1Y-119.6
X127.1Y-120.2
X127.1Y-120.8
X127.1Y-121.4
X127.1Y-122.0
X127.6Y-87.1
X127.6Y-87.7
X127.6Y-109.9
X127.6Y-110.5
X127.6Y-111.1
X127.7Y-84.0
X127.7Y-84.7
X127.7Y-85.3
X127.7Y-85.9
X127.7Y-119.6
X127.7Y-120.2
X127.7Y-120.8
X127.7Y-121.4
X127.7Y-122.0
X128.025Y-100.6
X128.2Y-109.9
X128.2Y-110.5
X128.2Y-111.1
X128.3Y-119.6
X128.3Y-120.2
X128.3Y-120.8
X128.3Y-121.4
X128.3Y-122.0
X128.8Y-109.9
X128.8Y-110.5
X128.8Y-111.1
X128.9Y-87.125
X128.9Y-119.6
X128.9Y-120.2
X128.9Y-120.8
X128.9Y-121.4
X128.9Y-122.0
X129.225Y-90.15
X129.375Y-101.35
X129.4Y-109.9
X129.4Y-110.5
X129.4Y-111.1
X129.5Y-119.6
X129.5Y-120.2
X129.5Y-120.8
X129.5Y-121.4
X129.5Y-122.0
X129.725Y-94.05
X129.725Y-95.15
X129.775Y-92.85
X129.975Y-85.55
X130.0Y-86.3
X130.0Y-110.5
X130.0Y-111.1
X130.1Y-84.0
X130.1Y-119.6
X130.1Y-120.2
X130.1Y-120.8
X130.1Y-121.4
X130.1Y-122.0
X130.4Y-92.5
X130.4Y-93.1
X130.4Y-93.7
X130.4Y-94.3
X130.6Y-86.3
X130.6Y-111.1
X130.7Y-119.6
X130.7Y-120.2
X130.7Y-120.8
X130.7Y-121.4
X130.7Y-122.0
X130.825Y-109.45
X130.825Y-110.05
X130.925Y-91.825
X131.0Y-92.5
X131.0Y-93.1
X131.0Y-93.7
X131.2Y-86.3
X131.2Y-111.1
X131.3Y-119.6
X131.3Y-120.2
X131.3Y-120.8
X131.3Y-121.4
X131.3Y-122.0
X131.6Y-84.0
X131.6Y-92.5
X131.6Y-93.1
X131.675Y-85.55
X131.693Y-95.068
X131.8Y-110.5
X131.8Y-111.1
X131.9Y-119.6
X131.9Y-120.2
X131.9Y-120.8
X131.9Y-121.4
X131.9Y-122.0
X132.0Y-86.4
X132.275Y-103.0
X132.425Y-91.35
X132.5Y-109.9
X132.5Y-110.5
X132.5Y-119.4
X132.6Y-86.4
X132.725Y-102.05
X132.9Y-92.5
X132.9Y-93.1
X133.275Y-100.75
X133.5Y-92.5
X133.575Y-95.15
X134.0Y-85.1
X134.0Y-85.7
X134.0Y-86.3
X134.029Y-97.35
X134.175Y-100.75
X134.575Y-87.6
X134.6Y-85.1
X134.6Y-86.3
X134.6Y-93.1
X134.7Y-88.5
X135.025Y-103.05
X135.175Y-85.55
X135.2Y-93.1
X135.28Y-95.128
X135.3Y-87.9
X135.3Y-88.5
X135.4Y-107.9
X135.4Y-108.6
X135.475Y-94.45
X135.525Y-92.5
X135.675Y-103.05
X135.8Y-93.1
X135.9Y-87.9
X135.9Y-119.6
X135.9Y-120.2
X135.9Y-120.8
X135.9Y-121.4
X135.9Y-122.0
X136.0Y-107.9
X136.0Y-108.6
X136.325Y-103.05
X136.4Y-89.6
X136.4Y-90.2
X136.4Y-90.8
X136.5Y-119.6
X136.5Y-120.2
X136.5Y-120.8
X136.5Y-121.4
X136.5Y-122.0
X136.6Y-107.9
X136.6Y-108.6
X136.825Y-100.75
X137.0Y-89.6
X137.0Y-90.2
X137.0Y-90.8
X137.1Y-85.6
X137.1Y-86.3
X137.1Y-119.6
X137.1Y-120.2
X137.1Y-120.8
X137.1Y-121.4
X137.1Y-122.0
X137.2Y-108.6
X137.275Y-107.85
X137.3Y-81.1
X137.3Y-81.7
X137.3Y-82.3
X137.3Y-82.9
X137.3Y-83.5
X137.6Y-89.6
X137.6Y-90.2
X137.6Y-90.8
X137.7Y-85.8
X137.7Y-119.6
X137.7Y-120.2
X137.7Y-120.8
X137.7Y-121.4
X137.7Y-122.0
X137.9Y-81.1
X137.9Y-81.7
X137.9Y-82.3
X137.9Y-82.9
X137.9Y-83.5
X137.975Y-88.05
X138.2Y-89.6
X138.2Y-90.2
X138.2Y-90.8
X138.2Y-107.9
X138.3Y-119.6
X138.3Y-120.2
X138.3Y-120.8
X138.3Y-121.4
X138.3Y-122.0
X138.8Y-89.6
X138.8Y-90.2
X138.8Y-90.8
X138.9Y-119.6
X138.9Y-120.2
X138.9Y-120.8
X138.9Y-121.4
X138.9Y-122.0
X139.4Y-89.6
X139.4Y-90.2
X139.4Y-90.8
X139.425Y-102.35
X139.5Y-119.6
X139.5Y-120.2
X139.5Y-120.8
X139.5Y-121.4
X139.5Y-122.0
X140.0Y-89.6
X140.0Y-90.2
X140.0Y-90.8
X140.025Y-96.2
X140.1Y-119.6
X140.1Y-120.2
X140.1Y-120.8
X140.1Y-121.4
X140.1Y-122.0
X140.425Y-108.8
X140.425Y-110.1
X140.425Y-110.8
X140.475Y-111.45
X140.7Y-119.6
X140.7Y-120.2
X140.7Y-120.8
X140.7Y-121.4
X140.7Y-122.0
X141.075Y-94.15
X141.3Y-119.6
X141.3Y-120.2
X141.3Y-120.8
X141.3Y-121.4
X141.3Y-122.0
X141.9Y-119.6
X141.9Y-120.2
X141.9Y-120.8
X141.9Y-121.4
X141.9Y-122.0
X142.5Y-119.3
X142.9Y-81.0
X143.1Y-119.3
X143.2Y-102.775
X143.425Y-100.9
X143.425Y-101.5
X143.425Y-102.1
X143.5Y-81.0
X143.925Y-102.75
X144.1Y-81.0
X144.525Y-102.75
X144.575Y-106.4
X144.625Y-107.7
X144.675Y-91.15
X144.9Y-81.0
X144.9Y-82.0
X144.9Y-82.6
X144.9Y-83.2
X144.9Y-83.8
X144.9Y-84.4
X144.9Y-85.0
X144.9Y-86.0
X144.9Y-87.9
X144.9Y-88.5
X144.9Y-89.1
X144.9Y-89.7
X144.9Y-90.3
X144.9Y-119.3
X145.15Y-102.8
X145.325Y-86.7
X145.425Y-87.35
X145.5Y-81.0
X145.5Y-82.0
X145.5Y-82.6
X145.5Y-83.2
X145.5Y-83.8
X145.5Y-84.4
X145.5Y-86.0
X145.5Y-89.1
X145.5Y-89.7
X145.5Y-90.3
X145.5Y-90.9
X145.5Y-91.5
X145.6Y-106.3
X145.6Y-108.0
X145.775Y-102.75
X146.1Y-81.0
X146.1Y-89.7
X146.1Y-90.3
X146.1Y-90.9
X146.1Y-91.5
X146.1Y-119.6
X146.1Y-120.2
X146.1Y-120.8
X146.1Y-121.4
X146.1Y-122.0
X146.175Y-84.4
X146.425Y-82.05
X146.6Y-106.3
X146.7Y-81.0
X146.7Y-90.3
X146.7Y-90.9
X146.7Y-91.5
X146.7Y-108.0
X146.7Y-119.6
X146.7Y-120.2
X146.7Y-120.8
X146.7Y-121.4
X146.7Y-122.0
X147.2Y-103.5
X147.2Y-104.1
X147.2Y-106.5
X147.3Y-81.0
X147.3Y-108.0
X147.3Y-119.6
X147.3Y-120.2
X147.3Y-120.8
X147.3Y-121.4
X147.3Y-122.0
X147.7Y-111.4
X147.9Y-81.0
X147.9Y-92.4
X147.9Y-93.0
X147.9Y-93.6
X147.9Y-94.2
X147.9Y-119.6
X147.9Y-120.2
X147.9Y-120.8
X147.9Y-121.4
X147.9Y-122.0
X147.925Y-105.1
X147.925Y-105.7
X147.925Y-106.4
X147.975Y-104.4
X148.075Y-107.0
X148.075Y-107.65
X148.3Y-111.4
X148.5Y-81.0
X148.5Y-92.4
X148.5Y-93.0
X148.5Y-93.6
X148.5Y-94.2
X148.5Y-119.6
X148.5Y-120.2
X148.5Y-120.8
X148.5Y-121.4
X148.5Y-122.0
X148.6Y-96.5
X148.6Y-97.1
X148.6Y-97.7
X148.9Y-111.4
X149.1Y-81.0
X149.1Y-119.6
X149.1Y-120.2
X149.1Y-120.8
X149.1Y-121.4
X149.1Y-122.0
X149.2Y-96.5
X149.2Y-97.1
X149.2Y-97.7
X149.475Y-87.35
X149.5Y-111.4
X149.7Y-81.0
X149.7Y-119.6
X149.7Y-120.2
X149.7Y-120.8
X149.7Y-121.4
X149.7Y-122.0
X150.1Y-111.4
X150.3Y-81.0
X150.3Y-119.6
X150.3Y-120.2
X150.3Y-120.8
X150.3Y-121.4
X150.3Y-122.0
X150.7Y-111.4
X150.9Y-81.0
X150.9Y-119.6
X150.9Y-120.2
X150.9Y-120.8
X150.9Y-121.4
X150.9Y-122.0
X151.3Y-111.4
X151.5Y-81.0
X151.5Y-119.6
X151.5Y-120.2
X151.5Y-120.8
X151.5Y-121.4
X151.5Y-122.0
X151.9Y-111.4
X152.075Y-94.35
X152.1Y-81.0
X152.1Y-119.6
X152.1Y-120.2
X152.1Y-120.8
X152.1Y-121.4
X152.1Y-122.0
X152.5Y-111.4
X152.7Y-81.0
X152.7Y-119.3
X153.1Y-111.4
X153.275Y-107.55
X153.3Y-81.0
X153.425Y-103.65
X153.425Y-105.15
X153.425Y-106.7
X153.7Y-111.4
X153.9Y-81.0
X154.5Y-81.0
X154.5Y-111.4
X154.5Y-112.0
X154.6Y-103.8
X154.6Y-104.4
X154.6Y-105.0
X154.6Y-105.6
X154.6Y-106.2
X154.6Y-106.8
X154.6Y-107.4
X154.6Y-108.0
X154.6Y-108.6
X154.6Y-109.2
X155.1Y-81.0
X155.1Y-111.4
X155.1Y-112.0
X155.1Y-119.3
X155.3Y-88.7
X155.7Y-81.0
X155.7Y-111.4
X155.7Y-112.0
X155.9Y-88.7
X155.9Y-119.6
X155.9Y-120.2
X155.9Y-120.8
X155.9Y-121.4
X155.9Y-122.0
X156.2Y-80.8
X156.3Y-112.0
X156.5Y-85.2
X156.5Y-85.7
X156.5Y-86.3
X156.5Y-86.9
X156.5Y-87.5
X156.5Y-88.1
X156.5Y-88.7
X156.5Y-119.6
X156.5Y-120.2
X156.5Y-120.8
X156.5Y-121.4
X156.5Y-122.0
X156.8Y-80.8
X157.1Y-85.2
X157.1Y-85.7
X157.1Y-86.3
X157.1Y-86.9
X157.1Y-87.5
X157.1Y-88.1
X157.1Y-88.7
X157.1Y-119.6
X157.1Y-120.2
X157.1Y-120.8
X157.1Y-121.4
X157.1Y-122.0
X157.4Y-80.8
X157.6Y-93.5
X157.6Y-94.1
X157.6Y-94.7
X157.6Y-95.3
X157.6Y-95.9
X157.6Y-96.5
X157.6Y-97.1
X157.6Y-97.7
X157.6Y-98.3
X157.7Y-85.1
X157.7Y-85.7
X157.7Y-86.3
X157.7Y-86.9
X157.7Y-87.5
X157.7Y-88.1
X157.7Y-88.7
X157.7Y-119.6
X157.7Y-120.2
X157.7Y-120.8
X157.7Y-121.4
X157.7Y-122.0
X157.9Y-81.0
X158.2Y-93.5
X158.2Y-94.1
X158.2Y-94.7
X158.2Y-95.3
X158.2Y-95.9
X158.2Y-96.5
X158.2Y-97.1
X158.2Y-97.7
X158.2Y-98.3
X158.3Y-85.1
X158.3Y-85.7
X158.3Y-86.3
X158.3Y-86.9
X158.3Y-87.5
X158.3Y-88.1
X158.3Y-88.7
X158.3Y-111.1
X158.3Y-119.6
X158.3Y-120.2
X158.3Y-120.8
X158.3Y-121.4
X158.3Y-122.0
X158.4Y-81.3
X158.8Y-81.7
X158.8Y-93.5
X158.8Y-94.1
X158.8Y-94.7
X158.8Y-95.3
X158.8Y-95.9
X158.8Y-96.5
X158.8Y-97.1
X158.8Y-97.7
X158.8Y-98.3
X158.9Y-84.5
X158.9Y-85.1
X158.9Y-85.7
X158.9Y-86.3
X158.9Y-86.9
X158.9Y-87.5
X158.9Y-88.1
X158.9Y-88.7
X158.9Y-111.1
X158.9Y-111.7
X158.9Y-119.6
X158.9Y-120.2
X158.9Y-120.8
X158.9Y-121.4
X158.9Y-122.0
X159.1Y-82.2
X159.2Y-83.4
X159.2Y-84.0
X159.3Y-82.8
X159.5Y-111.1
X159.5Y-111.7
X159.5Y-119.6
X159.5Y-120.2
X159.5Y-120.8
X159.5Y-121.4
X159.5Y-122.0
X159.6Y-112.3
X160.1Y-111.5
X160.1Y-119.6
X160.1Y-120.2
X160.1Y-120.8
X160.1Y-121.4
X160.1Y-122.0
X160.2Y-112.3
X160.7Y-112.0
X160.7Y-119.6
X160.7Y-120.2
X160.7Y-120.8
X160.7Y-121.4
X160.7Y-122.0
X161.2Y-112.3
X161.3Y-119.6
X161.3Y-120.2
X161.3Y-120.8
X161.3Y-121.4
X161.3Y-122.0
X161.9Y-119.6
X161.9Y-120.2
X161.9Y-120.8
X161.9Y-121.4
X161.9Y-122.0
X162.5Y-119.3
X163.1Y-119.3
X164.9Y-119.3
X165.9Y-119.6
X165.9Y-120.2
X165.9Y-120.8
X165.9Y-121.4
X165.9Y-122.0
X166.5Y-119.6
X166.5Y-120.2
X166.5Y-120.8
X166.5Y-121.4
X166.5Y-122.0
X167.1Y-119.6
X167.1Y-120.2
X167.1Y-120.8
X167.1Y-121.4
X167.1Y-122.0
X167.7Y-119.6
X167.7Y-120.2
X167.7Y-120.8
X167.7Y-121.4
X167.7Y-122.0
X168.3Y-119.6
X168.3Y-120.2
X168.3Y-120.8
X168.3Y-121.4
X168.3Y-122.0
X168.9Y-119.6
X168.9Y-120.2
X168.9Y-120.8
X168.9Y-121.4
X168.9Y-122.0
X169.5Y-119.6
X169.5Y-120.2
X169.5Y-120.8
X169.5Y-121.4
X169.5Y-122.0
X170.1Y-119.6
X170.1Y-120.2
X170.1Y-120.8
X170.1Y-121.4
X170.1Y-122.0
X170.7Y-119.6
X170.7Y-120.2
X170.7Y-120.8
X170.7Y-121.4
X170.7Y-122.0
X171.3Y-119.6
X171.3Y-120.2
X171.3Y-120.8
X171.3Y-121.4
X171.3Y-122.0
X171.9Y-119.6
X171.9Y-120.2
X171.9Y-120.8
X171.9Y-121.4
X171.9Y-122.0
X172.5Y-119.6
X175.3Y-119.6
X175.9Y-119.6
X175.9Y-120.2
X175.9Y-120.8
X175.9Y-121.4
X175.9Y-122.0
X176.5Y-119.6
X176.5Y-120.2
X176.5Y-120.8
X176.5Y-121.4
X176.5Y-122.0
X177.1Y-119.6
X177.1Y-120.2
X177.1Y-120.8
X177.1Y-121.4
X177.1Y-122.0
X177.7Y-119.6
X177.7Y-120.2
X177.7Y-120.8
X177.7Y-121.4
X177.7Y-122.0
X177.9Y-113.0
X178.3Y-119.6
X178.3Y-120.2
X178.3Y-120.8
X178.3Y-121.4
X178.3Y-122.0
X178.5Y-113.0
X178.9Y-119.0
X178.9Y-119.6
X178.9Y-120.2
X178.9Y-120.8
X178.9Y-121.4
X178.9Y-122.0
X179.0Y-118.4
X179.2Y-113.0
X179.2Y-116.2
X179.3Y-113.8
X179.3Y-114.4
X179.3Y-115.0
X179.3Y-115.6
X179.5Y-119.1
X179.5Y-119.6
X179.5Y-120.2
X179.5Y-120.8
X179.5Y-121.4
X179.5Y-122.0
X179.9Y-113.0
X179.9Y-113.8
X179.9Y-114.4
X179.9Y-115.0
X179.9Y-115.6
X180.1Y-119.6
X180.1Y-120.2
X180.1Y-120.8
X180.1Y-121.4
X180.1Y-122.0
X180.5Y-113.8
X180.5Y-114.4
X180.5Y-115.0
X180.6Y-113.0
X180.7Y-119.7
X180.7Y-120.2
X180.7Y-120.8
X180.7Y-121.4
X180.7Y-122.0
X181.1Y-113.8
X181.1Y-114.4
X181.1Y-115.0
X181.2Y-113.2
X181.3Y-119.7
X181.3Y-120.2
X181.3Y-120.8
X181.3Y-121.4
X181.3Y-122.0
X181.7Y-113.8
X181.7Y-114.4
X181.7Y-115.0
X181.8Y-113.1
X181.9Y-119.6
X181.9Y-120.2
X181.9Y-120.8
X181.9Y-121.4
X182.2Y-113.7
X182.2Y-114.4
X182.2Y-121.9
X182.3Y-113.2
X182.3Y-115.0
X182.3Y-115.6
X182.5Y-119.6
X182.5Y-120.2
X182.5Y-120.8
X182.6Y-114.1
X182.6Y-119.0
X182.6Y-121.5
X182.8Y-114.7
X182.9Y-115.3
X182.9Y-115.9
X183.0Y-120.6
X183.3Y-114.9
X183.3Y-116.4
X183.3Y-117.0
X183.3Y-117.6
X183.3Y-118.2
X183.3Y-118.8
X183.3Y-119.4
X183.3Y-120.0
T2
X145.05Y-97.925
X157.275Y-102.0
T4
X120.0Y-103.675
X120.0Y-106.215
X120.0Y-108.755
X120.5Y-87.2
X120.5Y-89.74
X120.5Y-92.28
X120.5Y-94.82
X122.54Y-103.675
X122.54Y-106.215
X122.54Y-108.755
X157.63Y-109.05
X157.68Y-105.4
T5
X101.5Y-116.0
X106.5Y-116.0
X111.5Y-116.0
X116.5Y-116.0
X121.5Y-116.0
X126.5Y-116.0
X131.5Y-116.0
X136.5Y-116.0
X141.5Y-116.0
X146.5Y-116.0
X151.5Y-116.0
X156.5Y-116.0
X161.5Y-116.0
X166.5Y-116.0
X171.5Y-116.0
X176.5Y-116.0
T3
G00X154.725Y-99.8
M15
G01X155.525Y-99.8
M16
G05
G00X154.775Y-92.2
M15
G01X155.575Y-92.2
M16
G05
G00X158.175Y-99.8
M15
G01X158.975Y-99.8
M16
G05
G00X158.225Y-92.2
M15
G01X159.025Y-92.2
M16
G05
T0
M30
